<svg width="24" height="25" viewBox="0 0 24 25" fill="none" xmlns="http://www.w3.org/2000/svg">
<g clip-path="url(#clip0_46_13572)">
<path d="M13 24.1958C11.2833 24.1958 9.71667 23.7165 8.3 22.7578C6.88333 21.7991 5.85833 20.5201 5.225 18.9208L2.675 12.4958C2.60833 12.3291 2.56267 12.1748 2.538 12.0328C2.51333 11.8908 2.50067 11.7285 2.5 11.5458C2.5 11.0458 2.69167 10.6041 3.075 10.2208C3.45833 9.83747 3.9 9.6458 4.4 9.6458C4.51667 9.6458 4.621 9.65013 4.713 9.6588C4.805 9.66747 4.90067 9.68813 5 9.7208L5.775 9.9208C6.00833 9.98747 6.225 10.0751 6.425 10.1838C6.625 10.2925 6.81667 10.4298 7 10.5958V4.6958C7 3.9958 7.24167 3.40413 7.725 2.9208C8.20833 2.43747 8.8 2.1958 9.5 2.1958C9.6 2.1958 9.696 2.1998 9.788 2.2078C9.88 2.2158 9.96733 2.22847 10.05 2.2458C10.15 1.61247 10.4377 1.11247 10.913 0.745801C11.3883 0.379134 11.9173 0.195801 12.5 0.195801C13.0333 0.195801 13.5083 0.341801 13.925 0.633801C14.3417 0.925801 14.6417 1.31313 14.825 1.7958C14.9417 1.76247 15.0543 1.73747 15.163 1.7208C15.2717 1.70413 15.384 1.6958 15.5 1.6958C16.2 1.6958 16.7917 1.93747 17.275 2.4208C17.7583 2.90413 18 3.4958 18 4.1958V4.7458C18.0833 4.72913 18.1667 4.7168 18.25 4.7088C18.3333 4.7008 18.4167 4.69647 18.5 4.6958C19.2 4.6958 19.7917 4.93747 20.275 5.4208C20.7583 5.90413 21 6.4958 21 7.1958V16.1958C21 18.4291 20.225 20.3208 18.675 21.8708C17.125 23.4208 15.2333 24.1958 13 24.1958ZM13 22.1958C14.6667 22.1958 16.0833 21.6125 17.25 20.4458C18.4167 19.2791 19 17.8625 19 16.1958V7.1958C19 7.06247 18.95 6.9458 18.85 6.8458C18.75 6.7458 18.6333 6.6958 18.5 6.6958C18.3667 6.6958 18.25 6.7458 18.15 6.8458C18.05 6.9458 18 7.06247 18 7.1958V11.1958C18 11.4791 17.904 11.7168 17.712 11.9088C17.52 12.1008 17.2827 12.1965 17 12.1958C16.7167 12.1958 16.479 12.0998 16.287 11.9078C16.095 11.7158 15.9993 11.4785 16 11.1958V4.1958C16 4.06247 15.95 3.9458 15.85 3.8458C15.75 3.7458 15.6333 3.6958 15.5 3.6958C15.3667 3.6958 15.25 3.7458 15.15 3.8458C15.05 3.9458 15 4.06247 15 4.1958V11.1958C15 11.4791 14.904 11.7168 14.712 11.9088C14.52 12.1008 14.2827 12.1965 14 12.1958C13.7167 12.1958 13.479 12.0998 13.287 11.9078C13.095 11.7158 12.9993 11.4785 13 11.1958V2.6958C13 2.56247 12.95 2.4458 12.85 2.3458C12.75 2.2458 12.6333 2.1958 12.5 2.1958C12.3667 2.1958 12.25 2.2458 12.15 2.3458C12.05 2.4458 12 2.56247 12 2.6958V11.1958C12 11.4791 11.904 11.7168 11.712 11.9088C11.52 12.1008 11.2827 12.1965 11 12.1958C10.7167 12.1958 10.479 12.0998 10.287 11.9078C10.095 11.7158 9.99933 11.4785 10 11.1958V4.6958C10 4.56247 9.95 4.4458 9.85 4.3458C9.75 4.2458 9.63333 4.1958 9.5 4.1958C9.36667 4.1958 9.25 4.2458 9.15 4.3458C9.05 4.4458 9 4.56247 9 4.6958V14.1958C9 14.4791 8.904 14.7168 8.712 14.9088C8.52 15.1008 8.28267 15.1965 8 15.1958H7.625C7.40833 15.1958 7.22933 15.1415 7.088 15.0328C6.94667 14.9241 6.834 14.7701 6.75 14.5708L6.025 12.6958C5.90833 12.4125 5.74567 12.2041 5.537 12.0708C5.32833 11.9375 4.98267 11.7958 4.5 11.6458L7.1 18.1958C7.58333 19.3958 8.36233 20.3625 9.437 21.0958C10.5117 21.8291 11.6993 22.1958 13 22.1958Z" fill="black"/>
</g>
<defs>
<clipPath id="clip0_46_13572">
<rect width="24" height="24" fill="white" transform="translate(0 0.195801)"/>
</clipPath>
</defs>
</svg>
