<svg width="1176" height="941" viewBox="0 0 1176 941" fill="none" xmlns="http://www.w3.org/2000/svg">
<path opacity="0.95" d="M618.673 264.396L1093.85 339.334C1103.66 340.895 1114.77 342.677 1125.91 343.815C1143.19 345.62 1156.57 341.2 1165.68 330.621C1171.93 323.376 1178.39 310.344 1173.73 289.29C1170.59 275.004 1166.19 263.22 1160.3 253.2C1144.12 225.863 1127.29 198.496 1111.02 171.981L1098.96 152.328C1094.51 145.061 1090.29 139.299 1085.73 134.222C1064.51 110.732 1037.24 104.007 1018.57 101.001C977.081 94.2949 935.561 87.6465 894.057 80.989L882.071 79.0854C838.639 72.119 795.208 65.1526 751.788 58.1378L680.978 46.8029C617.701 36.6869 546 25.215 476.586 13.3574L466.877 11.693C465.865 11.527 464.796 11.3343 463.774 11.1532C391.696 -1.30561 294.659 -16.7838 237.667 67.1249C220.464 92.4566 205.287 121.732 191.265 156.597C189.922 159.936 188.73 163.389 187.414 166.773C173.572 202.808 162.209 240.322 151.309 276.769C143.948 301.454 137.119 324.308 129.627 346.452C97.022 442.935 64.3497 539.377 31.4408 635.736C21.2465 665.579 12.7738 692.059 5.51294 716.704C-1.66041 740.985 0.768568 764.499 12.5561 784.689C19.1078 795.941 25.8826 807.118 32.6213 817.966L63.5121 869.09L76.3891 889.977C81.9772 899.052 87.5711 908.102 93.4325 916.947C103.165 931.664 117.33 940.018 132.324 939.878C147.209 939.763 160.421 931.257 168.575 916.531C174.825 905.241 179.018 896.094 182.112 886.876C200.677 832.039 222.654 766.883 244.81 699.49C287.95 568.29 330.965 437.022 373.68 305.67C381.712 280.966 391.516 265.254 405.433 254.728C423.293 241.256 443.237 236.811 468.224 240.721C518.38 248.533 568.513 256.442 618.654 264.366L618.673 264.396Z" fill="white" stroke="url(#paint0_linear_687_1894)"/>
<defs>
<linearGradient id="paint0_linear_687_1894" x1="1008.34" y1="4.61196" x2="-63.4333" y2="662.183" gradientUnits="userSpaceOnUse">
<stop stop-color="#9ADD19"/>
<stop offset="0.333333" stop-color="#00B1C6"/>
<stop offset="0.666667" stop-color="#1C7FC1"/>
<stop offset="1" stop-color="#25255C"/>
</linearGradient>
</defs>
</svg>
