<svg style="opacity: 0.2" width="1246" height="1210" viewBox="0 0 1246 1210" fill="none" xmlns="http://www.w3.org/2000/svg">
<path d="M567.614 668.181C579.689 694.813 595.986 721.764 617.412 750.566C619.463 753.325 621.683 756.017 623.786 758.776C670.321 705.681 729.352 634.13 688.821 544.73C674.542 513.219 655.622 484.081 634.549 456.339C588.518 508.744 527.604 579.941 567.597 668.164L567.614 668.181Z" fill="white"/>
<path d="M558.633 672.269C515.646 577.418 580.53 502.907 628.445 448.365C606.85 420.707 583.288 394.361 560.046 368.486C543.884 350.502 528.63 333.493 514.318 316.35C451.94 241.704 389.646 166.991 327.521 92.1429C308.247 68.9264 290.841 48.7549 274.326 30.5014C257.205 11.5244 235.594 1.2116 211.864 0.673242C199.385 0.387241 186.923 0.370418 174.629 0.387241L127.067 0.000299637C118.675 0.000299637 110.266 -0.0165239 101.857 0.0171232L94.5247 0.0507703C84.1985 0.0844174 73.8891 0.101241 63.5797 0.471359C45.0463 1.11065 29.6915 9.33737 21.4507 23.0486C13.1931 36.7766 13.5294 53.5833 22.3757 69.1451C28.6151 80.1477 34.1482 88.3408 40.2868 95.6926C76.5295 139.097 119.298 190.207 161.78 240.224C247.215 340.795 332.751 441.248 418.489 541.55C433.928 559.602 441.496 574.575 443.026 590.069C444.961 609.888 439.041 627.149 424.342 644.46C393.01 681.337 361.611 718.164 330.195 755.007L32.7019 1103.96C26.1429 1111.63 19.3653 1119.57 12.8231 1128.1C1.7064 1142.61 -1.60674 1157.22 2.98456 1171.54C6.1127 1181.3 14.3367 1194.49 35.7628 1201.91C49.4862 1206.67 61.797 1209.06 73.3677 1209.24C97.182 1209.65 121.181 1209.71 144.76 1209.71C151.672 1209.71 158.568 1209.71 165.379 1209.71H186.233C191.615 1209.7 199.772 1209.5 208.365 1207.9C239.596 1202.11 259.492 1182.48 271.736 1168.21C300.276 1134.98 328.765 1101.72 357.272 1068.48C384.651 1036.53 412.048 1004.58 439.444 972.654L484.264 920.349C526.275 871.292 569.699 820.552 612.905 771.192L617.143 766.363C614.603 763.066 611.946 759.819 609.474 756.488C587.611 727.097 570.978 699.574 558.616 672.286L558.633 672.269Z" fill="white"/>
<path opacity="0.95" d="M917.999 456.742L1215.59 107.654C1221.75 100.453 1228.73 92.3107 1235.2 83.8148C1245.28 70.6588 1248.34 57.5701 1244.25 44.8851C1241.46 36.1874 1234.06 24.4277 1214.58 17.7151C1201.38 13.1391 1189.59 10.8343 1178.49 10.6324C1148.17 10.1277 1117.49 10.1782 1087.79 10.1782H1065.78C1057.64 10.1782 1050.84 10.7333 1044.44 11.911C1014.74 17.4459 995.682 36.2715 983.943 49.949C957.824 80.3492 931.74 110.8 905.655 141.234L898.137 150.032C870.842 181.879 843.546 213.726 816.217 245.54L771.734 297.474C731.993 343.89 686.954 396.48 642.74 447.018L636.551 454.084C635.912 454.825 635.222 455.598 634.566 456.339C588.536 508.744 527.621 579.941 567.614 668.164C579.689 694.796 595.986 721.747 617.412 750.549C619.464 753.308 621.684 756 623.786 758.759C646.255 787.998 671.162 815.959 695.43 843.011C711.878 861.315 727.099 878.273 741.411 895.416C803.789 970.079 866.099 1044.78 928.225 1119.62C947.464 1142.81 964.821 1162.91 981.285 1181.11C997.498 1199.06 1017.86 1208.82 1040.18 1209.31C1052.61 1209.6 1065.09 1209.66 1077.28 1209.6L1134.31 1209.98L1157.74 1209.93C1167.91 1209.92 1178.07 1209.88 1188.2 1209.53C1205.03 1208.96 1218.89 1201.6 1226.24 1189.34C1233.55 1177.18 1233.2 1162.19 1225.26 1148.21C1219.18 1137.49 1213.81 1129.52 1207.84 1122.4C1172.4 1079.94 1130.26 1029.55 1086.38 977.902C1000.96 877.348 915.426 776.861 829.671 676.576C813.543 657.717 805.622 641.902 803.974 625.331C801.888 604.083 808.195 585.644 823.819 567.273C855.151 530.379 886.55 493.552 917.966 456.726L917.999 456.742Z" fill="white"/>
</svg>
