<svg width="840" height="1164" viewBox="0 0 840 1164" fill="none" xmlns="http://www.w3.org/2000/svg">
<path opacity="0.95" d="M272.624 699.971L157.838 924.206C155.461 928.834 152.763 934.069 150.381 939.428C146.668 947.732 146.707 955.101 150.527 961.337C153.141 965.614 158.619 970.931 169.926 972.009C177.594 972.753 184.213 972.468 190.192 971.151C206.517 967.519 222.964 963.563 238.893 959.751L250.7 956.925C255.066 955.881 258.638 954.713 261.924 953.262C277.142 946.5 284.944 934.022 289.484 925.225C299.588 905.671 309.668 886.095 319.751 866.527L322.653 860.873C333.203 840.396 343.753 819.92 354.326 799.457L371.515 766.07C386.869 736.231 404.272 702.422 421.496 669.813L423.908 665.253C424.156 664.776 424.426 664.275 424.683 663.797C442.642 629.959 466.17 584.196 433.395 542.312C423.499 529.668 411.299 517.397 396.11 504.797C394.655 503.59 393.119 502.44 391.638 501.24C375.833 488.541 358.885 476.836 342.397 465.534C331.225 457.89 320.885 450.806 311.008 443.507C267.968 411.722 224.96 379.911 182.032 347.995C168.737 338.11 156.847 329.623 145.68 322.035C134.68 314.549 122.505 311.963 110.473 314.568C103.771 316.011 97.0695 317.577 90.5389 319.178L59.9034 326.292L47.3454 329.325C41.8906 330.64 36.4471 331.962 31.0626 333.45C22.1073 335.916 15.6189 341.613 13.2519 349.092C10.89 356.514 13.0039 364.457 19.0562 370.889C23.6972 375.819 27.5983 379.38 31.714 382.407C56.1702 400.488 85.2426 421.932 115.406 443.826C174.127 486.451 232.903 529.026 291.77 571.466C302.841 579.446 309.12 586.858 312.131 595.478C315.977 606.534 314.962 617.17 308.942 628.967C296.875 652.651 284.763 676.308 272.643 699.967L272.624 699.971Z" stroke="url(#paint0_linear_441_1616)" stroke-opacity="0.6"/>
<path opacity="0.95" d="M436.638 716.018L253.216 1074.33C249.418 1081.73 245.107 1090.09 241.301 1098.66C235.367 1111.93 235.429 1123.7 241.534 1133.66C245.711 1140.5 254.465 1149 272.532 1150.72C284.785 1151.91 295.362 1151.45 304.915 1149.35C331.002 1143.54 357.285 1137.22 382.738 1131.13L401.604 1126.62C408.58 1124.95 414.289 1123.08 419.539 1120.76C443.857 1109.96 456.324 1090.02 463.579 1075.96C479.725 1044.71 495.832 1013.43 511.943 982.164L516.581 973.129C533.439 940.409 550.298 907.689 567.192 874.991L594.66 821.639C619.195 773.959 647.003 719.934 674.527 667.827L678.381 660.54C678.777 659.778 679.209 658.978 679.619 658.213C708.316 604.142 745.913 531.016 693.54 464.087C677.728 443.883 658.232 424.274 633.961 404.14C631.637 402.211 629.182 400.374 626.814 398.456C601.56 378.164 574.478 359.461 548.13 341.4C530.279 329.186 513.756 317.866 497.974 306.202C429.198 255.412 360.474 204.579 291.877 153.58C270.632 137.784 251.633 124.222 233.789 112.097C216.212 100.136 196.756 96.0031 177.53 100.165C166.82 102.471 156.112 104.973 145.676 107.531L96.7223 118.899L76.6555 123.747C67.9391 125.848 59.2405 127.96 50.6364 130.338C36.3263 134.278 25.9583 143.381 22.176 155.333C18.4018 167.192 21.7797 179.886 31.4508 190.163C38.8669 198.041 45.1007 203.732 51.6773 208.568C90.7569 237.461 137.213 271.727 185.412 306.712C279.245 374.825 373.165 442.858 467.231 510.673C484.922 523.426 494.955 535.269 499.768 549.043C505.914 566.711 504.292 583.707 494.671 602.557C475.389 640.403 456.035 678.205 436.667 716.011L436.638 716.018Z" stroke="url(#paint1_linear_441_1616)" stroke-opacity="0.6"/>
<defs>
<linearGradient id="paint0_linear_441_1616" x1="185.399" y1="296.256" x2="338.491" y2="935.914" gradientUnits="userSpaceOnUse">
<stop stop-color="#9ADD19"/>
<stop offset="0.5" stop-color="#00B1C6"/>
<stop offset="0.75" stop-color="#1C7FC1"/>
<stop offset="1" stop-color="#25255C"/>
</linearGradient>
<linearGradient id="paint1_linear_441_1616" x1="297.257" y1="70.9043" x2="541.889" y2="1093.04" gradientUnits="userSpaceOnUse">
<stop stop-color="#9ADD19"/>
<stop offset="0.5" stop-color="#00B1C6"/>
<stop offset="0.75" stop-color="#1C7FC1"/>
<stop offset="1" stop-color="#25255C"/>
</linearGradient>
</defs>
</svg>
