<svg width="1245" height="1210" viewBox="0 0 1245 1210" fill="none" xmlns="http://www.w3.org/2000/svg">
<g opacity="0.8" clip-path="url(#clip0_450_1568)">
<path d="M557.633 672.269C514.646 577.418 579.53 502.906 627.445 448.364C605.85 420.707 582.288 394.361 559.046 368.486C542.884 350.502 527.63 333.493 513.318 316.35C450.94 241.704 388.646 166.991 326.521 92.1426C307.247 68.9261 289.841 48.7547 273.326 30.5011C256.205 11.5242 234.594 1.21135 210.864 0.672997C198.385 0.386997 185.923 0.370174 173.629 0.386997L126.067 5.54963e-05C117.675 5.54963e-05 109.266 -0.0167681 100.857 0.016879L93.5247 0.0505261C83.1985 0.0841732 72.8891 0.100997 62.5797 0.471115C44.0463 1.11041 28.6915 9.33712 20.4507 23.0483C12.1931 36.7763 12.5294 53.5831 21.3757 69.1448C27.6151 80.1474 33.1482 88.3405 39.2868 95.6924C75.5295 139.097 118.298 190.207 160.78 240.223C246.215 340.795 331.751 441.248 417.489 541.55C432.928 559.602 440.496 574.575 442.026 590.069C443.961 609.887 438.041 627.148 423.342 644.46C392.01 681.337 360.611 718.164 329.195 755.007L31.7019 1103.96C25.1429 1111.63 18.3653 1119.57 11.8231 1128.1C0.706395 1142.6 -2.60674 1157.22 1.98456 1171.54C5.1127 1181.3 13.3367 1194.49 34.7628 1201.91C48.4862 1206.67 60.797 1209.06 72.3677 1209.24C96.182 1209.65 120.181 1209.71 143.76 1209.71C150.672 1209.71 157.568 1209.71 164.379 1209.71H185.233C190.615 1209.7 198.772 1209.5 207.365 1207.9C238.596 1202.11 258.492 1182.48 270.736 1168.21C299.276 1134.98 327.765 1101.72 356.272 1068.48C383.651 1036.53 411.048 1004.58 438.444 972.654L483.264 920.349C525.275 871.292 568.699 820.552 611.905 771.191L616.143 766.363C613.603 763.066 610.946 759.819 608.474 756.488C586.611 727.097 569.978 699.574 557.616 672.286L557.633 672.269Z" stroke="white" stroke-opacity="0.3"/>
<path opacity="0.95" d="M916.999 456.742L1214.59 107.654C1220.75 100.453 1227.73 92.3107 1234.2 83.8148C1244.28 70.6588 1247.34 57.5701 1243.25 44.8851C1240.46 36.1874 1233.06 24.4277 1213.58 17.7151C1200.38 13.1391 1188.59 10.8343 1177.49 10.6324C1147.17 10.1277 1116.49 10.1782 1086.79 10.1782H1064.78C1056.64 10.1782 1049.84 10.7333 1043.44 11.911C1013.74 17.4459 994.682 36.2715 982.943 49.949C956.824 80.3492 930.74 110.8 904.655 141.234L897.137 150.032C869.842 181.879 842.546 213.726 815.217 245.54L770.734 297.474C730.993 343.89 685.954 396.48 641.74 447.018L635.551 454.084C634.912 454.825 634.222 455.598 633.566 456.339C587.536 508.744 526.621 579.941 566.614 668.164C578.689 694.796 594.986 721.747 616.412 750.549C618.464 753.308 620.684 756 622.786 758.759C645.255 787.998 670.162 815.959 694.43 843.011C710.878 861.315 726.099 878.273 740.411 895.416C802.789 970.079 865.099 1044.78 927.225 1119.62C946.464 1142.81 963.821 1162.91 980.285 1181.11C996.498 1199.06 1016.86 1208.82 1039.18 1209.31C1051.61 1209.6 1064.09 1209.66 1076.28 1209.6L1133.31 1209.98L1156.74 1209.93C1166.91 1209.92 1177.07 1209.88 1187.2 1209.53C1204.03 1208.96 1217.89 1201.6 1225.24 1189.34C1232.55 1177.18 1232.2 1162.19 1224.26 1148.21C1218.18 1137.49 1212.81 1129.52 1206.84 1122.4C1171.4 1079.94 1129.26 1029.55 1085.38 977.902C999.962 877.348 914.426 776.861 828.671 676.576C812.543 657.717 804.622 641.902 802.974 625.331C800.888 604.083 807.195 585.644 822.819 567.273C854.151 530.379 885.55 493.552 916.966 456.726L916.999 456.742Z" stroke="white" stroke-opacity="0.3"/>
</g>
<defs>
<clipPath id="clip0_450_1568">
<rect width="1245" height="1210" fill="white"/>
</clipPath>
</defs>
</svg>
