<svg style="opacity: 0.8" width="1247" height="1212" viewBox="0 0 1247 1212" fill="none" xmlns="http://www.w3.org/2000/svg">
<path d="M558.651 673.273C515.665 578.422 580.548 503.911 628.463 449.369C606.868 421.711 583.306 395.365 560.064 369.49C543.902 351.506 528.648 334.497 514.336 317.354C451.958 242.708 389.664 167.995 327.539 93.1468C308.265 69.9303 290.859 49.7588 274.344 31.5053C257.223 12.5283 235.612 2.2155 211.882 1.67715C199.403 1.39115 186.941 1.37432 174.647 1.39115L127.086 1.00421C118.693 1.00421 110.284 0.987382 101.875 1.02103L94.5428 1.05468C84.2166 1.08832 73.9071 1.10515 63.5977 1.47527C45.0643 2.11456 29.7095 10.3413 21.4687 24.0525C13.2111 37.7805 13.5475 54.5872 22.3937 70.149C28.6332 81.1516 34.1663 89.3447 40.3049 96.6965C76.5476 140.101 119.316 191.211 161.798 241.228C247.233 341.799 332.769 442.252 418.507 542.554C433.946 560.606 441.514 575.579 443.045 591.073C444.979 610.891 439.059 628.152 424.36 645.464C393.028 682.341 361.629 719.168 330.213 756.011L32.72 1104.97C26.161 1112.64 19.3833 1120.58 12.8411 1129.11C1.72446 1143.61 -1.58868 1158.23 3.00263 1172.55C6.13077 1182.3 14.3548 1195.49 35.7808 1202.91C49.5043 1207.67 61.815 1210.06 73.3858 1210.25C97.2 1210.65 121.199 1210.72 144.778 1210.72C151.69 1210.72 158.586 1210.72 165.397 1210.72H186.251C191.633 1210.7 199.79 1210.5 208.384 1208.9C239.615 1203.11 259.51 1183.48 271.754 1169.21C300.294 1135.99 328.783 1102.73 357.29 1069.48C384.669 1037.54 412.066 1005.59 439.462 973.658L484.282 921.353C526.293 872.296 569.717 821.556 612.923 772.196L617.161 767.367C614.621 764.07 611.964 760.823 609.492 757.492C587.629 728.101 570.996 700.578 558.634 673.29L558.651 673.273Z" stroke="white" stroke-opacity="0.3"/>
<path opacity="0.5" d="M918.017 457.746L1215.61 108.658C1221.77 101.457 1228.75 93.3146 1235.22 84.8187C1245.29 71.6627 1248.36 58.574 1244.27 45.889C1241.48 37.1913 1234.08 25.4316 1214.6 18.719C1201.4 14.143 1189.61 11.8382 1178.51 11.6363C1148.19 11.1316 1117.51 11.1821 1087.81 11.1821H1065.8C1057.66 11.1821 1050.86 11.7372 1044.45 12.9149C1014.75 18.4498 995.7 37.2754 983.961 50.9529C957.842 81.3531 931.758 111.804 905.673 142.238L898.155 151.036C870.86 182.883 843.564 214.73 816.235 246.544L771.752 298.478C732.011 344.894 686.972 397.484 642.758 448.022L636.569 455.088C635.93 455.828 635.24 456.602 634.584 457.343C588.554 509.748 527.639 580.945 567.632 669.168C579.707 695.8 596.004 722.751 617.43 751.553C619.482 754.312 621.702 757.004 623.804 759.763C646.273 789.002 671.18 816.963 695.449 844.015C711.897 862.319 727.117 879.277 741.429 896.42C803.807 971.083 866.117 1045.78 928.243 1120.63C947.483 1143.81 964.839 1163.91 981.303 1182.12C997.516 1200.07 1017.88 1209.83 1040.2 1210.31C1052.63 1210.6 1065.11 1210.67 1077.3 1210.6L1134.33 1210.99L1157.76 1210.94C1167.93 1210.92 1178.09 1210.89 1188.21 1210.53C1205.05 1209.96 1218.91 1202.61 1226.26 1190.34C1233.57 1178.18 1233.22 1163.19 1225.28 1149.21C1219.19 1138.49 1213.83 1130.52 1207.86 1123.4C1172.42 1080.94 1130.28 1030.55 1086.4 978.906C1000.98 878.352 915.444 777.865 829.69 677.58C813.561 658.72 805.64 642.906 803.992 626.335C801.906 605.087 808.213 586.648 823.837 568.277C855.169 531.383 886.568 494.556 917.984 457.73L918.017 457.746Z" stroke="white" stroke-opacity="0.3"/>
</svg>
