<svg width="546" height="161" viewBox="0 0 546 161" fill="none" xmlns="http://www.w3.org/2000/svg">
<g filter="url(#filter0_d_321_534)">
<mask id="path-1-inside-1_321_534" fill="white">
<path d="M4 22C4 9.84973 13.8497 0 26 0H520C532.15 0 542 9.84974 542 22V131C542 143.15 532.15 153 520 153H26C13.8497 153 4 143.15 4 131V22Z"/>
</mask>
<path d="M4 22C4 9.84973 13.8497 0 26 0H520C532.15 0 542 9.84974 542 22V131C542 143.15 532.15 153 520 153H26C13.8497 153 4 143.15 4 131V22Z" fill="#B5C715"/>
<path d="M26 1H520V-1H26V1ZM541 22V131H543V22H541ZM520 152H26V154H520V152ZM5 131V22H3V131H5ZM26 152C14.402 152 5 142.598 5 131H3C3 143.703 13.2974 154 26 154V152ZM541 131C541 142.598 531.598 152 520 152V154C532.703 154 543 143.703 543 131H541ZM520 1C531.598 1 541 10.402 541 22H543C543 9.29745 532.703 -1 520 -1V1ZM26 -1C13.2975 -1 3 9.29745 3 22H5C5 10.402 14.402 1 26 1V-1Z" fill="#B5C715" mask="url(#path-1-inside-1_321_534)"/>
</g>
<path d="M120.675 127.205C120.675 119.649 120.698 112.104 120.642 104.548C120.631 103.551 120.968 102.982 121.801 102.467C122.847 101.832 123.803 101.066 124.917 100.277C121.519 96.97 118.167 93.6738 114.758 90.4433C114.443 90.1367 113.734 90.1039 113.227 90.1258C110.493 90.2791 107.861 90.0382 105.464 88.6146C101.662 86.3587 99.4003 83.1611 99.209 78.7479C99.1753 78.0361 99.1643 77.4995 98.3542 77.1491C92.6726 74.6632 88.9597 70.2172 85.7982 65.1908C83.4356 61.4238 81.163 57.58 78.4853 54.032C76.3026 51.13 73.3101 48.9727 69.6424 47.7134C67.8873 50.5277 66.6269 53.5501 65.9744 56.7587C65.4568 59.2555 65.153 61.818 65.063 64.3586C64.8492 70.2172 64.8607 76.0869 64.7032 81.9565C64.6694 83.0844 65.0297 83.6648 66.1436 83.9057C67.0099 84.0919 67.8197 84.519 68.686 84.6394C70.0698 84.8365 70.3737 85.7673 70.4637 86.8624C70.7899 90.728 71.06 94.5937 71.3976 98.4593C71.5551 100.233 71.8249 101.996 72.0612 103.946H78.5193C80.6345 103.946 82.7605 103.858 84.8644 103.957C89.8147 104.198 95.0016 100.529 96.4529 95.8202C97.0267 93.9476 97.2402 91.9655 97.634 89.9067H100.841C102.393 98.5469 95.9013 106.716 86.5069 107.844V127.205H82.5807V107.746H68.3261C68.2249 106.212 68.1686 104.811 68.0449 103.42C67.6623 99.434 67.1335 95.4588 66.8973 91.4617C66.6948 88.1546 66.8408 88.1437 63.6231 87.0814C62.7906 86.8077 61.9468 86.5558 61.1143 86.293V60.3834C61.4405 58.7627 61.6657 57.1091 62.1157 55.5213C64.6134 46.5197 69.44 38.9747 77.068 33.2255C85.101 27.1916 94.1465 24.3992 104.328 24.7059C110.224 24.8811 115.714 26.2937 121.182 28.6371C122.847 26.9945 124.523 25.3081 126.222 23.6436C129.035 20.8949 129.035 20.9169 132.365 22.9975C132.759 23.2384 133.355 23.4246 133.782 23.337C135.639 22.9209 136.854 21.8915 137.034 19.8984C137.102 19.1538 137.417 18.431 137.619 17.6973H151.536C151.84 18.8472 152.099 20.0189 152.481 21.1468C152.65 21.6506 152.92 22.2638 153.348 22.5047C154.81 23.3479 156.34 23.8955 157.825 22.439C158.163 22.1105 158.669 21.9681 159.074 21.6834C159.895 21.114 160.514 21.1906 161.257 21.9462C163.293 24.0378 165.431 26.0528 167.535 28.0896C170.336 30.8163 170.325 30.8054 168.176 34.0688C167.929 34.452 167.748 35.0324 167.838 35.4486C168.266 37.2554 169.324 38.4272 171.371 38.6024C172.136 38.6681 172.879 38.9747 173.632 39.1718V52.7069C172.879 52.904 172.136 53.2107 171.36 53.2764C169.301 53.4406 168.266 54.6453 167.827 56.4412C167.726 56.8573 167.929 57.4377 168.176 57.821C170.325 61.0624 170.336 61.0515 167.614 63.7015C165.476 65.7822 163.316 67.8409 161.223 69.9654C160.548 70.6553 159.952 70.7976 159.164 70.2501C158.838 70.0311 158.512 69.8011 158.174 69.6149C156.847 68.8703 155.676 67.9504 153.921 69.0893C153.145 69.593 152.661 70.0092 152.47 70.7976C151.559 74.4771 151.559 74.488 147.823 74.488C144.414 74.488 144.482 74.499 143.976 77.6966C142.896 84.4423 140.049 90.4433 135.628 95.7216C132.748 99.1602 129.473 102.194 125.626 104.614C124.849 105.095 124.602 105.785 124.613 106.727C124.658 113.539 124.636 120.361 124.636 127.172H120.675V127.205ZM140.555 74.3347C137.461 73.9733 137.462 73.9734 136.697 70.8415C136.685 70.7977 136.696 70.7429 136.685 70.6991C136.438 69.9654 135.943 69.593 135.245 69.1331C133.524 67.9833 132.32 68.8703 130.992 69.6478C130.655 69.8449 130.329 70.064 130.002 70.283C129.226 70.8196 128.63 70.7101 127.943 70.0092C125.817 67.8519 123.612 65.7603 121.441 63.6468C118.797 61.0734 118.808 61.0843 120.856 57.9743C121.126 57.5691 121.531 56.9558 121.396 56.6273C120.799 55.1818 120.45 53.4188 118.223 53.4407C117.75 53.4407 117.278 53.0683 116.805 53.0793C115.511 53.1231 115.5 52.3785 115.5 51.4586C115.523 48.3705 115.512 45.2823 115.512 42.1942C115.512 39.0404 115.511 39.0404 118.684 38.3177C119.899 38.0439 121.733 36.2589 121.452 35.1857C121.159 34.1235 120.394 32.8642 119.449 32.3604C113.003 28.889 105.949 28.0677 98.7481 28.6591C93.7528 29.0642 89.0046 30.6302 84.6056 33.0284C79.4303 35.8428 75.1101 39.5879 71.7574 44.3296C76.4377 46.1584 80.083 49.1698 82.8394 53.1231C86.1809 57.9305 89.2185 62.935 92.5712 67.7424C94.3151 70.2282 96.8467 71.9694 99.5243 73.3492C100.582 71.838 101.369 70.2939 102.551 69.1112C105.408 66.2421 108.941 64.9828 113.104 65.377C117.582 65.8041 120.867 67.8519 123.128 71.6518C124.535 73.9953 124.714 76.4811 124.613 79.0764C124.591 79.5802 124.635 80.2481 124.95 80.5657C128.157 83.7852 131.431 86.95 134.75 90.1805C138.002 85.2527 139.847 80.051 140.555 74.3347ZM149.522 66.483C150.726 66.0559 152.02 65.8479 152.999 65.2018C155.091 63.822 156.925 63.7892 158.815 65.4865C159.04 65.6836 159.85 65.5961 160.109 65.3661C161.482 64.1396 162.719 62.7707 164.103 61.5661C164.97 60.8105 165.15 60.263 164.294 59.3432C162.956 57.9086 162.922 56.3973 164.058 54.7C164.812 53.5611 165.139 52.1485 165.69 50.7687C166.995 50.4402 168.457 50.0678 169.909 49.6955V42.2271C169.02 41.9862 168.176 41.6686 167.31 41.57C166.061 41.4276 165.42 40.8911 165.082 39.6755C164.756 38.4819 164.204 37.3211 163.574 36.2479C162.989 35.2295 162.922 34.452 163.754 33.5212C164.317 32.908 164.621 32.0647 164.981 31.4515C163.079 29.5899 161.268 27.8268 159.445 26.0418C158.692 26.4908 157.904 26.9836 157.083 27.4107C156.621 27.6516 156.014 28.0349 155.631 27.9035C153.595 27.2136 151.356 26.6989 149.691 25.4615C148.757 24.7716 148.825 22.8223 148.431 21.4315C148.408 21.3549 148.296 21.3111 148.262 21.2892H140.713C140.319 22.7457 139.959 24.1364 139.656 25.2752C137.743 26.0856 135.954 26.7755 134.244 27.5968C133.423 27.991 132.781 28.002 132.072 27.4654C131.566 27.0931 130.948 26.8412 130.464 26.4579C129.834 25.9542 129.406 26.0528 128.866 26.6222C127.662 27.8706 126.425 29.108 125.12 30.2578C124.276 31.0025 123.848 31.572 124.827 32.5795C126.199 34.0031 126.166 35.5252 125.052 37.2226C124.298 38.3615 123.972 39.7741 123.432 41.1429C122.127 41.4824 120.664 41.8438 119.224 42.2161V49.6846C120.124 49.9255 120.968 50.243 121.835 50.3416C123.083 50.4839 123.702 51.0534 124.04 52.247C124.377 53.4406 124.917 54.6014 125.547 55.6746C126.155 56.704 126.166 57.4815 125.344 58.4013C124.793 59.0255 124.478 59.8469 124.141 60.4382C126.053 62.3108 127.865 64.0848 129.665 65.8479C130.351 65.4755 131.172 65.1799 131.78 64.6433C132.725 63.811 133.524 63.9315 134.581 64.4681C136.021 65.1799 137.585 65.6617 139.07 66.2859C139.34 66.3954 139.611 66.7349 139.701 67.0087C140.713 70.3815 140.702 70.3815 144.37 70.3815C148.667 70.3924 148.667 70.3924 149.522 66.483ZM111.866 86.293C116.535 86.7091 120.54 82.1317 120.754 78.2333C121.035 73.1192 116.231 69.2755 112.237 69.1331C107.208 68.9469 103.192 73.4915 103.034 77.4338C102.843 82.2521 107.501 86.7201 111.866 86.293ZM128.202 97.7256C129.35 96.5867 130.542 95.4588 131.645 94.2542C131.904 93.9695 132.027 93.1591 131.836 92.962C128.922 90.0381 125.93 87.1691 123.488 84.7928C122.003 86.2602 120.585 87.64 119.224 88.976C121.823 91.5056 124.951 94.5499 128.202 97.7256Z" fill="white"/>
<path d="M190.06 54V51.8H191.66V54H190.06ZM195.783 54V51.8H197.383V54H195.783ZM201.505 54V51.8H203.105V54H201.505ZM206.928 54V39.1H208.528V54H206.928ZM215.925 54.12C214.965 54.12 214.225 53.84 213.705 53.28C213.185 52.72 212.925 51.92 212.925 50.88V44.78H210.945V43.28H211.445C211.898 43.28 212.258 43.1333 212.525 42.84C212.792 42.5333 212.925 42.1533 212.925 41.7V40.8H214.425V43.28H216.785V44.78H214.425V50.88C214.425 51.24 214.478 51.56 214.585 51.84C214.692 52.1067 214.872 52.32 215.125 52.48C215.392 52.64 215.745 52.72 216.185 52.72C216.292 52.72 216.418 52.7133 216.565 52.7C216.712 52.6867 216.838 52.6733 216.945 52.66V54C216.785 54.04 216.605 54.0667 216.405 54.08C216.205 54.1067 216.045 54.12 215.925 54.12ZM219.639 43.7V43C220.039 42.8933 220.326 42.7 220.499 42.42C220.686 42.1267 220.786 41.7533 220.799 41.3H220.039V39.1H221.639V40.78C221.639 41.5533 221.472 42.1933 221.139 42.7C220.806 43.2067 220.306 43.54 219.639 43.7ZM228.69 54.24C227.663 54.24 226.763 53.98 225.99 53.46C225.216 52.94 224.656 52.2333 224.31 51.34L225.57 50.74C225.876 51.3933 226.303 51.9133 226.85 52.3C227.41 52.6867 228.023 52.88 228.69 52.88C229.33 52.88 229.87 52.7267 230.31 52.42C230.75 52.1 230.97 51.6867 230.97 51.18C230.97 50.8067 230.863 50.5133 230.65 50.3C230.436 50.0733 230.19 49.9 229.91 49.78C229.63 49.66 229.383 49.5733 229.17 49.52L227.63 49.08C226.643 48.8 225.93 48.4067 225.49 47.9C225.05 47.3933 224.83 46.8067 224.83 46.14C224.83 45.5133 224.99 44.9667 225.31 44.5C225.63 44.0333 226.063 43.6733 226.61 43.42C227.156 43.1667 227.763 43.04 228.43 43.04C229.336 43.04 230.156 43.28 230.89 43.76C231.636 44.2267 232.163 44.88 232.47 45.72L231.19 46.32C230.923 45.72 230.536 45.2533 230.03 44.92C229.536 44.5733 228.983 44.4 228.37 44.4C227.77 44.4 227.29 44.5533 226.93 44.86C226.57 45.1667 226.39 45.5533 226.39 46.02C226.39 46.38 226.483 46.6667 226.67 46.88C226.856 47.0933 227.07 47.2533 227.31 47.36C227.563 47.4667 227.783 47.5467 227.97 47.6L229.75 48.12C230.616 48.3733 231.29 48.7667 231.77 49.3C232.263 49.8333 232.51 50.46 232.51 51.18C232.51 51.7667 232.343 52.2933 232.01 52.76C231.69 53.2267 231.243 53.5933 230.67 53.86C230.096 54.1133 229.436 54.24 228.69 54.24ZM238.544 54V43.28H240.044V45.36L239.704 45.28C239.971 44.5867 240.404 44.04 241.004 43.64C241.617 43.24 242.324 43.04 243.124 43.04C243.884 43.04 244.564 43.2133 245.164 43.56C245.777 43.9067 246.257 44.3867 246.604 45C246.964 45.6 247.144 46.28 247.144 47.04V54H245.644V47.62C245.644 46.9667 245.524 46.4133 245.284 45.96C245.057 45.5067 244.731 45.16 244.304 44.92C243.891 44.6667 243.411 44.54 242.864 44.54C242.317 44.54 241.831 44.6667 241.404 44.92C240.977 45.16 240.644 45.5133 240.404 45.98C240.164 46.4333 240.044 46.98 240.044 47.62V54H238.544ZM255.029 54.24C254.015 54.24 253.095 54 252.269 53.52C251.442 53.0267 250.782 52.36 250.289 51.52C249.809 50.6667 249.569 49.7 249.569 48.62C249.569 47.5533 249.809 46.6 250.289 45.76C250.769 44.92 251.415 44.26 252.229 43.78C253.055 43.2867 253.989 43.04 255.029 43.04C256.069 43.04 256.995 43.28 257.809 43.76C258.635 44.24 259.282 44.9 259.749 45.74C260.229 46.58 260.469 47.54 260.469 48.62C260.469 49.7133 260.222 50.6867 259.729 51.54C259.235 52.38 258.575 53.04 257.749 53.52C256.935 54 256.029 54.24 255.029 54.24ZM255.029 52.74C255.749 52.74 256.395 52.56 256.969 52.2C257.555 51.84 258.015 51.3467 258.349 50.72C258.695 50.0933 258.869 49.3933 258.869 48.62C258.869 47.8467 258.695 47.1533 258.349 46.54C258.015 45.9267 257.555 45.44 256.969 45.08C256.395 44.72 255.749 44.54 255.029 44.54C254.309 44.54 253.655 44.72 253.069 45.08C252.495 45.44 252.035 45.9267 251.689 46.54C251.342 47.1533 251.169 47.8467 251.169 48.62C251.169 49.3933 251.342 50.0933 251.689 50.72C252.035 51.3467 252.495 51.84 253.069 52.2C253.655 52.56 254.309 52.74 255.029 52.74ZM267.019 54.12C266.059 54.12 265.319 53.84 264.799 53.28C264.279 52.72 264.019 51.92 264.019 50.88V44.78H262.039V43.28H262.539C262.992 43.28 263.352 43.1333 263.619 42.84C263.886 42.5333 264.019 42.1533 264.019 41.7V40.8H265.519V43.28H267.879V44.78H265.519V50.88C265.519 51.24 265.572 51.56 265.679 51.84C265.786 52.1067 265.966 52.32 266.219 52.48C266.486 52.64 266.839 52.72 267.279 52.72C267.386 52.72 267.512 52.7133 267.659 52.7C267.806 52.6867 267.932 52.6733 268.039 52.66V54C267.879 54.04 267.699 54.0667 267.499 54.08C267.299 54.1067 267.139 54.12 267.019 54.12ZM272.071 58.4C271.978 58.4 271.851 58.3933 271.691 58.38C271.518 58.3667 271.378 58.3467 271.271 58.32V56.94C271.551 56.98 271.831 57 272.111 57C272.658 57 273.118 56.8333 273.491 56.5C273.878 56.1667 274.071 55.6667 274.071 55V43.28H275.571V55C275.571 55.7333 275.411 56.3533 275.091 56.86C274.771 57.3667 274.345 57.7467 273.811 58C273.291 58.2667 272.711 58.4 272.071 58.4ZM274.071 41.3V39.1H275.571V41.3H274.071ZM282.442 54.24C281.695 54.24 281.015 54.0667 280.402 53.72C279.788 53.36 279.302 52.8667 278.942 52.24C278.595 51.6 278.422 50.8667 278.422 50.04V43.28H279.922V49.86C279.922 50.4333 280.035 50.94 280.262 51.38C280.502 51.8067 280.828 52.14 281.242 52.38C281.668 52.62 282.155 52.74 282.702 52.74C283.248 52.74 283.735 52.62 284.162 52.38C284.588 52.1267 284.922 51.7733 285.162 51.32C285.402 50.8533 285.522 50.3 285.522 49.66V43.28H287.022V54H285.522V51.92L285.862 52C285.608 52.6933 285.175 53.24 284.562 53.64C283.948 54.04 283.242 54.24 282.442 54.24ZM293.826 54.24C292.8 54.24 291.9 53.98 291.126 53.46C290.353 52.94 289.793 52.2333 289.446 51.34L290.706 50.74C291.013 51.3933 291.44 51.9133 291.986 52.3C292.546 52.6867 293.16 52.88 293.826 52.88C294.466 52.88 295.006 52.7267 295.446 52.42C295.886 52.1 296.106 51.6867 296.106 51.18C296.106 50.8067 296 50.5133 295.786 50.3C295.573 50.0733 295.326 49.9 295.046 49.78C294.766 49.66 294.52 49.5733 294.306 49.52L292.766 49.08C291.78 48.8 291.066 48.4067 290.626 47.9C290.186 47.3933 289.966 46.8067 289.966 46.14C289.966 45.5133 290.126 44.9667 290.446 44.5C290.766 44.0333 291.2 43.6733 291.746 43.42C292.293 43.1667 292.9 43.04 293.566 43.04C294.473 43.04 295.293 43.28 296.026 43.76C296.773 44.2267 297.3 44.88 297.606 45.72L296.326 46.32C296.06 45.72 295.673 45.2533 295.166 44.92C294.673 44.5733 294.12 44.4 293.506 44.4C292.906 44.4 292.426 44.5533 292.066 44.86C291.706 45.1667 291.526 45.5533 291.526 46.02C291.526 46.38 291.62 46.6667 291.806 46.88C291.993 47.0933 292.206 47.2533 292.446 47.36C292.7 47.4667 292.92 47.5467 293.106 47.6L294.886 48.12C295.753 48.3733 296.426 48.7667 296.906 49.3C297.4 49.8333 297.646 50.46 297.646 51.18C297.646 51.7667 297.48 52.2933 297.146 52.76C296.826 53.2267 296.38 53.5933 295.806 53.86C295.233 54.1133 294.573 54.24 293.826 54.24ZM304.382 54.12C303.422 54.12 302.682 53.84 302.162 53.28C301.642 52.72 301.382 51.92 301.382 50.88V44.78H299.402V43.28H299.902C300.356 43.28 300.716 43.1333 300.982 42.84C301.249 42.5333 301.382 42.1533 301.382 41.7V40.8H302.882V43.28H305.242V44.78H302.882V50.88C302.882 51.24 302.936 51.56 303.042 51.84C303.149 52.1067 303.329 52.32 303.582 52.48C303.849 52.64 304.202 52.72 304.642 52.72C304.749 52.72 304.876 52.7133 305.022 52.7C305.169 52.6867 305.296 52.6733 305.402 52.66V54C305.242 54.04 305.062 54.0667 304.862 54.08C304.662 54.1067 304.502 54.12 304.382 54.12ZM314.535 54.24C313.855 54.24 313.248 54.1133 312.715 53.86C312.181 53.5933 311.761 53.2333 311.455 52.78C311.148 52.3267 310.995 51.8067 310.995 51.22C310.995 50.66 311.115 50.1533 311.355 49.7C311.595 49.2333 311.968 48.84 312.475 48.52C312.981 48.2 313.628 47.9733 314.415 47.84L318.615 47.14V48.5L314.775 49.14C314.001 49.2733 313.441 49.52 313.095 49.88C312.761 50.24 312.595 50.6667 312.595 51.16C312.595 51.64 312.781 52.0467 313.155 52.38C313.541 52.7133 314.035 52.88 314.635 52.88C315.368 52.88 316.008 52.7267 316.555 52.42C317.101 52.1 317.528 51.6733 317.835 51.14C318.141 50.6067 318.295 50.0133 318.295 49.36V46.64C318.295 46 318.061 45.48 317.595 45.08C317.128 44.68 316.521 44.48 315.775 44.48C315.121 44.48 314.548 44.6467 314.055 44.98C313.561 45.3 313.195 45.72 312.955 46.24L311.595 45.5C311.795 45.0467 312.108 44.6333 312.535 44.26C312.975 43.8867 313.475 43.5933 314.035 43.38C314.595 43.1533 315.175 43.04 315.775 43.04C316.561 43.04 317.255 43.1933 317.855 43.5C318.468 43.8067 318.941 44.2333 319.275 44.78C319.621 45.3133 319.795 45.9333 319.795 46.64V54H318.295V51.86L318.515 52.08C318.328 52.48 318.035 52.8467 317.635 53.18C317.248 53.5 316.788 53.76 316.255 53.96C315.735 54.1467 315.161 54.24 314.535 54.24ZM330.378 54.12C329.418 54.12 328.678 53.84 328.158 53.28C327.638 52.72 327.378 51.92 327.378 50.88V44.78H325.398V43.28H325.898C326.352 43.28 326.712 43.1333 326.978 42.84C327.245 42.5333 327.378 42.1533 327.378 41.7V40.8H328.878V43.28H331.238V44.78H328.878V50.88C328.878 51.24 328.932 51.56 329.038 51.84C329.145 52.1067 329.325 52.32 329.578 52.48C329.845 52.64 330.198 52.72 330.638 52.72C330.745 52.72 330.872 52.7133 331.018 52.7C331.165 52.6867 331.292 52.6733 331.398 52.66V54C331.238 54.04 331.058 54.0667 330.858 54.08C330.658 54.1067 330.498 54.12 330.378 54.12ZM334.032 54V43.28H335.532V54H334.032ZM334.032 41.3V39.1H335.532V41.3H334.032ZM338.603 54V43.28H340.103V45.32L339.863 45.02C340.156 44.3933 340.589 43.9067 341.163 43.56C341.749 43.2133 342.389 43.04 343.083 43.04C343.909 43.04 344.656 43.2733 345.323 43.74C345.989 44.2067 346.463 44.8133 346.743 45.56L346.323 45.58C346.589 44.7533 347.049 44.1267 347.703 43.7C348.369 43.26 349.103 43.04 349.903 43.04C350.623 43.04 351.283 43.2133 351.883 43.56C352.496 43.9067 352.983 44.3867 353.343 45C353.716 45.6 353.903 46.28 353.903 47.04V54H352.403V47.62C352.403 46.9667 352.283 46.4133 352.043 45.96C351.816 45.5067 351.503 45.16 351.103 44.92C350.703 44.6667 350.243 44.54 349.723 44.54C349.216 44.54 348.756 44.6667 348.343 44.92C347.929 45.16 347.603 45.5133 347.363 45.98C347.123 46.4333 347.003 46.98 347.003 47.62V54H345.503V47.62C345.503 46.9667 345.383 46.4133 345.143 45.96C344.916 45.5067 344.603 45.16 344.203 44.92C343.803 44.6667 343.343 44.54 342.823 44.54C342.303 44.54 341.836 44.6667 341.423 44.92C341.023 45.16 340.703 45.5133 340.463 45.98C340.223 46.4333 340.103 46.98 340.103 47.62V54H338.603ZM361.647 54.24C360.647 54.24 359.74 54 358.927 53.52C358.127 53.0267 357.493 52.3533 357.027 51.5C356.56 50.6467 356.327 49.68 356.327 48.6C356.327 47.52 356.553 46.5667 357.007 45.74C357.46 44.9 358.073 44.24 358.847 43.76C359.633 43.28 360.513 43.04 361.487 43.04C362.26 43.04 362.947 43.1867 363.547 43.48C364.16 43.76 364.68 44.1467 365.107 44.64C365.533 45.12 365.86 45.6667 366.087 46.28C366.313 46.88 366.427 47.5 366.427 48.14C366.427 48.2733 366.42 48.4267 366.407 48.6C366.393 48.76 366.373 48.9267 366.347 49.1H357.287V47.7H365.487L364.767 48.3C364.887 47.5667 364.8 46.9133 364.507 46.34C364.227 45.7533 363.82 45.2933 363.287 44.96C362.753 44.6133 362.153 44.44 361.487 44.44C360.82 44.44 360.2 44.6133 359.627 44.96C359.067 45.3067 358.627 45.7933 358.307 46.42C357.987 47.0333 357.86 47.7667 357.927 48.62C357.86 49.4733 357.993 50.22 358.327 50.86C358.673 51.4867 359.14 51.9733 359.727 52.32C360.327 52.6667 360.967 52.84 361.647 52.84C362.433 52.84 363.093 52.6533 363.627 52.28C364.16 51.9067 364.593 51.44 364.927 50.88L366.207 51.56C365.993 52.04 365.667 52.4867 365.227 52.9C364.787 53.3 364.26 53.6267 363.647 53.88C363.047 54.12 362.38 54.24 361.647 54.24ZM376.19 54.24C375.163 54.24 374.263 53.98 373.49 53.46C372.716 52.94 372.156 52.2333 371.81 51.34L373.07 50.74C373.376 51.3933 373.803 51.9133 374.35 52.3C374.91 52.6867 375.523 52.88 376.19 52.88C376.83 52.88 377.37 52.7267 377.81 52.42C378.25 52.1 378.47 51.6867 378.47 51.18C378.47 50.8067 378.363 50.5133 378.15 50.3C377.936 50.0733 377.69 49.9 377.41 49.78C377.13 49.66 376.883 49.5733 376.67 49.52L375.13 49.08C374.143 48.8 373.43 48.4067 372.99 47.9C372.55 47.3933 372.33 46.8067 372.33 46.14C372.33 45.5133 372.49 44.9667 372.81 44.5C373.13 44.0333 373.563 43.6733 374.11 43.42C374.656 43.1667 375.263 43.04 375.93 43.04C376.836 43.04 377.656 43.28 378.39 43.76C379.136 44.2267 379.663 44.88 379.97 45.72L378.69 46.32C378.423 45.72 378.036 45.2533 377.53 44.92C377.036 44.5733 376.483 44.4 375.87 44.4C375.27 44.4 374.79 44.5533 374.43 44.86C374.07 45.1667 373.89 45.5533 373.89 46.02C373.89 46.38 373.983 46.6667 374.17 46.88C374.356 47.0933 374.57 47.2533 374.81 47.36C375.063 47.4667 375.283 47.5467 375.47 47.6L377.25 48.12C378.116 48.3733 378.79 48.7667 379.27 49.3C379.763 49.8333 380.01 50.46 380.01 51.18C380.01 51.7667 379.843 52.2933 379.51 52.76C379.19 53.2267 378.743 53.5933 378.17 53.86C377.596 54.1133 376.936 54.24 376.19 54.24ZM382.645 54V43.28H384.145V54H382.645ZM382.645 41.3V39.1H384.145V41.3H382.645ZM387.216 54V43.28H388.716V45.36L388.376 45.28C388.642 44.5867 389.076 44.04 389.676 43.64C390.289 43.24 390.996 43.04 391.796 43.04C392.556 43.04 393.236 43.2133 393.836 43.56C394.449 43.9067 394.929 44.3867 395.276 45C395.636 45.6 395.816 46.28 395.816 47.04V54H394.316V47.62C394.316 46.9667 394.196 46.4133 393.956 45.96C393.729 45.5067 393.402 45.16 392.976 44.92C392.562 44.6667 392.082 44.54 391.536 44.54C390.989 44.54 390.502 44.6667 390.076 44.92C389.649 45.16 389.316 45.5133 389.076 45.98C388.836 46.4333 388.716 46.98 388.716 47.62V54H387.216ZM398.681 54V38.86H400.181V49.46L399.541 49.36L405.561 43.28H407.501L403.301 47.58L407.881 54H406.081L401.781 48.06L402.741 48.14L399.681 51.3L400.181 50.06V54H398.681ZM409.698 56.6V55.9C410.098 55.7933 410.391 55.5867 410.578 55.28C410.764 54.9733 410.858 54.5467 410.858 54H410.098V51.8H411.698V53.48C411.698 54.3467 411.531 55.04 411.198 55.56C410.864 56.0933 410.364 56.44 409.698 56.6ZM418.263 54V43.12H420.883V54H418.263ZM418.263 41.9V39.1H420.883V41.9H418.263ZM428.262 54.12C427.035 54.12 426.082 53.7867 425.402 53.12C424.735 52.44 424.402 51.4867 424.402 50.26V45.46H422.522V43.12H422.722C423.255 43.12 423.669 42.98 423.962 42.7C424.255 42.42 424.402 42.0133 424.402 41.48V40.64H427.022V43.12H429.522V45.46H427.022V50.12C427.022 50.48 427.082 50.7867 427.202 51.04C427.335 51.2933 427.535 51.4867 427.802 51.62C428.082 51.7533 428.435 51.82 428.862 51.82C428.955 51.82 429.062 51.8133 429.182 51.8C429.315 51.7867 429.442 51.7733 429.562 51.76V54C429.375 54.0267 429.162 54.0533 428.922 54.08C428.682 54.1067 428.462 54.12 428.262 54.12ZM432.404 44.82V43.52C432.844 43.4133 433.197 43.22 433.464 42.94C433.744 42.6467 433.917 42.3 433.984 41.9H432.804V39.1H435.444V40.82C435.444 41.9 435.184 42.7867 434.664 43.48C434.157 44.16 433.404 44.6067 432.404 44.82ZM442.852 54.24C441.692 54.24 440.679 53.9667 439.812 53.42C438.959 52.86 438.372 52.1067 438.052 51.16L440.012 50.22C440.292 50.8333 440.679 51.3133 441.172 51.66C441.679 52.0067 442.239 52.18 442.852 52.18C443.332 52.18 443.712 52.0733 443.992 51.86C444.272 51.6467 444.412 51.3667 444.412 51.02C444.412 50.8067 444.352 50.6333 444.232 50.5C444.126 50.3533 443.972 50.2333 443.772 50.14C443.586 50.0333 443.379 49.9467 443.152 49.88L441.372 49.38C440.452 49.1133 439.752 48.7067 439.272 48.16C438.806 47.6133 438.572 46.9667 438.572 46.22C438.572 45.5533 438.739 44.9733 439.072 44.48C439.419 43.9733 439.892 43.58 440.492 43.3C441.106 43.02 441.806 42.88 442.592 42.88C443.619 42.88 444.526 43.1267 445.312 43.62C446.099 44.1133 446.659 44.8067 446.992 45.7L444.992 46.64C444.806 46.1467 444.492 45.7533 444.052 45.46C443.612 45.1667 443.119 45.02 442.572 45.02C442.132 45.02 441.786 45.12 441.532 45.32C441.279 45.52 441.152 45.78 441.152 46.1C441.152 46.3 441.206 46.4733 441.312 46.62C441.419 46.7667 441.566 46.8867 441.752 46.98C441.952 47.0733 442.179 47.16 442.432 47.24L444.172 47.76C445.066 48.0267 445.752 48.4267 446.232 48.96C446.726 49.4933 446.972 50.1467 446.972 50.92C446.972 51.5733 446.799 52.1533 446.452 52.66C446.106 53.1533 445.626 53.54 445.012 53.82C444.399 54.1 443.679 54.24 442.852 54.24ZM455.84 54.24C455.08 54.24 454.42 54.1133 453.86 53.86C453.3 53.6067 452.867 53.2467 452.56 52.78C452.254 52.3 452.1 51.7467 452.1 51.12C452.1 50.52 452.234 49.9867 452.5 49.52C452.767 49.04 453.18 48.64 453.74 48.32C454.3 48 455.007 47.7733 455.86 47.64L459.42 47.06V49.06L456.36 49.58C455.84 49.6733 455.454 49.84 455.2 50.08C454.947 50.32 454.82 50.6333 454.82 51.02C454.82 51.3933 454.96 51.6933 455.24 51.92C455.534 52.1333 455.894 52.24 456.32 52.24C456.867 52.24 457.347 52.1267 457.76 51.9C458.187 51.66 458.514 51.3333 458.74 50.92C458.98 50.5067 459.1 50.0533 459.1 49.56V46.76C459.1 46.2933 458.914 45.9067 458.54 45.6C458.18 45.28 457.7 45.12 457.1 45.12C456.54 45.12 456.04 45.2733 455.6 45.58C455.174 45.8733 454.86 46.2667 454.66 46.76L452.52 45.72C452.734 45.1467 453.067 44.6533 453.52 44.24C453.987 43.8133 454.534 43.48 455.16 43.24C455.787 43 456.467 42.88 457.2 42.88C458.094 42.88 458.88 43.0467 459.56 43.38C460.24 43.7 460.767 44.1533 461.14 44.74C461.527 45.3133 461.72 45.9867 461.72 46.76V54H459.24V52.14L459.8 52.1C459.52 52.5667 459.187 52.96 458.8 53.28C458.414 53.5867 457.974 53.8267 457.48 54C456.987 54.16 456.44 54.24 455.84 54.24ZM194.46 79.24C193.38 79.24 192.407 78.9933 191.54 78.5C190.687 77.9933 190.013 77.3133 189.52 76.46C189.027 75.5933 188.78 74.62 188.78 73.54C188.78 72.46 189.027 71.4933 189.52 70.64C190.013 69.7867 190.687 69.1133 191.54 68.62C192.407 68.1267 193.38 67.88 194.46 67.88C195.233 67.88 195.953 68.02 196.62 68.3C197.287 68.5667 197.86 68.94 198.34 69.42C198.833 69.8867 199.187 70.4467 199.4 71.1L197.1 72.1C196.9 71.5533 196.56 71.1133 196.08 70.78C195.613 70.4467 195.073 70.28 194.46 70.28C193.887 70.28 193.373 70.42 192.92 70.7C192.48 70.98 192.133 71.3667 191.88 71.86C191.627 72.3533 191.5 72.92 191.5 73.56C191.5 74.2 191.627 74.7667 191.88 75.26C192.133 75.7533 192.48 76.14 192.92 76.42C193.373 76.7 193.887 76.84 194.46 76.84C195.087 76.84 195.633 76.6733 196.1 76.34C196.567 76.0067 196.9 75.56 197.1 75L199.4 76.04C199.187 76.6533 198.84 77.2067 198.36 77.7C197.88 78.18 197.307 78.56 196.64 78.84C195.973 79.1067 195.247 79.24 194.46 79.24ZM201.388 79V63.86H204.008V70.26L203.648 69.88C203.901 69.2267 204.315 68.7333 204.888 68.4C205.475 68.0533 206.155 67.88 206.928 67.88C207.728 67.88 208.435 68.0533 209.048 68.4C209.675 68.7467 210.161 69.2333 210.508 69.86C210.855 70.4733 211.028 71.1867 211.028 72V79H208.408V72.62C208.408 72.14 208.315 71.7267 208.128 71.38C207.941 71.0333 207.681 70.7667 207.348 70.58C207.028 70.38 206.648 70.28 206.208 70.28C205.781 70.28 205.401 70.38 205.068 70.58C204.735 70.7667 204.475 71.0333 204.288 71.38C204.101 71.7267 204.008 72.14 204.008 72.62V79H201.388ZM216.543 79.24C215.783 79.24 215.123 79.1133 214.563 78.86C214.003 78.6067 213.57 78.2467 213.263 77.78C212.957 77.3 212.803 76.7467 212.803 76.12C212.803 75.52 212.937 74.9867 213.203 74.52C213.47 74.04 213.883 73.64 214.443 73.32C215.003 73 215.71 72.7733 216.563 72.64L220.123 72.06V74.06L217.063 74.58C216.543 74.6733 216.157 74.84 215.903 75.08C215.65 75.32 215.523 75.6333 215.523 76.02C215.523 76.3933 215.663 76.6933 215.943 76.92C216.237 77.1333 216.597 77.24 217.023 77.24C217.57 77.24 218.05 77.1267 218.463 76.9C218.89 76.66 219.217 76.3333 219.443 75.92C219.683 75.5067 219.803 75.0533 219.803 74.56V71.76C219.803 71.2933 219.617 70.9067 219.243 70.6C218.883 70.28 218.403 70.12 217.803 70.12C217.243 70.12 216.743 70.2733 216.303 70.58C215.877 70.8733 215.563 71.2667 215.363 71.76L213.223 70.72C213.437 70.1467 213.77 69.6533 214.223 69.24C214.69 68.8133 215.237 68.48 215.863 68.24C216.49 68 217.17 67.88 217.903 67.88C218.797 67.88 219.583 68.0467 220.263 68.38C220.943 68.7 221.47 69.1533 221.843 69.74C222.23 70.3133 222.423 70.9867 222.423 71.76V79H219.943V77.14L220.503 77.1C220.223 77.5667 219.89 77.96 219.503 78.28C219.117 78.5867 218.677 78.8267 218.183 79C217.69 79.16 217.143 79.24 216.543 79.24ZM224.845 79V63.86H227.465V79H224.845ZM229.884 79V63.86H232.504V79H229.884ZM240.083 79.24C238.963 79.24 237.983 78.9867 237.143 78.48C236.303 77.9733 235.65 77.2867 235.183 76.42C234.716 75.5533 234.483 74.5933 234.483 73.54C234.483 72.4467 234.716 71.48 235.183 70.64C235.663 69.7867 236.31 69.1133 237.123 68.62C237.95 68.1267 238.87 67.88 239.883 67.88C240.736 67.88 241.483 68.02 242.123 68.3C242.776 68.58 243.33 68.9667 243.783 69.46C244.236 69.9533 244.583 70.52 244.823 71.16C245.063 71.7867 245.183 72.4667 245.183 73.2C245.183 73.3867 245.17 73.58 245.143 73.78C245.13 73.98 245.096 74.1533 245.043 74.3H236.643V72.3H243.563L242.323 73.24C242.443 72.6267 242.41 72.08 242.223 71.6C242.05 71.12 241.756 70.74 241.343 70.46C240.943 70.18 240.456 70.04 239.883 70.04C239.336 70.04 238.85 70.18 238.423 70.46C237.996 70.7267 237.67 71.1267 237.443 71.66C237.23 72.18 237.15 72.8133 237.203 73.56C237.15 74.2267 237.236 74.82 237.463 75.34C237.703 75.8467 238.05 76.24 238.503 76.52C238.97 76.8 239.503 76.94 240.103 76.94C240.703 76.94 241.21 76.8133 241.623 76.56C242.05 76.3067 242.383 75.9667 242.623 75.54L244.743 76.58C244.53 77.1 244.196 77.56 243.743 77.96C243.29 78.36 242.75 78.6733 242.123 78.9C241.51 79.1267 240.83 79.24 240.083 79.24ZM247.169 79V68.12H249.629V70.26L249.429 69.88C249.683 69.2267 250.096 68.7333 250.669 68.4C251.256 68.0533 251.936 67.88 252.709 67.88C253.509 67.88 254.216 68.0533 254.829 68.4C255.456 68.7467 255.943 69.2333 256.289 69.86C256.636 70.4733 256.809 71.1867 256.809 72V79H254.189V72.62C254.189 72.14 254.096 71.7267 253.909 71.38C253.723 71.0333 253.463 70.7667 253.129 70.58C252.809 70.38 252.429 70.28 251.989 70.28C251.563 70.28 251.183 70.38 250.849 70.58C250.516 70.7667 250.256 71.0333 250.069 71.38C249.883 71.7267 249.789 72.14 249.789 72.62V79H247.169ZM264.305 83.4C263.491 83.4 262.738 83.2667 262.045 83C261.351 82.7333 260.751 82.36 260.245 81.88C259.751 81.4133 259.391 80.86 259.165 80.22L261.605 79.3C261.765 79.8067 262.078 80.2133 262.545 80.52C263.025 80.84 263.611 81 264.305 81C264.838 81 265.305 80.9 265.705 80.7C266.118 80.5 266.438 80.2067 266.665 79.82C266.891 79.4467 267.005 78.9933 267.005 78.46V75.98L267.505 76.58C267.131 77.2333 266.631 77.7267 266.005 78.06C265.378 78.3933 264.665 78.56 263.865 78.56C262.851 78.56 261.945 78.3267 261.145 77.86C260.345 77.3933 259.718 76.7533 259.265 75.94C258.811 75.1267 258.585 74.2133 258.585 73.2C258.585 72.1733 258.811 71.26 259.265 70.46C259.718 69.66 260.338 69.0333 261.125 68.58C261.911 68.1133 262.805 67.88 263.805 67.88C264.618 67.88 265.331 68.0533 265.945 68.4C266.571 68.7333 267.091 69.22 267.505 69.86L267.145 70.52V68.12H269.625V78.46C269.625 79.4067 269.391 80.2533 268.925 81C268.471 81.7467 267.845 82.3333 267.045 82.76C266.258 83.1867 265.345 83.4 264.305 83.4ZM264.185 76.14C264.745 76.14 265.231 76.02 265.645 75.78C266.071 75.5267 266.405 75.18 266.645 74.74C266.885 74.3 267.005 73.7933 267.005 73.22C267.005 72.66 266.878 72.16 266.625 71.72C266.385 71.2667 266.051 70.9133 265.625 70.66C265.211 70.4067 264.731 70.28 264.185 70.28C263.638 70.28 263.145 70.4067 262.705 70.66C262.265 70.9133 261.918 71.2667 261.665 71.72C261.425 72.16 261.305 72.66 261.305 73.22C261.305 73.78 261.425 74.28 261.665 74.72C261.918 75.16 262.258 75.5067 262.685 75.76C263.125 76.0133 263.625 76.14 264.185 76.14ZM277.232 79.24C276.112 79.24 275.132 78.9867 274.292 78.48C273.452 77.9733 272.798 77.2867 272.332 76.42C271.865 75.5533 271.632 74.5933 271.632 73.54C271.632 72.4467 271.865 71.48 272.332 70.64C272.812 69.7867 273.458 69.1133 274.272 68.62C275.098 68.1267 276.018 67.88 277.032 67.88C277.885 67.88 278.632 68.02 279.272 68.3C279.925 68.58 280.478 68.9667 280.932 69.46C281.385 69.9533 281.732 70.52 281.972 71.16C282.212 71.7867 282.332 72.4667 282.332 73.2C282.332 73.3867 282.318 73.58 282.292 73.78C282.278 73.98 282.245 74.1533 282.192 74.3H273.792V72.3H280.712L279.472 73.24C279.592 72.6267 279.558 72.08 279.372 71.6C279.198 71.12 278.905 70.74 278.492 70.46C278.092 70.18 277.605 70.04 277.032 70.04C276.485 70.04 275.998 70.18 275.572 70.46C275.145 70.7267 274.818 71.1267 274.592 71.66C274.378 72.18 274.298 72.8133 274.352 73.56C274.298 74.2267 274.385 74.82 274.612 75.34C274.852 75.8467 275.198 76.24 275.652 76.52C276.118 76.8 276.652 76.94 277.252 76.94C277.852 76.94 278.358 76.8133 278.772 76.56C279.198 76.3067 279.532 75.9667 279.772 75.54L281.892 76.58C281.678 77.1 281.345 77.56 280.892 77.96C280.438 78.36 279.898 78.6733 279.272 78.9C278.658 79.1267 277.978 79.24 277.232 79.24ZM293.812 79.24C293.026 79.24 292.299 79.0867 291.632 78.78C290.979 78.46 290.459 78.0067 290.072 77.42L290.332 76.9V79H287.872V63.86H290.492V70.28L290.092 69.74C290.466 69.1533 290.972 68.7 291.612 68.38C292.252 68.0467 292.992 67.88 293.832 67.88C294.859 67.88 295.786 68.1333 296.612 68.64C297.439 69.1467 298.092 69.8267 298.572 70.68C299.066 71.5333 299.312 72.4933 299.312 73.56C299.312 74.6133 299.072 75.5733 298.592 76.44C298.112 77.3067 297.459 77.9933 296.632 78.5C295.806 78.9933 294.866 79.24 293.812 79.24ZM293.512 76.84C294.112 76.84 294.646 76.7 295.112 76.42C295.579 76.14 295.939 75.7533 296.192 75.26C296.459 74.7667 296.592 74.2 296.592 73.56C296.592 72.92 296.459 72.36 296.192 71.88C295.939 71.3867 295.579 71 295.112 70.72C294.646 70.4267 294.112 70.28 293.512 70.28C292.939 70.28 292.419 70.42 291.952 70.7C291.499 70.98 291.139 71.3733 290.872 71.88C290.619 72.3733 290.492 72.9333 290.492 73.56C290.492 74.2 290.619 74.7667 290.872 75.26C291.139 75.7533 291.499 76.14 291.952 76.42C292.419 76.7 292.939 76.84 293.512 76.84ZM306.47 79.24C305.35 79.24 304.37 78.9867 303.53 78.48C302.69 77.9733 302.037 77.2867 301.57 76.42C301.103 75.5533 300.87 74.5933 300.87 73.54C300.87 72.4467 301.103 71.48 301.57 70.64C302.05 69.7867 302.697 69.1133 303.51 68.62C304.337 68.1267 305.257 67.88 306.27 67.88C307.123 67.88 307.87 68.02 308.51 68.3C309.163 68.58 309.717 68.9667 310.17 69.46C310.623 69.9533 310.97 70.52 311.21 71.16C311.45 71.7867 311.57 72.4667 311.57 73.2C311.57 73.3867 311.557 73.58 311.53 73.78C311.517 73.98 311.483 74.1533 311.43 74.3H303.03V72.3H309.95L308.71 73.24C308.83 72.6267 308.797 72.08 308.61 71.6C308.437 71.12 308.143 70.74 307.73 70.46C307.33 70.18 306.843 70.04 306.27 70.04C305.723 70.04 305.237 70.18 304.81 70.46C304.383 70.7267 304.057 71.1267 303.83 71.66C303.617 72.18 303.537 72.8133 303.59 73.56C303.537 74.2267 303.623 74.82 303.85 75.34C304.09 75.8467 304.437 76.24 304.89 76.52C305.357 76.8 305.89 76.94 306.49 76.94C307.09 76.94 307.597 76.8133 308.01 76.56C308.437 76.3067 308.77 75.9667 309.01 75.54L311.13 76.58C310.917 77.1 310.583 77.56 310.13 77.96C309.677 78.36 309.137 78.6733 308.51 78.9C307.897 79.1267 307.217 79.24 306.47 79.24ZM318.836 83.4C318.023 83.4 317.269 83.2667 316.576 83C315.883 82.7333 315.283 82.36 314.776 81.88C314.283 81.4133 313.923 80.86 313.696 80.22L316.136 79.3C316.296 79.8067 316.609 80.2133 317.076 80.52C317.556 80.84 318.143 81 318.836 81C319.369 81 319.836 80.9 320.236 80.7C320.649 80.5 320.969 80.2067 321.196 79.82C321.423 79.4467 321.536 78.9933 321.536 78.46V75.98L322.036 76.58C321.663 77.2333 321.163 77.7267 320.536 78.06C319.909 78.3933 319.196 78.56 318.396 78.56C317.383 78.56 316.476 78.3267 315.676 77.86C314.876 77.3933 314.249 76.7533 313.796 75.94C313.343 75.1267 313.116 74.2133 313.116 73.2C313.116 72.1733 313.343 71.26 313.796 70.46C314.249 69.66 314.869 69.0333 315.656 68.58C316.443 68.1133 317.336 67.88 318.336 67.88C319.149 67.88 319.863 68.0533 320.476 68.4C321.103 68.7333 321.623 69.22 322.036 69.86L321.676 70.52V68.12H324.156V78.46C324.156 79.4067 323.923 80.2533 323.456 81C323.003 81.7467 322.376 82.3333 321.576 82.76C320.789 83.1867 319.876 83.4 318.836 83.4ZM318.716 76.14C319.276 76.14 319.763 76.02 320.176 75.78C320.603 75.5267 320.936 75.18 321.176 74.74C321.416 74.3 321.536 73.7933 321.536 73.22C321.536 72.66 321.409 72.16 321.156 71.72C320.916 71.2667 320.583 70.9133 320.156 70.66C319.743 70.4067 319.263 70.28 318.716 70.28C318.169 70.28 317.676 70.4067 317.236 70.66C316.796 70.9133 316.449 71.2667 316.196 71.72C315.956 72.16 315.836 72.66 315.836 73.22C315.836 73.78 315.956 74.28 316.196 74.72C316.449 75.16 316.789 75.5067 317.216 75.76C317.656 76.0133 318.156 76.14 318.716 76.14ZM331.883 83.4C331.069 83.4 330.316 83.2667 329.623 83C328.929 82.7333 328.329 82.36 327.823 81.88C327.329 81.4133 326.969 80.86 326.743 80.22L329.183 79.3C329.343 79.8067 329.656 80.2133 330.123 80.52C330.603 80.84 331.189 81 331.883 81C332.416 81 332.883 80.9 333.283 80.7C333.696 80.5 334.016 80.2067 334.243 79.82C334.469 79.4467 334.583 78.9933 334.583 78.46V75.98L335.083 76.58C334.709 77.2333 334.209 77.7267 333.583 78.06C332.956 78.3933 332.243 78.56 331.443 78.56C330.429 78.56 329.523 78.3267 328.723 77.86C327.923 77.3933 327.296 76.7533 326.843 75.94C326.389 75.1267 326.163 74.2133 326.163 73.2C326.163 72.1733 326.389 71.26 326.843 70.46C327.296 69.66 327.916 69.0333 328.703 68.58C329.489 68.1133 330.383 67.88 331.383 67.88C332.196 67.88 332.909 68.0533 333.523 68.4C334.149 68.7333 334.669 69.22 335.083 69.86L334.723 70.52V68.12H337.203V78.46C337.203 79.4067 336.969 80.2533 336.503 81C336.049 81.7467 335.423 82.3333 334.623 82.76C333.836 83.1867 332.923 83.4 331.883 83.4ZM331.763 76.14C332.323 76.14 332.809 76.02 333.223 75.78C333.649 75.5267 333.983 75.18 334.223 74.74C334.463 74.3 334.583 73.7933 334.583 73.22C334.583 72.66 334.456 72.16 334.203 71.72C333.963 71.2667 333.629 70.9133 333.203 70.66C332.789 70.4067 332.309 70.28 331.763 70.28C331.216 70.28 330.723 70.4067 330.283 70.66C329.843 70.9133 329.496 71.2667 329.243 71.72C329.003 72.16 328.883 72.66 328.883 73.22C328.883 73.78 329.003 74.28 329.243 74.72C329.496 75.16 329.836 75.5067 330.263 75.76C330.703 76.0133 331.203 76.14 331.763 76.14ZM339.65 79V68.12H342.27V79H339.65ZM339.65 66.9V64.1H342.27V66.9H339.65ZM344.689 79V68.12H347.149V70.26L346.949 69.88C347.202 69.2267 347.615 68.7333 348.189 68.4C348.775 68.0533 349.455 67.88 350.229 67.88C351.029 67.88 351.735 68.0533 352.349 68.4C352.975 68.7467 353.462 69.2333 353.809 69.86C354.155 70.4733 354.329 71.1867 354.329 72V79H351.709V72.62C351.709 72.14 351.615 71.7267 351.429 71.38C351.242 71.0333 350.982 70.7667 350.649 70.58C350.329 70.38 349.949 70.28 349.509 70.28C349.082 70.28 348.702 70.38 348.369 70.58C348.035 70.7667 347.775 71.0333 347.589 71.38C347.402 71.7267 347.309 72.14 347.309 72.62V79H344.689ZM361.824 83.4C361.011 83.4 360.258 83.2667 359.564 83C358.871 82.7333 358.271 82.36 357.764 81.88C357.271 81.4133 356.911 80.86 356.684 80.22L359.124 79.3C359.284 79.8067 359.598 80.2133 360.064 80.52C360.544 80.84 361.131 81 361.824 81C362.358 81 362.824 80.9 363.224 80.7C363.638 80.5 363.958 80.2067 364.184 79.82C364.411 79.4467 364.524 78.9933 364.524 78.46V75.98L365.024 76.58C364.651 77.2333 364.151 77.7267 363.524 78.06C362.898 78.3933 362.184 78.56 361.384 78.56C360.371 78.56 359.464 78.3267 358.664 77.86C357.864 77.3933 357.238 76.7533 356.784 75.94C356.331 75.1267 356.104 74.2133 356.104 73.2C356.104 72.1733 356.331 71.26 356.784 70.46C357.238 69.66 357.858 69.0333 358.644 68.58C359.431 68.1133 360.324 67.88 361.324 67.88C362.138 67.88 362.851 68.0533 363.464 68.4C364.091 68.7333 364.611 69.22 365.024 69.86L364.664 70.52V68.12H367.144V78.46C367.144 79.4067 366.911 80.2533 366.444 81C365.991 81.7467 365.364 82.3333 364.564 82.76C363.778 83.1867 362.864 83.4 361.824 83.4ZM361.704 76.14C362.264 76.14 362.751 76.02 363.164 75.78C363.591 75.5267 363.924 75.18 364.164 74.74C364.404 74.3 364.524 73.7933 364.524 73.22C364.524 72.66 364.398 72.16 364.144 71.72C363.904 71.2667 363.571 70.9133 363.144 70.66C362.731 70.4067 362.251 70.28 361.704 70.28C361.158 70.28 360.664 70.4067 360.224 70.66C359.784 70.9133 359.438 71.2667 359.184 71.72C358.944 72.16 358.824 72.66 358.824 73.22C358.824 73.78 358.944 74.28 359.184 74.72C359.438 75.16 359.778 75.5067 360.204 75.76C360.644 76.0133 361.144 76.14 361.704 76.14ZM374.406 79V70.46H372.486V68.12H374.406V67.76C374.406 66.9333 374.572 66.2333 374.906 65.66C375.252 65.0733 375.732 64.6267 376.346 64.32C376.959 64.0133 377.686 63.86 378.526 63.86C378.686 63.86 378.859 63.8733 379.046 63.9C379.246 63.9133 379.412 63.9333 379.546 63.96V66.22C379.412 66.1933 379.286 66.18 379.166 66.18C379.059 66.1667 378.959 66.16 378.866 66.16C378.279 66.16 377.826 66.2933 377.506 66.56C377.186 66.8133 377.026 67.2133 377.026 67.76V68.12H379.446V70.46H377.026V79H374.406ZM386.278 79.24C385.212 79.24 384.238 78.9933 383.358 78.5C382.492 78.0067 381.798 77.3333 381.278 76.48C380.772 75.6267 380.518 74.6533 380.518 73.56C380.518 72.4667 380.772 71.4933 381.278 70.64C381.798 69.7867 382.492 69.1133 383.358 68.62C384.225 68.1267 385.198 67.88 386.278 67.88C387.345 67.88 388.312 68.1267 389.178 68.62C390.045 69.1133 390.732 69.7867 391.238 70.64C391.758 71.48 392.018 72.4533 392.018 73.56C392.018 74.6533 391.758 75.6267 391.238 76.48C390.718 77.3333 390.025 78.0067 389.158 78.5C388.292 78.9933 387.332 79.24 386.278 79.24ZM386.278 76.84C386.865 76.84 387.378 76.7 387.818 76.42C388.272 76.14 388.625 75.7533 388.878 75.26C389.145 74.7533 389.278 74.1867 389.278 73.56C389.278 72.92 389.145 72.36 388.878 71.88C388.625 71.3867 388.272 71 387.818 70.72C387.378 70.4267 386.865 70.28 386.278 70.28C385.678 70.28 385.152 70.4267 384.698 70.72C384.245 71 383.885 71.3867 383.618 71.88C383.365 72.36 383.238 72.92 383.238 73.56C383.238 74.1867 383.365 74.7533 383.618 75.26C383.885 75.7533 384.245 76.14 384.698 76.42C385.152 76.7 385.678 76.84 386.278 76.84ZM394.005 79V68.12H396.465V70.54L396.265 70.18C396.518 69.3667 396.912 68.8 397.445 68.48C397.992 68.16 398.645 68 399.405 68H400.045V70.32H399.105C398.358 70.32 397.758 70.5533 397.305 71.02C396.852 71.4733 396.625 72.1133 396.625 72.94V79H394.005ZM408.34 79.24C407.58 79.24 406.92 79.1133 406.36 78.86C405.8 78.6067 405.367 78.2467 405.06 77.78C404.754 77.3 404.6 76.7467 404.6 76.12C404.6 75.52 404.734 74.9867 405 74.52C405.267 74.04 405.68 73.64 406.24 73.32C406.8 73 407.507 72.7733 408.36 72.64L411.92 72.06V74.06L408.86 74.58C408.34 74.6733 407.954 74.84 407.7 75.08C407.447 75.32 407.32 75.6333 407.32 76.02C407.32 76.3933 407.46 76.6933 407.74 76.92C408.034 77.1333 408.394 77.24 408.82 77.24C409.367 77.24 409.847 77.1267 410.26 76.9C410.687 76.66 411.014 76.3333 411.24 75.92C411.48 75.5067 411.6 75.0533 411.6 74.56V71.76C411.6 71.2933 411.414 70.9067 411.04 70.6C410.68 70.28 410.2 70.12 409.6 70.12C409.04 70.12 408.54 70.2733 408.1 70.58C407.674 70.8733 407.36 71.2667 407.16 71.76L405.02 70.72C405.234 70.1467 405.567 69.6533 406.02 69.24C406.487 68.8133 407.034 68.48 407.66 68.24C408.287 68 408.967 67.88 409.7 67.88C410.594 67.88 411.38 68.0467 412.06 68.38C412.74 68.7 413.267 69.1533 413.64 69.74C414.027 70.3133 414.22 70.9867 414.22 71.76V79H411.74V77.14L412.3 77.1C412.02 77.5667 411.687 77.96 411.3 78.28C410.914 78.5867 410.474 78.8267 409.98 79C409.487 79.16 408.94 79.24 408.34 79.24ZM424.337 79.24C423.177 79.24 422.163 78.9667 421.297 78.42C420.443 77.86 419.857 77.1067 419.537 76.16L421.497 75.22C421.777 75.8333 422.163 76.3133 422.657 76.66C423.163 77.0067 423.723 77.18 424.337 77.18C424.817 77.18 425.197 77.0733 425.477 76.86C425.757 76.6467 425.897 76.3667 425.897 76.02C425.897 75.8067 425.837 75.6333 425.717 75.5C425.61 75.3533 425.457 75.2333 425.257 75.14C425.07 75.0333 424.863 74.9467 424.637 74.88L422.857 74.38C421.937 74.1133 421.237 73.7067 420.757 73.16C420.29 72.6133 420.057 71.9667 420.057 71.22C420.057 70.5533 420.223 69.9733 420.557 69.48C420.903 68.9733 421.377 68.58 421.977 68.3C422.59 68.02 423.29 67.88 424.077 67.88C425.103 67.88 426.01 68.1267 426.797 68.62C427.583 69.1133 428.143 69.8067 428.477 70.7L426.477 71.64C426.29 71.1467 425.977 70.7533 425.537 70.46C425.097 70.1667 424.603 70.02 424.057 70.02C423.617 70.02 423.27 70.12 423.017 70.32C422.763 70.52 422.637 70.78 422.637 71.1C422.637 71.3 422.69 71.4733 422.797 71.62C422.903 71.7667 423.05 71.8867 423.237 71.98C423.437 72.0733 423.663 72.16 423.917 72.24L425.657 72.76C426.55 73.0267 427.237 73.4267 427.717 73.96C428.21 74.4933 428.457 75.1467 428.457 75.92C428.457 76.5733 428.283 77.1533 427.937 77.66C427.59 78.1533 427.11 78.54 426.497 78.82C425.883 79.1 425.163 79.24 424.337 79.24ZM430.47 79V68.12H432.93V70.64L432.65 70.22C432.85 69.4333 433.25 68.8467 433.85 68.46C434.45 68.0733 435.157 67.88 435.97 67.88C436.863 67.88 437.65 68.1133 438.33 68.58C439.01 69.0467 439.45 69.66 439.65 70.42L438.91 70.48C439.243 69.6133 439.743 68.9667 440.41 68.54C441.077 68.1 441.843 67.88 442.71 67.88C443.483 67.88 444.17 68.0533 444.77 68.4C445.383 68.7467 445.863 69.2333 446.21 69.86C446.557 70.4733 446.73 71.1867 446.73 72V79H444.11V72.62C444.11 72.14 444.023 71.7267 443.85 71.38C443.677 71.0333 443.437 70.7667 443.13 70.58C442.823 70.38 442.45 70.28 442.01 70.28C441.597 70.28 441.23 70.38 440.91 70.58C440.59 70.7667 440.343 71.0333 440.17 71.38C439.997 71.7267 439.91 72.14 439.91 72.62V79H437.29V72.62C437.29 72.14 437.203 71.7267 437.03 71.38C436.857 71.0333 436.61 70.7667 436.29 70.58C435.983 70.38 435.617 70.28 435.19 70.28C434.777 70.28 434.41 70.38 434.09 70.58C433.77 70.7667 433.523 71.0333 433.35 71.38C433.177 71.7267 433.09 72.14 433.09 72.62V79H430.47ZM452.247 79.24C451.487 79.24 450.827 79.1133 450.267 78.86C449.707 78.6067 449.273 78.2467 448.967 77.78C448.66 77.3 448.507 76.7467 448.507 76.12C448.507 75.52 448.64 74.9867 448.907 74.52C449.173 74.04 449.587 73.64 450.147 73.32C450.707 73 451.413 72.7733 452.267 72.64L455.827 72.06V74.06L452.767 74.58C452.247 74.6733 451.86 74.84 451.607 75.08C451.353 75.32 451.227 75.6333 451.227 76.02C451.227 76.3933 451.367 76.6933 451.647 76.92C451.94 77.1333 452.3 77.24 452.727 77.24C453.273 77.24 453.753 77.1267 454.167 76.9C454.593 76.66 454.92 76.3333 455.147 75.92C455.387 75.5067 455.507 75.0533 455.507 74.56V71.76C455.507 71.2933 455.32 70.9067 454.947 70.6C454.587 70.28 454.107 70.12 453.507 70.12C452.947 70.12 452.447 70.2733 452.007 70.58C451.58 70.8733 451.267 71.2667 451.067 71.76L448.927 70.72C449.14 70.1467 449.473 69.6533 449.927 69.24C450.393 68.8133 450.94 68.48 451.567 68.24C452.193 68 452.873 67.88 453.607 67.88C454.5 67.88 455.287 68.0467 455.967 68.38C456.647 68.7 457.173 69.1533 457.547 69.74C457.933 70.3133 458.127 70.9867 458.127 71.76V79H455.647V77.14L456.207 77.1C455.927 77.5667 455.593 77.96 455.207 78.28C454.82 78.5867 454.38 78.8267 453.887 79C453.393 79.16 452.847 79.24 452.247 79.24ZM460.548 79V68.12H463.008V70.54L462.808 70.18C463.061 69.3667 463.455 68.8 463.988 68.48C464.535 68.16 465.188 68 465.948 68H466.588V70.32H465.648C464.901 70.32 464.301 70.5533 463.848 71.02C463.395 71.4733 463.168 72.1133 463.168 72.94V79H460.548ZM473.282 79.12C472.055 79.12 471.102 78.7867 470.422 78.12C469.755 77.44 469.422 76.4867 469.422 75.26V70.46H467.542V68.12H467.742C468.275 68.12 468.688 67.98 468.982 67.7C469.275 67.42 469.422 67.0133 469.422 66.48V65.64H472.042V68.12H474.542V70.46H472.042V75.12C472.042 75.48 472.102 75.7867 472.222 76.04C472.355 76.2933 472.555 76.4867 472.822 76.62C473.102 76.7533 473.455 76.82 473.882 76.82C473.975 76.82 474.082 76.8133 474.202 76.8C474.335 76.7867 474.462 76.7733 474.582 76.76V79C474.395 79.0267 474.182 79.0533 473.942 79.08C473.702 79.1067 473.482 79.12 473.282 79.12ZM481.646 79.24C480.526 79.24 479.546 78.9867 478.706 78.48C477.866 77.9733 477.212 77.2867 476.746 76.42C476.279 75.5533 476.046 74.5933 476.046 73.54C476.046 72.4467 476.279 71.48 476.746 70.64C477.226 69.7867 477.872 69.1133 478.686 68.62C479.512 68.1267 480.432 67.88 481.446 67.88C482.299 67.88 483.046 68.02 483.686 68.3C484.339 68.58 484.892 68.9667 485.346 69.46C485.799 69.9533 486.146 70.52 486.386 71.16C486.626 71.7867 486.746 72.4667 486.746 73.2C486.746 73.3867 486.732 73.58 486.706 73.78C486.692 73.98 486.659 74.1533 486.606 74.3H478.206V72.3H485.126L483.886 73.24C484.006 72.6267 483.972 72.08 483.786 71.6C483.612 71.12 483.319 70.74 482.906 70.46C482.506 70.18 482.019 70.04 481.446 70.04C480.899 70.04 480.412 70.18 479.986 70.46C479.559 70.7267 479.232 71.1267 479.006 71.66C478.792 72.18 478.712 72.8133 478.766 73.56C478.712 74.2267 478.799 74.82 479.026 75.34C479.266 75.8467 479.612 76.24 480.066 76.52C480.532 76.8 481.066 76.94 481.666 76.94C482.266 76.94 482.772 76.8133 483.186 76.56C483.612 76.3067 483.946 75.9667 484.186 75.54L486.306 76.58C486.092 77.1 485.759 77.56 485.306 77.96C484.852 78.36 484.312 78.6733 483.686 78.9C483.072 79.1267 482.392 79.24 481.646 79.24ZM488.732 79V68.12H491.192V70.54L490.992 70.18C491.245 69.3667 491.638 68.8 492.172 68.48C492.718 68.16 493.372 68 494.132 68H494.772V70.32H493.832C493.085 70.32 492.485 70.5533 492.032 71.02C491.578 71.4733 491.352 72.1133 491.352 72.94V79H488.732ZM192.52 104.24C191.76 104.24 191.1 104.113 190.54 103.86C189.98 103.607 189.547 103.247 189.24 102.78C188.933 102.3 188.78 101.747 188.78 101.12C188.78 100.52 188.913 99.9867 189.18 99.52C189.447 99.04 189.86 98.64 190.42 98.32C190.98 98 191.687 97.7733 192.54 97.64L196.1 97.06V99.06L193.04 99.58C192.52 99.6733 192.133 99.84 191.88 100.08C191.627 100.32 191.5 100.633 191.5 101.02C191.5 101.393 191.64 101.693 191.92 101.92C192.213 102.133 192.573 102.24 193 102.24C193.547 102.24 194.027 102.127 194.44 101.9C194.867 101.66 195.193 101.333 195.42 100.92C195.66 100.507 195.78 100.053 195.78 99.56V96.76C195.78 96.2933 195.593 95.9067 195.22 95.6C194.86 95.28 194.38 95.12 193.78 95.12C193.22 95.12 192.72 95.2733 192.28 95.58C191.853 95.8733 191.54 96.2667 191.34 96.76L189.2 95.72C189.413 95.1467 189.747 94.6533 190.2 94.24C190.667 93.8133 191.213 93.48 191.84 93.24C192.467 93 193.147 92.88 193.88 92.88C194.773 92.88 195.56 93.0467 196.24 93.38C196.92 93.7 197.447 94.1533 197.82 94.74C198.207 95.3133 198.4 95.9867 198.4 96.76V104H195.92V102.14L196.48 102.1C196.2 102.567 195.867 102.96 195.48 103.28C195.093 103.587 194.653 103.827 194.16 104C193.667 104.16 193.12 104.24 192.52 104.24ZM200.822 108V93.12H203.282V95.28L203.042 94.74C203.415 94.1533 203.922 93.7 204.562 93.38C205.202 93.0467 205.942 92.88 206.782 92.88C207.808 92.88 208.735 93.1333 209.562 93.64C210.388 94.1467 211.042 94.8267 211.522 95.68C212.015 96.5333 212.262 97.4933 212.262 98.56C212.262 99.6133 212.022 100.573 211.542 101.44C211.062 102.307 210.408 102.993 209.582 103.5C208.755 103.993 207.815 104.24 206.762 104.24C205.975 104.24 205.248 104.087 204.582 103.78C203.928 103.46 203.408 103.007 203.022 102.42L203.442 101.9V108H200.822ZM206.462 101.84C207.062 101.84 207.595 101.7 208.062 101.42C208.528 101.14 208.888 100.753 209.142 100.26C209.408 99.7667 209.542 99.2 209.542 98.56C209.542 97.92 209.408 97.36 209.142 96.88C208.888 96.3867 208.528 96 208.062 95.72C207.595 95.4267 207.062 95.28 206.462 95.28C205.888 95.28 205.368 95.42 204.902 95.7C204.448 95.98 204.088 96.3733 203.822 96.88C203.568 97.3733 203.442 97.9333 203.442 98.56C203.442 99.2 203.568 99.7667 203.822 100.26C204.088 100.753 204.448 101.14 204.902 101.42C205.368 101.7 205.888 101.84 206.462 101.84ZM214.259 108V93.12H216.719V95.28L216.479 94.74C216.852 94.1533 217.359 93.7 217.999 93.38C218.639 93.0467 219.379 92.88 220.219 92.88C221.246 92.88 222.172 93.1333 222.999 93.64C223.826 94.1467 224.479 94.8267 224.959 95.68C225.452 96.5333 225.699 97.4933 225.699 98.56C225.699 99.6133 225.459 100.573 224.979 101.44C224.499 102.307 223.846 102.993 223.019 103.5C222.192 103.993 221.252 104.24 220.199 104.24C219.412 104.24 218.686 104.087 218.019 103.78C217.366 103.46 216.846 103.007 216.459 102.42L216.879 101.9V108H214.259ZM219.899 101.84C220.499 101.84 221.032 101.7 221.499 101.42C221.966 101.14 222.326 100.753 222.579 100.26C222.846 99.7667 222.979 99.2 222.979 98.56C222.979 97.92 222.846 97.36 222.579 96.88C222.326 96.3867 221.966 96 221.499 95.72C221.032 95.4267 220.499 95.28 219.899 95.28C219.326 95.28 218.806 95.42 218.339 95.7C217.886 95.98 217.526 96.3733 217.259 96.88C217.006 97.3733 216.879 97.9333 216.879 98.56C216.879 99.2 217.006 99.7667 217.259 100.26C217.526 100.753 217.886 101.14 218.339 101.42C218.806 101.7 219.326 101.84 219.899 101.84ZM227.697 104V93.12H230.157V95.54L229.957 95.18C230.21 94.3667 230.603 93.8 231.137 93.48C231.683 93.16 232.337 93 233.097 93H233.737V95.32H232.797C232.05 95.32 231.45 95.5533 230.997 96.02C230.543 96.4733 230.317 97.1133 230.317 97.94V104H227.697ZM240.497 104.24C239.43 104.24 238.457 103.993 237.577 103.5C236.71 103.007 236.017 102.333 235.497 101.48C234.99 100.627 234.737 99.6533 234.737 98.56C234.737 97.4667 234.99 96.4933 235.497 95.64C236.017 94.7867 236.71 94.1133 237.577 93.62C238.444 93.1267 239.417 92.88 240.497 92.88C241.564 92.88 242.53 93.1267 243.397 93.62C244.264 94.1133 244.95 94.7867 245.457 95.64C245.977 96.48 246.237 97.4533 246.237 98.56C246.237 99.6533 245.977 100.627 245.457 101.48C244.937 102.333 244.244 103.007 243.377 103.5C242.51 103.993 241.55 104.24 240.497 104.24ZM240.497 101.84C241.084 101.84 241.597 101.7 242.037 101.42C242.49 101.14 242.844 100.753 243.097 100.26C243.364 99.7533 243.497 99.1867 243.497 98.56C243.497 97.92 243.364 97.36 243.097 96.88C242.844 96.3867 242.49 96 242.037 95.72C241.597 95.4267 241.084 95.28 240.497 95.28C239.897 95.28 239.37 95.4267 238.917 95.72C238.464 96 238.104 96.3867 237.837 96.88C237.584 97.36 237.457 97.92 237.457 98.56C237.457 99.1867 237.584 99.7533 237.837 100.26C238.104 100.753 238.464 101.14 238.917 101.42C239.37 101.7 239.897 101.84 240.497 101.84ZM251.524 104.24C250.764 104.24 250.104 104.113 249.544 103.86C248.984 103.607 248.551 103.247 248.244 102.78C247.937 102.3 247.784 101.747 247.784 101.12C247.784 100.52 247.917 99.9867 248.184 99.52C248.451 99.04 248.864 98.64 249.424 98.32C249.984 98 250.691 97.7733 251.544 97.64L255.104 97.06V99.06L252.044 99.58C251.524 99.6733 251.137 99.84 250.884 100.08C250.631 100.32 250.504 100.633 250.504 101.02C250.504 101.393 250.644 101.693 250.924 101.92C251.217 102.133 251.577 102.24 252.004 102.24C252.551 102.24 253.031 102.127 253.444 101.9C253.871 101.66 254.197 101.333 254.424 100.92C254.664 100.507 254.784 100.053 254.784 99.56V96.76C254.784 96.2933 254.597 95.9067 254.224 95.6C253.864 95.28 253.384 95.12 252.784 95.12C252.224 95.12 251.724 95.2733 251.284 95.58C250.857 95.8733 250.544 96.2667 250.344 96.76L248.204 95.72C248.417 95.1467 248.751 94.6533 249.204 94.24C249.671 93.8133 250.217 93.48 250.844 93.24C251.471 93 252.151 92.88 252.884 92.88C253.777 92.88 254.564 93.0467 255.244 93.38C255.924 93.7 256.451 94.1533 256.824 94.74C257.211 95.3133 257.404 95.9867 257.404 96.76V104H254.924V102.14L255.484 102.1C255.204 102.567 254.871 102.96 254.484 103.28C254.097 103.587 253.657 103.827 253.164 104C252.671 104.16 252.124 104.24 251.524 104.24ZM265.065 104.24C263.985 104.24 263.012 103.993 262.145 103.5C261.292 102.993 260.619 102.313 260.125 101.46C259.632 100.593 259.385 99.62 259.385 98.54C259.385 97.46 259.632 96.4933 260.125 95.64C260.619 94.7867 261.292 94.1133 262.145 93.62C263.012 93.1267 263.985 92.88 265.065 92.88C265.839 92.88 266.559 93.02 267.225 93.3C267.892 93.5667 268.465 93.94 268.945 94.42C269.439 94.8867 269.792 95.4467 270.005 96.1L267.705 97.1C267.505 96.5533 267.165 96.1133 266.685 95.78C266.219 95.4467 265.679 95.28 265.065 95.28C264.492 95.28 263.979 95.42 263.525 95.7C263.085 95.98 262.739 96.3667 262.485 96.86C262.232 97.3533 262.105 97.92 262.105 98.56C262.105 99.2 262.232 99.7667 262.485 100.26C262.739 100.753 263.085 101.14 263.525 101.42C263.979 101.7 264.492 101.84 265.065 101.84C265.692 101.84 266.239 101.673 266.705 101.34C267.172 101.007 267.505 100.56 267.705 100L270.005 101.04C269.792 101.653 269.445 102.207 268.965 102.7C268.485 103.18 267.912 103.56 267.245 103.84C266.579 104.107 265.852 104.24 265.065 104.24ZM271.993 104V88.86H274.613V95.26L274.253 94.88C274.507 94.2267 274.92 93.7333 275.493 93.4C276.08 93.0533 276.76 92.88 277.533 92.88C278.333 92.88 279.04 93.0533 279.653 93.4C280.28 93.7467 280.767 94.2333 281.113 94.86C281.46 95.4733 281.633 96.1867 281.633 97V104H279.013V97.62C279.013 97.14 278.92 96.7267 278.733 96.38C278.547 96.0333 278.287 95.7667 277.953 95.58C277.633 95.38 277.253 95.28 276.813 95.28C276.387 95.28 276.007 95.38 275.673 95.58C275.34 95.7667 275.08 96.0333 274.893 96.38C274.707 96.7267 274.613 97.14 274.613 97.62V104H271.993ZM285.189 99.48L285.009 89.1H287.669L287.489 99.48H285.189ZM285.009 104V101.2H287.669V104H285.009Z" fill="white"/>
<defs>
<filter id="filter0_d_321_534" x="0" y="0" width="546" height="161" filterUnits="userSpaceOnUse" color-interpolation-filters="sRGB">
<feFlood flood-opacity="0" result="BackgroundImageFix"/>
<feColorMatrix in="SourceAlpha" type="matrix" values="0 0 0 0 0 0 0 0 0 0 0 0 0 0 0 0 0 0 127 0" result="hardAlpha"/>
<feOffset dy="4"/>
<feGaussianBlur stdDeviation="2"/>
<feComposite in2="hardAlpha" operator="out"/>
<feColorMatrix type="matrix" values="0 0 0 0 0 0 0 0 0 0 0 0 0 0 0 0 0 0 0.25 0"/>
<feBlend mode="normal" in2="BackgroundImageFix" result="effect1_dropShadow_321_534"/>
<feBlend mode="normal" in="SourceGraphic" in2="effect1_dropShadow_321_534" result="shape"/>
</filter>
</defs>
</svg>
