<svg width="599" height="337" viewBox="0 0 599 337" fill="none" xmlns="http://www.w3.org/2000/svg">
<g filter="url(#filter0_d_53_1162)">
<mask id="path-1-inside-1_53_1162" fill="white">
<path d="M11 40C11 27.8497 20.8497 18 33 18H534C546.15 18 556 27.8497 556 40V279C556 291.15 546.15 301 534 301H33C20.8497 301 11 291.15 11 279V40Z"/>
</mask>
<path d="M11 40C11 27.8497 20.8497 18 33 18H534C546.15 18 556 27.8497 556 40V279C556 291.15 546.15 301 534 301H33C20.8497 301 11 291.15 11 279V40Z" fill="white" fill-opacity="0.9" shape-rendering="crispEdges"/>
<path d="M33 19H534V17H33V19ZM555 40V279H557V40H555ZM534 300H33V302H534V300ZM12 279V40H10V279H12ZM33 300C21.402 300 12 290.598 12 279H10C10 291.703 20.2974 302 33 302V300ZM555 279C555 290.598 545.598 300 534 300V302C546.703 302 557 291.703 557 279H555ZM534 19C545.598 19 555 28.402 555 40H557C557 27.2975 546.703 17 534 17V19ZM33 17C20.2975 17 10 27.2975 10 40H12C12 28.402 21.402 19 33 19V17Z" fill="#B5C715" mask="url(#path-1-inside-1_53_1162)"/>
</g>
<rect x="58.9453" y="104.708" width="21.4219" height="157.094" fill="#D9D9D9"/>
<rect x="58.9453" y="217.938" width="21.4219" height="43.864" fill="#B5C715"/>
<rect x="218.078" y="104.708" width="21.4219" height="157.094" fill="#D9D9D9"/>
<rect x="138.512" y="104.708" width="21.4219" height="157.094" fill="#D9D9D9"/>
<rect x="297.646" y="104.708" width="21.4219" height="157.094" fill="#D9D9D9"/>
<rect x="98.7285" y="104.708" width="21.4219" height="157.094" fill="#D9D9D9"/>
<rect x="257.863" y="104.708" width="21.4219" height="157.094" fill="#D9D9D9"/>
<rect x="178.295" y="104.708" width="21.4219" height="157.094" fill="#D9D9D9"/>
<rect x="337.43" y="104.708" width="21.4219" height="157.094" fill="#D9D9D9"/>
<rect x="98.7285" y="196.516" width="21.4219" height="65.2859" fill="#B5C715"/>
<rect x="138.512" y="177.135" width="21.4219" height="84.6677" fill="#B5C715"/>
<rect x="178.295" y="217.938" width="21.4219" height="43.864" fill="#B5C715"/>
<rect x="218.078" y="155.712" width="21.4219" height="106.09" fill="#B5C715"/>
<rect x="257.863" y="172.034" width="21.4219" height="89.7682" fill="#B5C715"/>
<rect x="297.646" y="142.451" width="21.4219" height="119.351" fill="#B5C715"/>
<rect x="337" y="187" width="22" height="75" fill="#B5C715"/>
<circle cx="387.121" cy="128.181" r="6.12056" fill="#D9D9D9"/>
<circle cx="387.121" cy="156.121" r="6.12056" fill="#B5C715"/>
<path d="M403.163 133V122.091H406.85C407.702 122.091 408.401 122.237 408.948 122.528C409.495 122.815 409.9 123.211 410.163 123.716C410.426 124.22 410.557 124.793 410.557 125.436C410.557 126.079 410.426 126.649 410.163 127.146C409.9 127.643 409.497 128.034 408.954 128.318C408.41 128.598 407.716 128.739 406.871 128.739H403.888V127.545H406.828C407.411 127.545 407.879 127.46 408.235 127.29C408.593 127.119 408.852 126.878 409.012 126.565C409.176 126.249 409.257 125.873 409.257 125.436C409.257 124.999 409.176 124.618 409.012 124.291C408.849 123.964 408.588 123.712 408.229 123.534C407.871 123.353 407.396 123.263 406.807 123.263H404.485V133H403.163ZM408.298 128.099L410.983 133H409.449L406.807 128.099H408.298ZM415.93 133.17C415.142 133.17 414.462 132.996 413.89 132.648C413.322 132.297 412.883 131.807 412.574 131.178C412.269 130.546 412.116 129.811 412.116 128.973C412.116 128.135 412.269 127.396 412.574 126.757C412.883 126.114 413.313 125.614 413.863 125.255C414.417 124.893 415.064 124.712 415.802 124.712C416.229 124.712 416.649 124.783 417.065 124.925C417.48 125.067 417.859 125.298 418.199 125.617C418.54 125.933 418.812 126.352 419.014 126.874C419.217 127.396 419.318 128.039 419.318 128.803V129.335H413.011V128.249H418.04C418.04 127.787 417.947 127.375 417.763 127.013C417.582 126.651 417.322 126.365 416.985 126.155C416.651 125.946 416.257 125.841 415.802 125.841C415.302 125.841 414.868 125.965 414.503 126.214C414.14 126.459 413.862 126.778 413.666 127.173C413.471 127.567 413.373 127.989 413.373 128.44V129.165C413.373 129.783 413.48 130.306 413.693 130.736C413.91 131.162 414.21 131.487 414.593 131.711C414.977 131.931 415.422 132.041 415.93 132.041C416.261 132.041 416.559 131.995 416.825 131.903C417.095 131.807 417.328 131.665 417.523 131.477C417.718 131.285 417.869 131.047 417.976 130.763L419.19 131.104C419.062 131.516 418.848 131.878 418.546 132.19C418.244 132.499 417.871 132.741 417.427 132.915C416.983 133.085 416.484 133.17 415.93 133.17ZM423.638 133.192C423.12 133.192 422.649 133.094 422.226 132.899C421.804 132.7 421.468 132.414 421.22 132.041C420.971 131.665 420.847 131.21 420.847 130.678C420.847 130.209 420.939 129.829 421.124 129.538C421.308 129.243 421.555 129.012 421.864 128.845C422.173 128.678 422.514 128.554 422.887 128.472C423.263 128.387 423.642 128.32 424.022 128.27C424.519 128.206 424.922 128.158 425.231 128.126C425.543 128.091 425.77 128.032 425.913 127.95C426.058 127.869 426.131 127.727 426.131 127.524V127.482C426.131 126.956 425.987 126.548 425.699 126.256C425.415 125.965 424.984 125.82 424.405 125.82C423.805 125.82 423.334 125.951 422.993 126.214C422.653 126.477 422.413 126.757 422.274 127.055L421.081 126.629C421.294 126.132 421.578 125.745 421.933 125.468C422.292 125.187 422.683 124.992 423.105 124.882C423.531 124.768 423.95 124.712 424.362 124.712C424.625 124.712 424.927 124.744 425.268 124.808C425.612 124.868 425.944 124.994 426.264 125.186C426.587 125.377 426.855 125.667 427.068 126.054C427.281 126.441 427.388 126.96 427.388 127.609V133H426.131V131.892H426.067C425.982 132.07 425.84 132.26 425.641 132.462C425.442 132.664 425.177 132.837 424.847 132.979C424.517 133.121 424.114 133.192 423.638 133.192ZM423.83 132.062C424.327 132.062 424.746 131.965 425.087 131.77C425.431 131.574 425.691 131.322 425.865 131.013C426.042 130.704 426.131 130.379 426.131 130.038V128.888C426.078 128.952 425.96 129.01 425.779 129.064C425.602 129.113 425.396 129.158 425.161 129.197C424.931 129.232 424.705 129.264 424.485 129.293C424.268 129.317 424.093 129.339 423.958 129.357C423.631 129.399 423.325 129.468 423.041 129.564C422.761 129.657 422.534 129.797 422.36 129.985C422.189 130.17 422.104 130.422 422.104 130.741C422.104 131.178 422.265 131.509 422.589 131.732C422.915 131.952 423.329 132.062 423.83 132.062ZM432.772 133.17C432.09 133.17 431.488 132.998 430.966 132.654C430.444 132.306 430.036 131.816 429.741 131.184C429.446 130.548 429.299 129.797 429.299 128.93C429.299 128.071 429.446 127.325 429.741 126.693C430.036 126.061 430.446 125.573 430.972 125.228C431.497 124.884 432.104 124.712 432.793 124.712C433.326 124.712 433.747 124.8 434.056 124.978C434.368 125.152 434.606 125.351 434.769 125.575C434.936 125.795 435.066 125.976 435.158 126.118H435.265V122.091H436.522V133H435.307V131.743H435.158C435.066 131.892 434.935 132.08 434.764 132.308C434.594 132.531 434.35 132.732 434.034 132.909C433.718 133.083 433.298 133.17 432.772 133.17ZM432.942 132.041C433.447 132.041 433.873 131.91 434.221 131.647C434.569 131.381 434.833 131.013 435.015 130.544C435.196 130.072 435.286 129.527 435.286 128.909C435.286 128.298 435.197 127.764 435.02 127.306C434.842 126.844 434.579 126.485 434.231 126.23C433.883 125.971 433.454 125.841 432.942 125.841C432.41 125.841 431.966 125.978 431.611 126.251C431.259 126.521 430.995 126.888 430.817 127.354C430.643 127.815 430.556 128.334 430.556 128.909C430.556 129.491 430.645 130.021 430.822 130.496C431.003 130.969 431.27 131.345 431.621 131.626C431.977 131.903 432.417 132.041 432.942 132.041ZM438.999 133V124.818H440.256V133H438.999ZM439.638 123.455C439.393 123.455 439.182 123.371 439.004 123.204C438.83 123.037 438.743 122.837 438.743 122.602C438.743 122.368 438.83 122.167 439.004 122C439.182 121.833 439.393 121.75 439.638 121.75C439.883 121.75 440.093 121.833 440.267 122C440.444 122.167 440.533 122.368 440.533 122.602C440.533 122.837 440.444 123.037 440.267 123.204C440.093 123.371 439.883 123.455 439.638 123.455ZM443.816 128.078V133H442.558V124.818H443.773V126.097H443.879C444.071 125.681 444.362 125.347 444.753 125.095C445.144 124.839 445.648 124.712 446.266 124.712C446.82 124.712 447.305 124.825 447.72 125.053C448.136 125.276 448.459 125.617 448.689 126.075C448.92 126.53 449.036 127.105 449.036 127.801V133H447.779V127.886C447.779 127.244 447.612 126.743 447.278 126.384C446.944 126.022 446.486 125.841 445.904 125.841C445.502 125.841 445.144 125.928 444.828 126.102C444.515 126.276 444.268 126.53 444.087 126.864C443.906 127.197 443.816 127.602 443.816 128.078ZM454.635 136.239C454.028 136.239 453.506 136.161 453.069 136.004C452.633 135.852 452.269 135.649 451.977 135.397C451.69 135.148 451.461 134.882 451.29 134.598L452.292 133.895C452.405 134.044 452.549 134.214 452.723 134.406C452.897 134.602 453.135 134.77 453.437 134.912C453.742 135.058 454.142 135.131 454.635 135.131C455.296 135.131 455.841 134.971 456.271 134.651C456.7 134.332 456.915 133.831 456.915 133.149V131.487H456.809C456.716 131.636 456.585 131.821 456.415 132.041C456.248 132.258 456.006 132.451 455.69 132.622C455.378 132.789 454.955 132.872 454.422 132.872C453.762 132.872 453.169 132.716 452.643 132.403C452.121 132.091 451.708 131.636 451.402 131.04C451.1 130.443 450.949 129.719 450.949 128.866C450.949 128.028 451.097 127.299 451.391 126.677C451.686 126.052 452.096 125.569 452.622 125.228C453.147 124.884 453.755 124.712 454.444 124.712C454.976 124.712 455.399 124.8 455.711 124.978C456.027 125.152 456.269 125.351 456.436 125.575C456.606 125.795 456.738 125.976 456.83 126.118H456.958V124.818H458.172V133.234C458.172 133.938 458.013 134.509 457.693 134.95C457.377 135.393 456.951 135.718 456.415 135.924C455.882 136.134 455.289 136.239 454.635 136.239ZM454.593 131.743C455.097 131.743 455.523 131.627 455.871 131.397C456.219 131.166 456.484 130.834 456.665 130.401C456.846 129.967 456.937 129.449 456.937 128.845C456.937 128.256 456.848 127.735 456.67 127.284C456.493 126.833 456.23 126.48 455.882 126.224C455.534 125.969 455.104 125.841 454.593 125.841C454.06 125.841 453.616 125.976 453.261 126.246C452.91 126.516 452.645 126.878 452.467 127.332C452.293 127.787 452.206 128.291 452.206 128.845C452.206 129.413 452.295 129.916 452.473 130.353C452.654 130.786 452.92 131.127 453.272 131.375C453.627 131.62 454.067 131.743 454.593 131.743Z" fill="black"/>
<path d="M403.119 160.542V149.633H409.703V150.805H404.44V154.491H409.362V155.663H404.44V159.371H409.788V160.542H403.119ZM412.851 152.361L414.811 155.706L416.771 152.361H418.22L415.578 156.452L418.22 160.542H416.771L414.811 157.368L412.851 160.542H411.402L414.002 156.452L411.402 152.361H412.851ZM423.572 152.361V153.426H419.332V152.361H423.572ZM420.568 150.4H421.825V158.199C421.825 158.554 421.877 158.82 421.98 158.998C422.086 159.172 422.221 159.289 422.384 159.349C422.551 159.406 422.727 159.435 422.912 159.435C423.05 159.435 423.164 159.427 423.253 159.413C423.341 159.395 423.412 159.381 423.466 159.371L423.721 160.5C423.636 160.532 423.517 160.564 423.365 160.596C423.212 160.631 423.018 160.649 422.784 160.649C422.429 160.649 422.081 160.573 421.74 160.42C421.403 160.267 421.122 160.035 420.898 159.722C420.678 159.41 420.568 159.015 420.568 158.54V150.4ZM425.463 160.542V152.361H426.678V153.596H426.763C426.912 153.192 427.182 152.863 427.573 152.611C427.963 152.359 428.404 152.233 428.894 152.233C428.986 152.233 429.101 152.235 429.24 152.238C429.378 152.242 429.483 152.247 429.554 152.254V153.533C429.512 153.522 429.414 153.506 429.261 153.485C429.112 153.46 428.954 153.447 428.787 153.447C428.389 153.447 428.034 153.531 427.722 153.698C427.413 153.861 427.168 154.088 426.987 154.379C426.809 154.667 426.72 154.996 426.72 155.365V160.542H425.463ZM433.452 160.734C432.934 160.734 432.463 160.637 432.04 160.441C431.618 160.242 431.282 159.957 431.034 159.584C430.785 159.207 430.661 158.753 430.661 158.22C430.661 157.751 430.753 157.371 430.938 157.08C431.122 156.785 431.369 156.555 431.678 156.388C431.987 156.221 432.328 156.096 432.701 156.015C433.077 155.93 433.456 155.862 433.836 155.812C434.333 155.748 434.736 155.701 435.045 155.669C435.357 155.633 435.584 155.574 435.726 155.493C435.872 155.411 435.945 155.269 435.945 155.067V155.024C435.945 154.498 435.801 154.09 435.513 153.799C435.229 153.508 434.798 153.362 434.219 153.362C433.619 153.362 433.148 153.493 432.807 153.756C432.467 154.019 432.227 154.3 432.088 154.598L430.895 154.172C431.108 153.675 431.392 153.288 431.747 153.011C432.106 152.73 432.497 152.535 432.919 152.425C433.345 152.311 433.764 152.254 434.176 152.254C434.439 152.254 434.741 152.286 435.082 152.35C435.426 152.41 435.758 152.536 436.078 152.728C436.401 152.92 436.669 153.209 436.882 153.596C437.095 153.984 437.202 154.502 437.202 155.152V160.542H435.945V159.435H435.881C435.796 159.612 435.654 159.802 435.455 160.004C435.256 160.207 434.991 160.379 434.661 160.521C434.331 160.663 433.928 160.734 433.452 160.734ZM433.644 159.605C434.141 159.605 434.56 159.507 434.901 159.312C435.245 159.117 435.505 158.865 435.679 158.556C435.856 158.247 435.945 157.922 435.945 157.581V156.43C435.892 156.494 435.774 156.553 435.593 156.606C435.416 156.656 435.21 156.7 434.975 156.739C434.745 156.775 434.519 156.807 434.299 156.835C434.082 156.86 433.907 156.881 433.772 156.899C433.445 156.942 433.139 157.011 432.855 157.107C432.575 157.199 432.348 157.339 432.174 157.528C432.003 157.712 431.918 157.964 431.918 158.284C431.918 158.721 432.079 159.051 432.403 159.275C432.729 159.495 433.143 159.605 433.644 159.605ZM442.82 160.713C442.053 160.713 441.393 160.532 440.839 160.17C440.285 159.807 439.859 159.308 439.56 158.673C439.262 158.037 439.113 157.311 439.113 156.494C439.113 155.663 439.266 154.93 439.571 154.294C439.88 153.655 440.31 153.156 440.86 152.797C441.414 152.435 442.06 152.254 442.799 152.254C443.374 152.254 443.893 152.361 444.354 152.574C444.816 152.787 445.194 153.085 445.489 153.469C445.784 153.852 445.967 154.3 446.038 154.811H444.781C444.685 154.438 444.472 154.108 444.141 153.82C443.815 153.529 443.374 153.383 442.82 153.383C442.33 153.383 441.901 153.511 441.531 153.767C441.166 154.019 440.88 154.376 440.674 154.838C440.471 155.296 440.37 155.834 440.37 156.452C440.37 157.084 440.469 157.634 440.668 158.103C440.871 158.572 441.155 158.936 441.521 159.195C441.89 159.454 442.323 159.584 442.82 159.584C443.147 159.584 443.444 159.527 443.71 159.413C443.976 159.3 444.202 159.136 444.386 158.923C444.571 158.71 444.702 158.454 444.781 158.156H446.038C445.967 158.639 445.791 159.074 445.51 159.461C445.233 159.845 444.866 160.15 444.408 160.377C443.953 160.601 443.424 160.713 442.82 160.713ZM451.434 152.361V153.426H447.194V152.361H451.434ZM448.429 150.4H449.686V158.199C449.686 158.554 449.738 158.82 449.841 158.998C449.947 159.172 450.082 159.289 450.246 159.349C450.413 159.406 450.588 159.435 450.773 159.435C450.912 159.435 451.025 159.427 451.114 159.413C451.203 159.395 451.274 159.381 451.327 159.371L451.583 160.5C451.498 160.532 451.379 160.564 451.226 160.596C451.073 160.631 450.88 160.649 450.645 160.649C450.29 160.649 449.942 160.573 449.601 160.42C449.264 160.267 448.983 160.035 448.76 159.722C448.539 159.41 448.429 159.015 448.429 158.54V150.4ZM453.325 160.542V152.361H454.582V160.542H453.325ZM453.964 150.997C453.719 150.997 453.507 150.914 453.33 150.747C453.156 150.58 453.069 150.379 453.069 150.145C453.069 149.91 453.156 149.71 453.33 149.543C453.507 149.376 453.719 149.292 453.964 149.292C454.209 149.292 454.418 149.376 454.592 149.543C454.77 149.71 454.859 149.91 454.859 150.145C454.859 150.379 454.77 150.58 454.592 150.747C454.418 150.914 454.209 150.997 453.964 150.997ZM458.141 155.621V160.542H456.884V152.361H458.099V153.639H458.205C458.397 153.224 458.688 152.89 459.079 152.638C459.469 152.382 459.974 152.254 460.592 152.254C461.146 152.254 461.63 152.368 462.046 152.595C462.461 152.819 462.784 153.16 463.015 153.618C463.246 154.072 463.361 154.648 463.361 155.344V160.542H462.104V155.429C462.104 154.786 461.937 154.285 461.604 153.927C461.27 153.564 460.812 153.383 460.229 153.383C459.828 153.383 459.469 153.47 459.153 153.644C458.841 153.818 458.594 154.072 458.413 154.406C458.232 154.74 458.141 155.145 458.141 155.621ZM468.961 163.781C468.354 163.781 467.832 163.703 467.395 163.547C466.958 163.394 466.594 163.192 466.303 162.939C466.015 162.691 465.786 162.425 465.616 162.14L466.617 161.437C466.731 161.587 466.875 161.757 467.049 161.949C467.223 162.144 467.461 162.313 467.763 162.455C468.068 162.6 468.468 162.673 468.961 162.673C469.622 162.673 470.167 162.513 470.596 162.194C471.026 161.874 471.241 161.373 471.241 160.692V159.03H471.134C471.042 159.179 470.911 159.364 470.74 159.584C470.573 159.8 470.332 159.994 470.016 160.164C469.703 160.331 469.281 160.415 468.748 160.415C468.088 160.415 467.495 160.258 466.969 159.946C466.447 159.633 466.033 159.179 465.728 158.582C465.426 157.986 465.275 157.261 465.275 156.409C465.275 155.571 465.422 154.841 465.717 154.22C466.012 153.595 466.422 153.112 466.948 152.771C467.473 152.426 468.08 152.254 468.769 152.254C469.302 152.254 469.725 152.343 470.037 152.52C470.353 152.694 470.595 152.893 470.762 153.117C470.932 153.337 471.063 153.518 471.156 153.66H471.284V152.361H472.498V160.777C472.498 161.48 472.338 162.052 472.019 162.492C471.703 162.936 471.276 163.261 470.74 163.467C470.208 163.676 469.615 163.781 468.961 163.781ZM468.919 159.285C469.423 159.285 469.849 159.17 470.197 158.939C470.545 158.708 470.809 158.376 470.991 157.943C471.172 157.51 471.262 156.991 471.262 156.388C471.262 155.798 471.173 155.278 470.996 154.827C470.818 154.376 470.556 154.023 470.208 153.767C469.86 153.511 469.43 153.383 468.919 153.383C468.386 153.383 467.942 153.518 467.587 153.788C467.235 154.058 466.971 154.42 466.793 154.875C466.619 155.329 466.532 155.834 466.532 156.388C466.532 156.956 466.621 157.458 466.798 157.895C466.98 158.328 467.246 158.669 467.597 158.918C467.953 159.163 468.393 159.285 468.919 159.285Z" fill="black"/>
<path d="M63.4063 73.1665L59.2443 58.621H62.6037L65.0114 68.7276H65.1321L67.7884 58.621H70.6648L73.3139 68.7489H73.4418L75.8495 58.621H79.2088L75.0469 73.1665H72.0497L69.2799 63.6566H69.1662L66.4034 73.1665H63.4063ZM96.0009 65.8938C96.0009 67.48 95.7003 68.8294 95.099 69.9421C94.5024 71.0548 93.688 71.9047 92.6558 72.4918C91.6283 73.0742 90.473 73.3654 89.1899 73.3654C87.8973 73.3654 86.7372 73.0718 85.7098 72.4847C84.6823 71.8976 83.8703 71.0477 83.2737 69.935C82.6771 68.8223 82.3788 67.4752 82.3788 65.8938C82.3788 64.3076 82.6771 62.9582 83.2737 61.8455C83.8703 60.7328 84.6823 59.8853 85.7098 59.3029C86.7372 58.7157 87.8973 58.4222 89.1899 58.4222C90.473 58.4222 91.6283 58.7157 92.6558 59.3029C93.688 59.8853 94.5024 60.7328 95.099 61.8455C95.7003 62.9582 96.0009 64.3076 96.0009 65.8938ZM92.883 65.8938C92.883 64.8663 92.7292 63.9998 92.4214 63.2943C92.1184 62.5889 91.6899 62.0538 91.1359 61.6892C90.5819 61.3246 89.9332 61.1424 89.1899 61.1424C88.4465 61.1424 87.7978 61.3246 87.2438 61.6892C86.6899 62.0538 86.259 62.5889 85.9512 63.2943C85.6482 63.9998 85.4967 64.8663 85.4967 65.8938C85.4967 66.9212 85.6482 67.7877 85.9512 68.4932C86.259 69.1987 86.6899 69.7337 87.2438 70.0983C87.7978 70.4629 88.4465 70.6452 89.1899 70.6452C89.9332 70.6452 90.5819 70.4629 91.1359 70.0983C91.6899 69.7337 92.1184 69.1987 92.4214 68.4932C92.7292 67.7877 92.883 66.9212 92.883 65.8938ZM100.879 73.1665V58.621H106.618C107.716 58.621 108.654 58.8175 109.43 59.2105C110.211 59.5988 110.806 60.1504 111.213 60.8654C111.625 61.5756 111.831 62.4113 111.831 63.3725C111.831 64.3384 111.622 65.1693 111.206 65.8654C110.789 66.5567 110.185 67.087 109.395 67.4563C108.609 67.8256 107.657 68.0103 106.54 68.0103H102.697V65.5387H106.042C106.629 65.5387 107.117 65.4582 107.505 65.2972C107.894 65.1362 108.183 64.8947 108.372 64.5728C108.566 64.2508 108.663 63.8507 108.663 63.3725C108.663 62.8895 108.566 62.4823 108.372 62.1509C108.183 61.8194 107.891 61.5685 107.498 61.398C107.11 61.2228 106.62 61.1353 106.028 61.1353H103.954V73.1665H100.879ZM108.734 66.5472L112.349 73.1665H108.954L105.417 66.5472H108.734ZM116.604 73.1665V58.621H119.679V65.0344H119.871L125.105 58.621H128.791L123.394 65.1338L128.855 73.1665H125.176L121.192 67.1864L119.679 69.033V73.1665H116.604ZM132.993 73.1665V58.621H136.068V70.631H142.304V73.1665H132.993ZM159.741 65.8938C159.741 67.48 159.44 68.8294 158.839 69.9421C158.242 71.0548 157.428 71.9047 156.396 72.4918C155.368 73.0742 154.213 73.3654 152.93 73.3654C151.637 73.3654 150.477 73.0718 149.45 72.4847C148.422 71.8976 147.61 71.0477 147.014 69.935C146.417 68.8223 146.119 67.4752 146.119 65.8938C146.119 64.3076 146.417 62.9582 147.014 61.8455C147.61 60.7328 148.422 59.8853 149.45 59.3029C150.477 58.7157 151.637 58.4222 152.93 58.4222C154.213 58.4222 155.368 58.7157 156.396 59.3029C157.428 59.8853 158.242 60.7328 158.839 61.8455C159.44 62.9582 159.741 64.3076 159.741 65.8938ZM156.623 65.8938C156.623 64.8663 156.469 63.9998 156.161 63.2943C155.858 62.5889 155.43 62.0538 154.876 61.6892C154.322 61.3246 153.673 61.1424 152.93 61.1424C152.186 61.1424 151.538 61.3246 150.984 61.6892C150.43 62.0538 149.999 62.5889 149.691 63.2943C149.388 63.9998 149.237 64.8663 149.237 65.8938C149.237 66.9212 149.388 67.7877 149.691 68.4932C149.999 69.1987 150.43 69.7337 150.984 70.0983C151.538 70.4629 152.186 70.6452 152.93 70.6452C153.673 70.6452 154.322 70.4629 154.876 70.0983C155.43 69.7337 155.858 69.1987 156.161 68.4932C156.469 67.7877 156.623 66.9212 156.623 65.8938ZM166.306 73.1665H163.01L168.031 58.621H171.995L177.009 73.1665H173.713L170.07 61.9449H169.956L166.306 73.1665ZM166.1 67.4492H173.884V69.8497H166.1V67.4492ZM186.516 73.1665H181.359V58.621H186.558C188.021 58.621 189.281 58.9122 190.337 59.4946C191.393 60.0723 192.205 60.9032 192.773 61.9875C193.346 63.0718 193.632 64.3692 193.632 65.8796C193.632 67.3947 193.346 68.6968 192.773 69.7858C192.205 70.8748 191.388 71.7105 190.323 72.2929C189.262 72.8753 187.993 73.1665 186.516 73.1665ZM184.435 70.5316H186.388C187.297 70.5316 188.062 70.3706 188.682 70.0486C189.307 69.7219 189.776 69.2176 190.088 68.5358C190.405 67.8493 190.564 66.9639 190.564 65.8796C190.564 64.8048 190.405 63.9264 190.088 63.2446C189.776 62.5628 189.309 62.0609 188.689 61.7389C188.069 61.417 187.304 61.256 186.395 61.256H184.435V70.5316ZM219.106 65.8938C219.106 67.48 218.805 68.8294 218.204 69.9421C217.607 71.0548 216.793 71.9047 215.76 72.4918C214.733 73.0742 213.578 73.3654 212.295 73.3654C211.002 73.3654 209.842 73.0718 208.814 72.4847C207.787 71.8976 206.975 71.0477 206.378 69.935C205.782 68.8223 205.483 67.4752 205.483 65.8938C205.483 64.3076 205.782 62.9582 206.378 61.8455C206.975 60.7328 207.787 59.8853 208.814 59.3029C209.842 58.7157 211.002 58.4222 212.295 58.4222C213.578 58.4222 214.733 58.7157 215.76 59.3029C216.793 59.8853 217.607 60.7328 218.204 61.8455C218.805 62.9582 219.106 64.3076 219.106 65.8938ZM215.988 65.8938C215.988 64.8663 215.834 63.9998 215.526 63.2943C215.223 62.5889 214.795 62.0538 214.241 61.6892C213.687 61.3246 213.038 61.1424 212.295 61.1424C211.551 61.1424 210.903 61.3246 210.349 61.6892C209.795 62.0538 209.364 62.5889 209.056 63.2943C208.753 63.9998 208.601 64.8663 208.601 65.8938C208.601 66.9212 208.753 67.7877 209.056 68.4932C209.364 69.1987 209.795 69.7337 210.349 70.0983C210.903 70.4629 211.551 70.6452 212.295 70.6452C213.038 70.6452 213.687 70.4629 214.241 70.0983C214.795 69.7337 215.223 69.1987 215.526 68.4932C215.834 67.7877 215.988 66.9212 215.988 65.8938ZM225.791 58.621L229.307 69.6722H229.442L232.965 58.621H236.374L231.359 73.1665H227.396L222.375 58.621H225.791ZM240.724 73.1665V58.621H250.525V61.1566H243.8V64.6225H250.021V67.158H243.8V70.631H250.554V73.1665H240.724ZM255.57 73.1665V58.621H261.309C262.408 58.621 263.345 58.8175 264.122 59.2105C264.903 59.5988 265.497 60.1504 265.904 60.8654C266.316 61.5756 266.522 62.4113 266.522 63.3725C266.522 64.3384 266.314 65.1693 265.897 65.8654C265.48 66.5567 264.877 67.087 264.086 67.4563C263.3 67.8256 262.348 68.0103 261.231 68.0103H257.389V65.5387H260.734C261.321 65.5387 261.809 65.4582 262.197 65.2972C262.585 65.1362 262.874 64.8947 263.063 64.5728C263.257 64.2508 263.354 63.8507 263.354 63.3725C263.354 62.8895 263.257 62.4823 263.063 62.1509C262.874 61.8194 262.583 61.5685 262.19 61.398C261.801 61.2228 261.311 61.1353 260.72 61.1353H258.646V73.1665H255.57ZM263.426 66.5472L267.041 73.1665H263.646L260.109 66.5472H263.426ZM273.533 58.621L277.048 69.6722H277.183L280.706 58.621H284.115L279.101 73.1665H275.138L270.116 58.621H273.533ZM291.541 58.621V73.1665H288.466V58.621H291.541ZM296.671 73.1665V58.621H306.472V61.1566H299.746V64.6225H305.968V67.158H299.746V70.631H306.501V73.1665H296.671ZM314.791 73.1665L310.63 58.621H313.989L316.397 68.7276H316.517L319.174 58.621H322.05L324.699 68.7489H324.827L327.235 58.621H330.594L326.432 73.1665H323.435L320.665 63.6566H320.551L317.789 73.1665H314.791Z" fill="#222222"/>
<defs>
<filter id="filter0_d_53_1162" x="0.599998" y="0.599998" width="597.8" height="335.8" filterUnits="userSpaceOnUse" color-interpolation-filters="sRGB">
<feFlood flood-opacity="0" result="BackgroundImageFix"/>
<feColorMatrix in="SourceAlpha" type="matrix" values="0 0 0 0 0 0 0 0 0 0 0 0 0 0 0 0 0 0 127 0" result="hardAlpha"/>
<feMorphology radius="13" operator="erode" in="SourceAlpha" result="effect1_dropShadow_53_1162"/>
<feOffset dx="16" dy="9"/>
<feGaussianBlur stdDeviation="19.7"/>
<feComposite in2="hardAlpha" operator="out"/>
<feColorMatrix type="matrix" values="0 0 0 0 0.709804 0 0 0 0 0.780392 0 0 0 0 0.0823529 0 0 0 0.4 0"/>
<feBlend mode="normal" in2="BackgroundImageFix" result="effect1_dropShadow_53_1162"/>
<feBlend mode="normal" in="SourceGraphic" in2="effect1_dropShadow_53_1162" result="shape"/>
</filter>
</defs>
</svg>
