<svg width="19" height="14" viewBox="0 0 19 14" fill="none" xmlns="http://www.w3.org/2000/svg">
<path id="Vector" d="M6.27254 8.8066C9.17013 6.09625 11.9926 3.43505 14.8601 0.815989C15.2589 0.450864 15.8311 0.163002 16.373 0.0506555C17.3288 -0.14595 18.1338 0.24025 18.6456 1.02667C19.1724 1.84118 19.0972 2.65568 18.5177 3.42806C18.3747 3.61764 18.1943 3.77912 18.0212 3.94062C14.7624 6.98098 11.5033 10.0213 8.2445 13.0617C6.8973 14.3186 5.67809 14.3116 4.32337 13.0477C3.16434 11.9664 2.0054 10.892 0.853896 9.81069C-0.222351 8.79957 -0.282546 7.51462 0.680808 6.60883C1.61406 5.73113 3.07401 5.78732 4.12015 6.76333C4.83514 7.42336 5.53497 8.10444 6.27254 8.8066Z" fill="#B5C715"/>
</svg>
