<svg width="61" height="25" viewBox="0 0 61 25" fill="none" xmlns="http://www.w3.org/2000/svg">
<path d="M8.01788 2.47833C7.73388 2.76241 7.57434 3.14765 7.57434 3.54934C7.57434 3.95103 7.73388 4.33628 8.01788 4.62036L15.5165 12.119L8.01788 19.6176C7.74193 19.9034 7.58924 20.286 7.59269 20.6832C7.59614 21.0804 7.75546 21.4604 8.03633 21.7412C8.3172 22.0221 8.69715 22.1814 9.09435 22.1849C9.49154 22.1883 9.8742 22.0356 10.1599 21.7597L18.7296 13.19C19.0136 12.9059 19.1731 12.5207 19.1731 12.119C19.1731 11.7173 19.0136 11.3321 18.7296 11.048L10.1599 2.47833C9.87583 2.19433 9.49059 2.03479 9.08889 2.03479C8.6872 2.03479 8.30196 2.19433 8.01788 2.47833Z" fill="#B5C715"/>
<path d="M20.1364 2.47833C19.8524 2.76241 19.6929 3.14765 19.6929 3.54934C19.6929 3.95103 19.8524 4.33628 20.1364 4.62036L27.635 12.119L20.1364 19.6176C19.8605 19.9034 19.7078 20.286 19.7112 20.6832C19.7147 21.0804 19.874 21.4604 20.1549 21.7412C20.4357 22.0221 20.8157 22.1814 21.2129 22.1849C21.6101 22.1883 21.9927 22.0356 22.2784 21.7597L30.8481 13.19C31.1321 12.9059 31.2916 12.5207 31.2916 12.119C31.2916 11.7173 31.1321 11.3321 30.8481 11.048L22.2784 2.47833C21.9944 2.19433 21.6091 2.03479 21.2074 2.03479C20.8057 2.03479 20.4205 2.19433 20.1364 2.47833Z" fill="#B5C715"/>
<path d="M32.2552 2.47833C31.9712 2.76241 31.8116 3.14765 31.8116 3.54934C31.8116 3.95103 31.9712 4.33628 32.2552 4.62036L39.7538 12.119L32.2552 19.6176C31.9792 19.9034 31.8265 20.286 31.83 20.6832C31.8334 21.0804 31.9928 21.4604 32.2736 21.7412C32.5545 22.0221 32.9345 22.1814 33.3317 22.1849C33.7288 22.1883 34.1115 22.0356 34.3972 21.7597L42.9669 13.19C43.2509 12.9059 43.4104 12.5207 43.4104 12.119C43.4104 11.7173 43.2509 11.3321 42.9669 11.048L34.3972 2.47833C34.1131 2.19433 33.7279 2.03479 33.3262 2.03479C32.9245 2.03479 32.5393 2.19433 32.2552 2.47833Z" fill="#B5C715"/>
<path d="M44.3753 2.47833C44.0913 2.76241 43.9318 3.14765 43.9318 3.54934C43.9318 3.95103 44.0913 4.33628 44.3753 4.62036L51.8739 12.119L44.3753 19.6176C44.0994 19.9034 43.9467 20.286 43.9501 20.6832C43.9536 21.0804 44.1129 21.4604 44.3938 21.7412C44.6746 22.0221 45.0546 22.1814 45.4518 22.1849C45.849 22.1883 46.2316 22.0356 46.5173 21.7597L55.087 13.19C55.371 12.9059 55.5305 12.5207 55.5305 12.119C55.5305 11.7173 55.371 11.3321 55.087 11.048L46.5173 2.47833C46.2333 2.19433 45.848 2.03479 45.4463 2.03479C45.0446 2.03479 44.6594 2.19433 44.3753 2.47833Z" fill="#B5C715"/>
</svg>
