<svg width="77" height="102" viewBox="0 0 77 102" fill="none" xmlns="http://www.w3.org/2000/svg">
<rect x="-0.00012207" width="77" height="102" rx="9.90806" fill="#F1EFFC"/>
<g clip-path="url(#clip0_360_815)">
<path d="M24.644 28.7879C24.644 28.7879 21.9774 29.2304 19.2198 31.4083C17.6121 32.678 18.7609 37.2536 14.422 39.3982C10.6117 41.2819 5.00001 40.9622 5.00001 40.9622L12.317 51.5806C12.317 51.5806 17.5978 51.7987 21.1283 48.9713C23.5191 47.0563 22.3178 42.6749 25.1953 40.2164C26.4997 39.1021 29.0801 37.5907 29.0801 37.5907L24.6444 28.7876L24.644 28.7879Z" fill="#BDE377"/>
<path d="M24.1786 29.5687C24.1786 29.5687 21.9675 30.1181 19.7733 32.0723C18.4858 33.2189 19.2931 38.3479 15.6244 40.18C12.4024 41.789 6.92644 41.8415 6.92644 41.8415L13.0546 50.9112C13.0546 50.9112 18.0013 50.6334 20.9837 48.2137C23.0037 46.5749 22.127 41.9577 24.5575 39.8534C25.659 38.8998 28.3282 37.5335 28.3282 37.5335L24.1786 29.569L24.1786 29.5687Z" fill="#6BA638"/>
<path d="M23.7667 30.3148C23.7667 30.3148 22.1956 30.706 20.2575 32.5686C18.5027 34.2549 19.9409 38.9128 16.2406 40.6082C12.9908 42.0972 8.34523 42.3878 8.34523 42.3878L13.5853 50.1453C13.5853 50.1453 17.4144 50.0906 20.4467 47.8856C22.5005 46.3922 21.918 41.092 24.4834 39.2661C25.725 38.3824 27.6063 37.4707 27.6063 37.4707L23.7667 30.3148Z" fill="#BDE377"/>
<path d="M18.0989 38.2668C18.5412 37.3856 19.609 36.5152 20.8708 38.1456C22.3189 40.0165 22.7106 42.3753 22.371 44.0999C22.0313 45.8245 20.5465 46.8527 18.9751 44.7158C17.4041 42.5786 16.9273 40.6508 17.1441 39.859C17.3608 39.0673 18.0989 38.2671 18.0989 38.2671L18.0989 38.2668Z" fill="#6BA638"/>
<path d="M23.6863 37.0071C23.3034 37.1174 22.8691 36.8981 22.7158 36.5171C22.5625 36.1358 22.7488 35.7375 23.1314 35.6272C23.5143 35.5168 23.9486 35.7362 24.1019 36.1172C24.2552 36.4985 24.0689 36.8968 23.6863 37.0071Z" fill="#6BA638"/>
<path d="M15.2484 46.8705C14.7837 47.0044 14.2826 46.8043 14.1297 46.423C13.9764 46.0421 14.2291 45.6244 14.6938 45.4902C15.1586 45.3563 15.6596 45.5564 15.8126 45.9377C15.9659 46.3186 15.7132 46.7366 15.2484 46.8705Z" fill="#6BA638"/>
<path d="M21.4723 43.4033L21.7067 43.7205L22.0251 43.1677L21.7412 42.8169C21.8318 42.5229 21.8725 42.2215 21.856 42.0009C21.8142 41.4472 21.3469 40.1104 20.6804 40.465C20.1049 40.771 19.6849 41.8934 19.1633 40.9363C18.9135 40.478 19.3086 39.6198 19.7454 39.5961C20.0722 39.5784 20.2817 39.7997 20.2817 39.7997L20.6881 39.3786C20.6881 39.3786 19.7707 38.2752 18.8222 39.213C18.8211 39.2139 18.8203 39.2149 18.8196 39.2158L18.5221 38.8482L18.2096 39.3634L18.4741 39.7211C18.1828 40.3602 18.2232 41.1887 18.5727 41.7415C18.9806 42.3862 19.7836 42.2476 20.1008 41.8779C20.4181 41.5081 20.7695 41.0355 21.0505 41.3788C21.3315 41.7222 21.4338 42.3514 21.144 42.7165C20.8543 43.0817 20.3514 42.8359 20.3514 42.8359L20.0381 43.4732C20.0381 43.4732 20.5619 43.9958 21.0839 43.7628C21.2332 43.696 21.3637 43.5664 21.473 43.403L21.4723 43.4033Z" fill="#BDE377"/>
<path d="M25.5651 10.036C25.4304 10.3511 23.0231 11.4309 21.3967 15.6016C20.665 17.4778 21.8017 21.1423 21.8017 21.1423L11.7257 27.2367C11.7257 27.2367 10.8288 25.4494 10.6766 23.0281C10.3219 17.3939 12.3749 15.1759 12.3749 15.1759L13.9026 13.7471L25.5654 10.036L25.5651 10.036Z" fill="#A8C469"/>
<path d="M22.4762 12.4352C22.4762 12.4352 20.7405 14.7458 20.5839 16.4598C20.4555 17.8643 21.0989 20.9558 21.0989 20.9558L12.2487 26.2013C12.2487 26.2013 11.0522 22.1553 11.4124 20.1753C12.5374 13.9867 14.089 13.772 14.089 13.772L14.7411 13.4879C14.7411 13.4879 12.5058 16.2003 12.1218 19.986C11.8232 22.9296 12.7527 25.229 12.7527 25.229L20.4489 20.7324C20.4489 20.7324 19.8514 18.1098 19.997 16.5614C20.143 15.013 21.7514 12.4429 21.7514 12.4429L22.4759 12.4355L22.4762 12.4352Z" fill="#639334"/>
<path d="M22.222 11.22C21.6854 12.0453 20.8245 13.6282 19.6049 14.5038C18.7712 15.1023 16.3705 16.1541 15.3775 16.0043C14.7012 15.9024 13.9052 15.3726 14.5449 14.2341C15.1846 13.0956 16.0682 12.0099 16.0682 12.0099L22.222 11.22Z" fill="#639334"/>
<path d="M20.1797 12.8612L20.5813 12.7621L20.3954 13.3227L19.9339 13.419C19.7795 13.675 19.584 13.9103 19.4083 14.0572C18.9667 14.4267 17.6422 15.1221 17.4345 14.5159C17.2552 13.9923 17.7929 12.9746 16.7123 13.3727C16.1948 13.5635 15.8357 14.381 16.1273 14.6312C16.3451 14.8182 16.658 14.7735 16.658 14.7735L16.6324 15.2881C16.6324 15.2881 15.1629 15.5789 15.1897 14.4093C15.1897 14.4081 15.1897 14.4071 15.1897 14.4059L14.7059 14.5069L14.868 13.9758L15.321 13.864C15.5903 13.2565 16.2351 12.6922 16.8935 12.488C17.6612 12.25 18.126 12.7764 18.0757 13.2074C18.0251 13.6384 17.922 14.1601 18.3761 14.0669C18.8302 13.974 19.3705 13.5837 19.4373 13.171C19.504 12.7584 18.9656 12.6636 18.9656 12.6636L19.2179 12.0459C19.2179 12.0459 19.9772 11.9557 20.1727 12.3992C20.2288 12.5259 20.2244 12.6875 20.1804 12.8612L20.1797 12.8612Z" fill="#A8C469"/>
<path d="M36.6355 6.38116L27.658 14.2216C27.658 14.2216 23.0507 12.924 20.5469 13.0772C14.3883 13.4535 12.3643 15.1877 12.3643 15.1877C12.3643 15.1877 13.6745 13.1987 17.3142 10.9648C22.8584 7.56164 27.603 5.65683 27.603 5.65683C27.603 5.65683 29.4543 5.18172 31.3473 5.31441C33.2404 5.4474 36.6359 6.38147 36.6359 6.38147L36.6355 6.38116Z" fill="#BDE377"/>
<path d="M13.2189 14.1796C13.2189 14.1796 15.507 12.6822 19.3775 12.3606C21.6377 12.1726 27.2359 13.4171 27.2359 13.4171L35.3605 6.65394C35.3605 6.65394 32.8648 6.02657 31.3253 5.81402C28.9991 5.49273 26.8845 5.94422 26.8845 5.94422L25.7265 6.46377C25.7265 6.46377 27.2568 6.08685 30.2975 6.32922C31.4651 6.42213 33.8757 7.03521 33.8177 7.05354C33.7598 7.07219 26.9487 12.7241 26.9487 12.7241C26.9487 12.7241 21.5897 11.8093 19.7909 11.8547C16.3015 11.9426 13.9914 13.391 13.9914 13.391L13.2182 14.1799L13.2189 14.1796Z" fill="#6BA638"/>
<path d="M15.5727 12.1298C15.5727 12.1298 16.439 11.9253 18.7477 10.9878C20.5285 10.2648 22.0995 8.95843 22.181 8.59611C22.2341 8.35964 22.1527 8.28569 22.0896 8.2627C20.6422 9.01747 19.0004 9.92854 17.2816 10.9835C16.6415 11.3763 16.0741 11.7616 15.5727 12.1298Z" fill="#6BA638"/>
<path d="M15.3548 20.5133C15.1072 20.2113 15.3163 19.725 15.8221 19.4273C16.3279 19.1296 16.939 19.1333 17.1866 19.4354C17.4342 19.7374 17.2251 20.2237 16.7193 20.5214C16.2135 20.8191 15.6024 20.8153 15.3548 20.5133Z" fill="#639334"/>
<path d="M25.6443 9.75911C25.3336 9.45583 25.4583 8.93286 25.9234 8.59075C26.3885 8.24863 27.0172 8.21693 27.3283 8.5199C27.639 8.82318 27.5143 9.34614 27.0492 9.68826C26.5841 10.0304 25.9554 10.0621 25.6443 9.75911Z" fill="#6BA638"/>
<path d="M45.7439 58.6071C45.7439 58.6071 43.034 56.2524 39.6227 55.6477C36.2115 55.043 28.64 55.8146 26.087 54.8625C23.5341 53.9104 21.1381 52.7439 21.1381 52.7439L14.802 63.8219C14.802 63.8219 20.735 65.9933 23.4402 66.218C27.2069 66.5309 32.1165 65.1201 34.5906 65.8504C37.5261 66.7167 42.7728 69.4266 42.7728 69.4266L45.7443 58.6068L45.7439 58.6071Z" fill="#BDE377"/>
<path d="M44.8727 58.9324C44.8727 58.9324 42.0869 57.1115 38.932 56.5634C35.7772 56.0153 28.8237 56.5134 26.4509 55.698C24.0781 54.8826 21.8442 53.8958 21.8442 53.8958L16.4038 63.2053C16.4038 63.2053 19.9266 64.6776 23.5455 65.3065C26.4714 65.8149 32.3626 64.4312 34.6815 65.0079C37.0005 65.5846 42.1221 67.9114 42.1221 67.9114L44.8724 58.9324L44.8727 58.9324Z" fill="#6BA638"/>
<path d="M34.8881 64.2184C37.5954 64.7653 41.5965 66.7941 41.5965 66.7941L43.9734 59.4095C43.9734 59.4095 42.0884 57.9462 38.6606 57.22C35.6844 56.5896 28.6836 57.1076 26.4109 56.3882C24.1382 55.6689 21.9935 54.8103 21.9935 54.8103L17.8956 62.7151C17.8956 62.7151 20.5957 63.903 23.745 64.5518C27.3628 65.297 32.652 63.7669 34.8881 64.2187L34.8881 64.2184Z" fill="#BDE377"/>
<path d="M32.7489 56.6937C34.7329 56.6691 35.7819 57.6445 35.1852 60.1609C34.4989 63.0547 32.3802 64.7358 30.9967 64.7075C29.6131 64.6792 26.6633 64.4885 27.4721 61.0064C28.0102 58.6908 30.1666 56.5576 31.1346 56.5594C32.1026 56.5613 32.7489 56.6937 32.7489 56.6937Z" fill="#6BA638"/>
<path d="M30.0965 63.4608L30.9204 63.5506L31.0194 63.1085C32.1855 63.1868 33.0067 62.8978 33.2536 61.9143C33.5852 60.5934 32.3868 60.2969 31.815 59.9725C31.2435 59.6481 30.8265 59.5136 30.938 59.1404C31.0495 58.7672 31.318 58.5717 31.9331 58.6277C33.0023 58.7252 32.7668 59.3116 32.7668 59.3116L33.7939 59.4319C33.7939 59.4319 34.1919 58.059 32.4958 57.7427L32.5908 57.3319L31.9052 57.2533L31.7416 57.6809C30.7351 57.702 30.1295 58.1746 29.9256 58.7212C29.455 59.9834 30.504 60.4004 31.0803 60.644C31.7691 60.9352 32.2093 61.1971 32.1202 61.5868C32.0032 62.0995 31.5634 62.2822 30.854 62.1334C29.8291 61.9187 30.1193 61.0728 30.1193 61.0728L29.1568 60.9476C29.1568 60.9476 28.4162 62.6393 30.237 63.01L30.0958 63.4602L30.0965 63.4608Z" fill="#BDE377"/>
<path d="M39.246 62.6047C38.8403 62.4496 38.6676 62.0308 38.8605 61.6691C39.0531 61.3077 39.538 61.1402 39.9437 61.2953C40.3493 61.4503 40.5221 61.8692 40.3292 62.2306C40.1366 62.592 39.6517 62.7594 39.246 62.6044L39.246 62.6047Z" fill="#6BA638"/>
<path d="M22.2154 60.0328C21.8097 59.8777 21.637 59.4589 21.8299 59.0972C22.0225 58.7358 22.5074 58.5683 22.9131 58.7234C23.3188 58.8784 23.4915 59.2973 23.2986 59.6587C23.106 60.0201 22.6211 60.1875 22.2154 60.0325L22.2154 60.0328Z" fill="#6BA638"/>
<path d="M21.6799 69.3956L26.1182 79.9075C26.1182 79.9075 24.6928 80.7057 24.2615 81.3269C23.3558 82.6314 21.085 88.4278 19.4612 90.6878C16.2909 95.0996 11.6718 99.2047 11.6718 99.2047L8.00338 93.1047L8.27518 84.204C8.27518 84.204 13.0755 81.2884 15.0683 78.8712C17.7834 75.5777 18.3717 71.6298 18.963 70.968C20.2311 69.5485 21.6803 69.395 21.6803 69.395L21.6799 69.3956Z" fill="#BDE377"/>
<path d="M19.1439 89.6903C20.5527 87.6805 22.6882 82.6329 23.3103 81.4036C23.7179 80.5979 25.2577 79.7922 25.2577 79.7922L21.2724 70.6616C21.2724 70.6616 20.2307 70.5848 19.1409 72.4825C18.7631 73.1403 18.1175 76.582 15.7623 79.511C14.0336 81.6603 8.59208 85.3552 8.59208 85.3552L8.41088 91.954L11.9432 97.9391C11.9432 97.9391 16.3936 93.6143 19.1439 89.6906L19.1439 89.6903ZM8.95411 91.1483L8.8184 86.276C8.8184 86.276 13.7016 82.9008 15.4304 80.7514C17.786 77.8224 18.9524 74.9811 19.1439 74.2679C19.8232 71.7358 21.0006 71.5055 21.0006 71.5055L24.4423 79.639C24.4423 79.639 22.8573 80.6364 21.9968 82.6699C21.2911 84.3373 19.9108 87.7569 18.3285 89.8441C15.1582 94.026 12.124 96.7114 12.124 96.7114L8.95375 91.1486L8.95411 91.1483Z" fill="#6BA638"/>
<path d="M8.27518 84.2043C8.27518 84.2043 8.8639 86.0458 9.4075 86.8133C9.9511 87.5805 11.4 89.6139 11.4 89.6139C11.4 89.6139 9.75339 90.6058 9.3169 91.1486C8.63758 91.9926 8.00375 93.1053 8.00375 93.1053L8.27555 84.2046L8.27518 84.2043Z" fill="#9EAF61"/>
<path d="M8.2539 85.5672C8.2539 85.5672 8.40502 86.4537 9.00988 87.4978C9.63087 88.5701 10.4367 89.4312 10.4367 89.4312C10.4367 89.4312 9.47499 89.7929 8.99814 90.374C8.33167 91.1865 8.03309 92.2949 8.03309 92.2949L8.09105 90.7089C8.09105 90.7089 8.31589 90.1782 8.591 89.8814C8.84666 89.6055 9.40493 89.251 9.40493 89.251C9.40493 89.251 8.88664 88.5273 8.68526 88.2035C8.27701 87.5469 8.18421 87.1529 8.18421 87.1529L8.2539 85.5669L8.2539 85.5672Z" fill="#639334"/>
<path d="M19.9589 87.6954L20.5025 86.7362C21.0461 85.547 21.1367 83.6285 19.8232 81.5954C18.7976 80.0079 17.4683 78.5263 15.8379 79.869C13.932 81.4385 13.793 83.3868 15.1586 85.7005C16.8341 88.5394 19.4157 89.0766 19.9589 87.6954Z" fill="#6BA638"/>
<path d="M19.3375 86.7542L19.5939 87.1678L20.0517 86.5053L19.7373 86.046C19.883 85.6874 20.0374 85.2692 20.0532 84.9936C20.0983 84.2006 19.4692 82.512 18.6003 82.8998C17.8502 83.2348 17.2809 84.7319 16.738 83.4989C16.478 82.9085 17.0656 81.8719 17.6121 81.8775C18.0211 81.8816 18.2569 82.174 18.2569 82.174L18.8097 81.6824C18.8097 81.6824 17.7911 80.2356 16.5055 81.3269C16.5044 81.3278 16.5029 81.3291 16.5018 81.3303L16.1724 80.849L15.726 81.4652L16.0151 81.9316C15.5811 82.7038 15.3897 83.6829 15.8863 84.5974C16.3811 85.5088 17.3322 85.3938 17.7995 84.7462C18.1509 84.2593 18.7257 83.7513 19.0371 84.2012C19.3485 84.6511 19.4006 85.4392 19.0045 85.8736C18.4073 86.5286 18.0046 85.9587 18.0046 85.9587L17.3506 86.6436C17.3506 86.6436 18.1374 87.4192 18.8126 87.1709C19.0059 87.0997 19.1827 86.9487 19.3368 86.7542L19.3375 86.7542Z" fill="#BDE377"/>
<path d="M13.3719 91.243C12.9079 91.4531 12.2774 91.2203 11.9637 90.7231C11.6498 90.226 11.7715 89.6524 12.2355 89.4423C12.6996 89.2322 13.3301 89.465 13.6437 89.9622C13.9577 90.4593 13.8359 91.0329 13.3719 91.243Z" fill="#6BA638"/>
<path d="M21.5816 79.2307C21.2423 79.3553 20.7886 79.1067 20.5678 78.6751C20.347 78.2438 20.4431 77.7929 20.7824 77.6686C21.1217 77.544 21.5754 77.7926 21.7962 78.2242C22.017 78.6555 21.9209 79.1064 21.5816 79.2307Z" fill="#6BA638"/>
<path d="M66.6835 88.7661C66.5797 89.625 66.0592 90.9667 60.2336 92.7615C53.8696 94.7222 49.2105 102 49.2105 102L49.866 90.0839C49.866 90.0839 51.5144 86.517 56.5972 84.3857C61.6803 82.2543 67.0851 81.5443 67.0851 81.5443L66.6835 88.7664L66.6835 88.7661Z" fill="#9EAF61"/>
<path d="M57.1489 93.6208C60.31 91.7809 63.372 91.3673 64.8748 90.3233C66.5892 89.1319 66.4744 87.6214 66.4744 87.6214L66.2965 87.4067C66.2866 87.9757 65.9785 88.7674 64.8377 89.7186C63.8973 90.5029 59.0137 91.7598 56.5928 93.2479C54.8652 94.3097 50.3968 98.8016 50.3968 98.8016L51.024 89.9432C51.024 89.9432 53.6507 86.4012 57.8623 84.8111C59.1329 84.3317 62.3017 83.4582 62.3017 83.4582L64.5021 85.2434L62.6124 82.9657C62.6124 82.9657 59.8749 83.4007 56.9636 84.6837C52.4226 86.6849 50.4393 89.9961 50.4393 89.9961L49.8473 100.217C49.8473 100.217 53.7262 95.6126 57.1489 93.6202L57.1489 93.6208Z" fill="#639334"/>
<path d="M64.037 76.8616C64.037 76.8616 65.1367 77.35 66.0232 78.391C67.3775 79.981 67.4006 81.6192 67.4006 81.6192L66.6838 88.7661C66.6838 88.7661 66.8031 87.7575 65.5732 86.7156C64.0608 85.4341 61.6477 85.2909 61.6477 85.2909L64.037 76.8619L64.037 76.8616Z" fill="#BDE377"/>
<path d="M58.7573 84.3288C56.3679 84.918 56.076 86.5176 56.1244 88.3177C56.2102 91.5114 58.0783 92.5157 59.8111 91.9185C62.0295 91.1538 61.9664 89.4656 61.7225 87.644C61.4309 85.4667 60.789 83.8282 58.7576 84.3291L58.7573 84.3288Z" fill="#639334"/>
<path d="M58.8662 90.9086L59.5851 90.7871L59.5209 90.3937C60.5223 90.1806 61.1132 89.7431 60.9925 88.8615C60.8304 87.6773 59.7293 87.7155 59.1431 87.5807C58.557 87.4458 58.1634 87.4328 58.1326 87.0941C58.1018 86.7554 58.2613 86.5276 58.7947 86.4275C59.7216 86.2538 59.7197 86.8007 59.7197 86.8007L60.6188 86.6562C60.6188 86.6562 60.4948 85.413 58.9707 85.5531L58.9135 85.1868L58.3142 85.2846L58.3197 85.6811C57.4848 85.9394 57.1356 86.4791 57.147 86.985C57.173 88.153 58.1898 88.2515 58.7529 88.3177C59.4259 88.397 59.8811 88.5107 59.9365 88.8578C60.0092 89.3146 59.7021 89.5725 59.0591 89.6175C58.1304 89.6825 58.0919 88.9059 58.0919 88.9059L57.2449 89.0312C57.2449 89.0312 57.1885 90.6228 58.8347 90.4981L58.8666 90.9083L58.8662 90.9086Z" fill="#9EAF61"/>
<path d="M66.8196 87.375C66.8196 87.375 66.8599 86.6187 65.6443 85.5675C65.0773 85.0768 63.2499 84.3568 63.2499 84.3568L64.6554 78.6415C64.6554 78.6415 65.5229 79.0337 66.2165 79.9034C66.9105 80.7728 67.2982 82.6344 67.2982 82.6344L67.361 82.0077L67.3617 82.0052C67.3617 82.0052 66.9234 80.2095 66.4117 79.5209C65.4349 78.2062 64.4317 77.6537 64.4317 77.6537L62.4774 84.749C62.4774 84.749 64.4904 85.2735 65.2629 85.7837C66.6266 86.6849 66.7594 87.9763 66.7594 87.9763L66.8199 87.375L66.8196 87.375Z" fill="#6BA638"/>
<path d="M53.8491 92.1625C53.5091 92.1777 53.2024 91.6871 53.1639 91.0665C53.1254 90.4463 53.3697 89.9311 53.7097 89.9159C54.0497 89.9006 54.3564 90.3913 54.3949 91.0118C54.4334 91.6321 54.1891 92.1473 53.8491 92.1625Z" fill="#639334"/>
<path d="M66.9457 86.196L67.1508 84.153C66.9479 84.3254 66.7667 84.6352 66.6754 85.0056C66.5353 85.5749 66.6563 86.0848 66.9457 86.1963L66.9457 86.196Z" fill="#6BA638"/>
<path d="M49.7527 38.7103L50.6822 29.1185L50.501 28.1319C50.1184 26.4213 49.5432 25.0675 46.855 23.1276C44.2404 21.2408 37.8177 20.6818 37.8177 20.6818C37.8177 20.6818 39.3997 22.9846 39.5252 26.6345C39.6506 30.2844 38.9801 31.6429 38.9801 31.6429C38.9801 31.6429 43.2852 31.4795 45.5238 32.9452C48.313 34.7714 49.7523 38.7099 49.7523 38.7099L49.7527 38.7103Z" fill="#9EAF61"/>
<path d="M39.1749 21.6229L39.6877 21.6801C39.7287 21.6848 40.711 21.7957 42.0389 22.0931C43.8292 22.4939 45.3177 23.0191 46.4632 23.6545C48.7752 24.9366 50.2196 27.2932 50.7566 30.6581L50.3014 30.7408C49.7938 27.5607 48.1919 25.3502 46.0645 24.1703C44.0423 23.0489 41.2444 22.5346 40.1055 22.3622C40.3054 23.1819 40.7151 24.9478 40.8251 26.0664C40.9843 27.685 40.6813 29.6983 40.5456 30.4792C41.2935 30.5485 42.9698 30.7486 44.4234 31.238C46.0751 31.7942 47.1003 32.7109 47.6693 33.3817C48.2888 34.1123 48.5169 34.7132 48.5261 34.7384L47.8321 34.9239C47.8303 34.9192 47.6208 34.3755 47.0615 33.7217C46.318 32.8526 45.3397 32.2096 44.1546 31.8107C42.3638 31.2075 40.1227 31.0637 40.1003 31.0624L39.7012 31.0379L39.7676 30.7038C39.7728 30.6774 40.2896 28.0498 40.0996 26.1177C39.9595 24.6933 39.2908 22.0778 39.2838 22.0517L39.1738 21.6235L39.1749 21.6229Z" fill="#639334"/>
<path d="M50.3825 29.758C50.1936 28.7919 48.0709 27.4409 47.5486 29.7276C46.9822 32.2078 47.5834 33.6872 48.0236 34.4759C48.4637 35.2645 50.1943 32.0727 50.1943 32.0727L50.3821 29.7577L50.3825 29.758Z" fill="#639334"/>
<path d="M50.501 28.132C50.501 28.132 51.0101 30.3456 47.6359 34.0527C45.4809 36.4205 38.6841 40.603 38.6841 40.603C38.6841 40.603 40.6292 41.5877 42.1078 43.4714C44.5104 46.5321 45.1798 48.3204 45.1798 48.3204C45.1798 48.3204 48.6127 46.1695 49.8407 43.0867C52.8023 35.652 50.5002 28.132 50.5002 28.132L50.501 28.132Z" fill="#BDE377"/>
<path d="M45.3041 47.1181L45.4626 47.5979L45.873 47.2412C45.9768 47.1507 48.4359 45.0001 49.8664 42.4705C50.0751 42.1016 50.2725 41.711 50.4573 41.3127C50.8652 39.938 51.1117 38.5807 51.2452 37.2893C50.9811 38.5798 50.9342 40.2409 49.34 42.4428C48.0665 44.2016 46.5237 45.7764 45.7725 46.487C45.4835 45.8022 44.8346 44.4759 43.6829 43.1246C42.7622 42.0448 41.6013 40.9876 41.0789 40.5274C42.3833 39.7068 47.2673 36.5867 48.649 35.0352C49.8719 33.6621 50.6583 32.1354 51.1029 31.0967C51.1102 31.0796 51.1051 31.0824 51.1124 31.0653C51.0449 30.5743 50.9584 30.1881 50.8854 29.8049C50.5288 30.8711 49.7076 32.8933 48.108 34.6894C46.6022 36.3801 40.4268 40.222 40.3648 40.2605L40.0464 40.4581L40.3255 40.6949C40.3417 40.7086 41.9648 42.0892 43.1338 43.4605C44.6839 45.2789 45.2983 47.0998 45.3045 47.1181L45.3041 47.1181Z" fill="#6BA638"/>
<path d="M51.1128 31.0656C50.8304 31.5755 49.7872 34.5517 50.1342 36.5649C50.4815 38.5782 50.885 39.0446 51.0875 38.2289C51.2896 37.4132 51.444 36.5845 51.4326 34.7291C51.4209 32.8737 51.1128 31.0656 51.1128 31.0656Z" fill="#6BA638"/>
<path d="M46.5465 41.6591C46.26 41.2614 46.2828 40.8071 46.5975 40.6443C46.9122 40.4814 47.3997 40.6719 47.6861 41.0697C47.9726 41.4674 47.9499 41.9217 47.6351 42.0845C47.3204 42.2473 46.833 42.0569 46.5465 41.6591Z" fill="#6BA638"/>
<path d="M43.4749 27.8256C43.5295 27.3619 43.8714 27.0111 44.2382 27.0422C44.605 27.0733 44.8581 27.4741 44.8034 27.9377C44.7488 28.4013 44.4069 28.7519 44.0401 28.7211C43.6733 28.69 43.4202 28.2892 43.4749 27.8256Z" fill="#639334"/>
<path d="M58.6146 73.3018C59.6226 71.4806 60.636 69.6315 61.5703 68.1483L63.0881 65.7159L66.3358 57.8848L59.1373 64.4189C59.1373 64.4189 57.344 67.8494 56.7358 72.6248C56.3177 75.908 56.7058 77.9343 56.7058 77.9343C56.7058 77.9343 57.6554 75.0348 58.6142 73.3022L58.6146 73.3018Z" fill="#9EAF61"/>
<path d="M57.2244 71.348C57.3693 70.4404 57.5802 69.4342 57.8869 68.4582C58.56 66.3144 59.2481 64.6921 59.2481 64.6921C59.2481 64.6921 60.3477 63.566 60.9563 62.9936C61.5043 62.4781 63.0063 61.2063 63.0709 61.1637L63.3478 61.4887C63.3324 61.499 61.9092 62.8463 61.3961 63.3289C60.8565 63.8369 59.9542 64.7561 59.7704 64.9441C59.6626 65.202 59.0654 66.6569 58.4591 68.5871C57.9302 70.271 57.5028 72.8572 57.3965 74.0365C57.7985 72.8212 58.9271 70.6594 59.3699 69.8733C60.4046 68.0356 62.7231 64.8823 62.7466 64.8509L63.2488 65.1162C63.2257 65.1476 60.9244 68.277 59.9043 70.0892C59.171 71.3918 57.4929 74.6539 57.4761 74.6869L56.8881 75.8307L56.909 74.5831C56.909 74.5619 56.9372 73.1487 57.2248 71.348L57.2244 71.348Z" fill="#639334"/>
<path d="M63.0881 61.4271C62.7499 61.7003 62.1825 62.6023 62.1546 63.5818C62.1271 64.5612 62.4088 65.7945 62.861 65.2694C63.3133 64.7439 63.0881 61.4271 63.0881 61.4271Z" fill="#639334"/>
<path d="M65.5728 43.4095C65.5728 43.4095 67.5759 47.1909 67.9104 48.8552C68.8953 53.752 67.4952 57.96 67.4263 58.3922C67.2036 59.7871 61.5461 68.1881 61.5461 68.1881C61.5461 68.1881 64.3686 64.202 61.9947 58.437C60.8037 55.545 59.3779 52.913 59.3779 52.913L65.5728 43.4095Z" fill="#BDE377"/>
<path d="M63.4094 65.3511C63.7003 64.9027 63.8056 64.7542 64.1174 64.2642C64.179 63.1682 64.3136 61.1898 63.7326 59.1653C63.1523 57.144 61.4929 53.7691 61.1342 53.0501L65.5926 45.6692C65.8065 46.0834 66.1039 46.7039 66.3915 47.4503C66.8786 48.7147 67.5077 50.7161 67.566 52.5635C67.6573 55.4589 67.1691 58.1315 66.5573 60.1643C66.6288 60.1031 66.7348 59.9627 67.0231 59.4009C67.5877 57.3102 68.0715 54.7936 68.0436 52.4858C68.0201 50.5403 67.5803 48.5659 67.0723 47.2496C66.5236 45.8277 65.9539 44.8734 65.9301 44.8336L65.6099 44.3004L60.3389 53.0265L60.4053 53.1582C60.4251 53.1977 62.4081 57.1353 63.0324 59.3098C63.6383 61.4206 63.6677 63.1005 63.5855 64.138C63.5451 64.6479 63.4747 65.0562 63.4094 65.3514L63.4094 65.3511Z" fill="#6BA638"/>
<path d="M66.8174 59.7489C66.9626 58.9543 67.0107 57.9615 66.0299 58.8008C64.4915 60.1165 63.8158 63.2107 63.7429 64.0137C63.6699 64.8163 63.5774 65.1646 63.5873 65.1034C63.5972 65.0422 64.3327 63.8944 65.1679 62.5862C66.0027 61.278 66.8177 59.7492 66.8177 59.7492L66.8174 59.7489Z" fill="#6BA638"/>
<path d="M65.5816 53.2645C65.2592 53.7114 64.7919 53.9671 64.5381 53.8357C64.2842 53.7042 64.34 53.2353 64.6628 52.7885C64.9852 52.3416 65.4525 52.0859 65.7063 52.2174C65.9602 52.3488 65.9044 52.8177 65.5816 53.2645Z" fill="#6BA638"/>
<path d="M60.2337 66.961C60.033 67.4563 59.7377 67.8195 59.5738 67.772C59.4098 67.7245 59.4395 67.2841 59.6402 66.7888C59.8408 66.2935 60.1361 65.9303 60.3 65.9778C60.464 66.0254 60.4343 66.4657 60.2337 66.961Z" fill="#639334"/>
<path d="M56.3423 4C56.3423 4 59.0658 5.59966 60.7017 8.46618C62.0288 10.792 64.9801 17.7957 66.1204 19.6119C68.205 22.9318 71 25.1066 71 25.1066L64.4211 34.1919C64.4211 34.1919 61.7445 32.3411 59.5991 29.8506C57.4262 27.3284 56.3225 20.6143 53.1716 17.2966C51.1319 15.1485 45.7784 12.6869 45.7784 12.6869L56.3423 4Z" fill="#BDE377"/>
<path d="M47.2221 12.3391L56.3591 5.10864L56.5653 5.21305C56.6544 5.25811 58.7719 6.35935 60.7607 9.97909C61.3832 11.1117 62.1693 12.7536 63.0015 14.4922C64.0994 16.7851 65.2342 19.156 66.0427 20.4484C67.1919 22.2857 70.0404 25.0161 70.0691 25.0435L70.2249 25.1923L64.3279 33.4681L64.0429 33.2724C64.0161 33.254 63.3764 32.8118 62.4645 31.9552C61.6271 31.1681 60.3921 29.8664 59.2664 28.1341C58.2636 26.5906 57.6891 24.9515 57.0814 23.2164C56.2311 20.7895 55.3519 18.2797 53.194 16.0717C51.5727 14.4126 47.6432 12.5392 47.6036 12.5206L47.2217 12.3397L47.2221 12.3391ZM56.4307 5.79257L48.2935 12.2319C49.3426 12.7539 52.2777 14.284 53.6866 15.7261C55.9274 18.0197 56.8257 20.5832 57.6943 23.0622C58.2922 24.7688 58.8567 26.3806 59.8265 27.8727C61.5123 30.467 63.4578 32.0975 64.168 32.6456L69.4363 25.2523C68.8128 24.6448 66.5192 22.3653 65.4785 20.7016C64.6551 19.385 63.5136 17.0011 62.4099 14.6954C61.5805 12.9634 60.7974 11.3277 60.1819 10.2072C59.1908 8.40336 58.1704 7.267 57.4889 6.63186C57.0208 6.19559 56.6445 5.92929 56.431 5.79257L56.4307 5.79257Z" fill="#6BA638"/>
<path d="M63.4255 16.0813C62.762 14.9354 61.0927 14.188 58.8706 15.7846C56.6485 17.3815 56.1941 20.4313 56.7406 21.7659C57.2871 23.1005 60.1199 23.4861 61.6535 22.1851C63.1871 20.884 64.9309 18.6816 63.4259 16.081L63.4255 16.0813Z" fill="#6BA638"/>
<path d="M56.4424 12.6362C56.0275 12.9146 55.5026 12.9385 55.2694 12.6896C55.0364 12.4404 55.1835 12.0129 55.5984 11.7344C56.0132 11.456 56.5381 11.4321 56.7714 11.681C57.0043 11.9302 56.8572 12.3578 56.4424 12.6362Z" fill="#6BA638"/>
<path d="M65.2974 26.9966C64.9368 27.3247 64.4218 27.4151 64.1471 27.1985C63.8723 26.982 63.9424 26.5404 64.303 26.2123C64.6635 25.8841 65.1785 25.7937 65.4532 26.0103C65.728 26.2269 65.6579 26.6684 65.2974 26.9966Z" fill="#6BA638"/>
<path d="M57.9305 20.5926L58.2937 21.2476L58.6825 20.9266C59.2543 21.8362 60.0646 21.866 60.7395 21.3492C61.6458 20.6551 61.3179 19.4932 61.0905 19.0383C60.8631 18.5834 60.7189 18.1717 60.9379 17.8659C61.1188 17.6136 61.6503 17.7761 61.9228 18.1645C62.3244 18.7369 62.0149 18.9376 62.0149 18.9376L62.3607 19.6747C62.3607 19.6747 63.193 18.9317 62.6487 17.9759L62.9315 17.6677L62.6524 17.1991L62.3464 17.4719C61.9088 16.907 60.979 16.8355 60.5583 17.0937C59.5863 17.69 59.9677 18.7394 60.2399 19.1449C60.5653 19.6296 60.6441 20.0793 60.4515 20.276C59.8434 20.8965 59.4828 20.5733 59.1714 20.042C58.7518 19.3257 59.28 19.0178 59.28 19.0178L58.6634 17.9837C58.6634 17.9837 57.5083 18.3323 58.3325 20.3161L57.9305 20.5923L57.9305 20.5926Z" fill="#BDE377"/>
<path d="M32.3869 89.3419C32.3065 89.8649 32.0791 91.1289 33.5881 93.6036C34.5712 95.2157 36.5636 96.6886 36.5636 96.6886L39.4309 84.2816L35.5358 81.2286L32.3869 89.3419Z" fill="#9EAF61"/>
<path d="M32.6535 88.543C32.6535 87.6692 32.769 87.0751 32.7742 87.0483L33.4128 87.1562C33.4117 87.1624 33.2859 87.814 33.3046 88.7313C33.3214 89.5687 33.4656 90.8076 34.0554 91.9517C34.5678 92.9461 35.4548 93.9858 35.9782 94.5579C36.4961 92.2895 38.1328 85.1252 38.168 84.9944L38.7978 85.1398L38.7978 85.1383C38.7549 85.3073 37.2627 91.838 36.4796 95.2679L36.3505 95.8328L35.9243 95.4105C35.8571 95.3437 34.2682 93.7599 33.4689 92.2099C32.8266 90.9639 32.6718 89.6284 32.655 88.7275C32.6539 88.6648 32.6531 88.6033 32.6531 88.543L32.6535 88.543Z" fill="#639334"/>
<path d="M50.607 71.0978C50.607 71.0978 48.353 72.8901 45.6801 73.3326C44.284 73.5638 41.3716 73.8229 38.2161 74.4773C35.3249 75.077 34.1446 76.8756 34.1446 76.8756L32.3858 89.3556C32.3858 89.3556 33.5265 86.7756 37.6967 85.5401C40.0339 84.8475 45.19 84.3121 46.7053 83.941C49.5157 83.2528 50.2827 81.5903 50.2827 81.5903L50.6073 71.0978L50.607 71.0978Z" fill="#BDE377"/>
<path d="M35.5538 85.6831C38.1038 84.4268 41.0349 84.0194 43.8692 83.6257C44.9036 83.4818 45.8804 83.346 46.8256 83.1717C49.0745 82.7562 49.6624 81.2781 49.6863 81.2153L49.7043 81.1681L50.0435 72.0751L49.4801 72.3982C49.4581 72.411 47.2471 73.6716 45.8822 73.8419C43.2214 74.1741 40.8688 74.4817 39.0259 74.8819C37.0507 75.3111 35.7321 75.8371 34.8767 76.5378C34.5825 76.7787 34.3221 77.022 34.0983 77.2485L33.9637 78.2484C34.2051 77.9402 34.6603 77.589 35.3462 77.0272C36.9726 75.6957 40.4473 75.1806 45.9772 74.4901C47.0501 74.3562 48.5026 73.6673 49.2909 73.2584L49.0004 81.0366C48.9549 81.1299 48.821 81.3722 48.5488 81.6367C48.0856 82.0869 47.4587 82.3877 46.6862 82.5303C45.7578 82.7019 44.7891 82.8364 43.7635 82.979C42.3477 83.1757 40.8834 83.3793 39.4393 83.6962C37.7924 84.0576 36.4121 84.519 35.22 85.1063C34.1677 85.6246 33.3446 86.2707 32.7459 86.8418L32.5805 88.0151C33.1014 87.3986 34.095 86.4018 35.5531 85.6834L35.5538 85.6831Z" fill="#6BA638"/>
<path d="M34.4707 85.7216C35.7688 85.0311 38.4046 83.3957 38.0899 79.0352C37.8489 75.6976 35.9302 76.1323 35.1001 76.7457C34.7579 76.9986 34.3489 77.4066 34.0001 77.9399L33.039 84.7275C33.0302 85.2039 33.6978 86.1327 34.4707 85.7216Z" fill="#6BA638"/>
<path d="M43.9118 79.8707C43.4122 79.8707 43.0069 79.3176 43.0069 78.6353C43.0069 77.9529 43.4118 77.3998 43.9118 77.3998C44.4117 77.3998 44.8167 77.9529 44.8167 78.6353C44.8167 79.3176 44.4117 79.8707 43.9118 79.8707Z" fill="#6BA638"/>
<path d="M35.1716 88.8646C34.8198 88.7589 34.7193 88.1474 34.9475 87.4983C35.1756 86.8491 35.6459 86.4085 35.9976 86.5142C36.3494 86.6198 36.4499 87.2314 36.2218 87.8805C35.9936 88.5296 35.5234 88.9702 35.1716 88.8646Z" fill="#639334"/>
<path d="M33.4124 82.0946L33.1846 83.7114C33.3721 83.7993 33.601 83.8596 33.8816 83.8795L33.8262 84.3891L34.6632 84.3648L34.6786 83.8705C35.8542 83.7831 36.6172 83.3484 36.6773 82.2444C36.7584 80.7616 35.5091 80.6168 34.8789 80.3489C34.2487 80.0811 33.8082 79.9965 33.8489 79.5752C33.8896 79.1538 34.12 78.9018 34.7428 78.8717C35.8256 78.8198 35.7016 79.491 35.7016 79.491L36.7467 79.4698C36.7467 79.4698 36.8838 77.9211 35.1357 77.8279L35.1525 77.368L34.4552 77.3839L34.3731 77.8721C34.2377 77.8954 34.1119 77.9267 33.9942 77.965L33.5749 80.9393C33.8188 81.0577 34.073 81.1282 34.274 81.1867C35.0146 81.4011 35.5025 81.6204 35.4874 82.0564C35.4676 82.6303 35.0645 82.8935 34.3302 82.837C33.6611 82.7854 33.4656 82.3842 33.4124 82.0949L33.4124 82.0946Z" fill="#BDE377"/>
<path d="M57.4914 6.19721C57.5846 7.21331 55.6816 7.90034 55.1945 6.8395C55.0038 6.42436 55.3823 5.94924 55.7998 5.69755C56.4695 5.29328 56.7417 5.81811 57.1613 5.91786L57.4914 6.19752L57.4914 6.19721Z" fill="#6BA638"/>
<path d="M50.3392 12.1679C50.3319 11.5545 49.7476 11.3463 49.0679 11.5185L47.8633 12.4386L49.2014 12.9799C49.3558 13.5072 50.344 12.597 50.3388 12.1682L50.3392 12.1679Z" fill="#6BA638"/>
<path d="M64.8088 32.1109L64.7538 32.0177C64.8128 30.7987 63.2473 31.0084 63.3232 32.1109C63.3449 32.4226 63.6053 32.999 64.0906 33.0453C64.6008 33.0938 64.8044 32.4478 64.8088 32.1109Z" fill="#6BA638"/>
<path d="M69.582 25.4335C69.6975 25.0997 69.5049 24.9562 69.1003 24.747L69.1003 24.6072C68.5303 24.592 68.1426 24.7253 68.1089 25.2598C68.0872 25.6009 68.3246 26.0742 68.7827 26.0885C69.1356 26.0994 69.4818 25.724 69.582 25.4338L69.582 25.4335Z" fill="#6BA638"/>
<path d="M40.4363 22.0903C41.7153 22.3529 40.9524 23.5113 39.929 22.9899C38.8396 22.4349 39.8091 21.2237 40.7664 22.0903L40.4363 22.0903Z" fill="#639334"/>
<path d="M40.3263 29.9672C40.4059 29.1829 42.0561 29.8236 41.6343 30.7117C41.116 31.8039 39.5508 30.4709 40.1612 29.9206L40.3263 29.9672Z" fill="#639334"/>
<path d="M41.5914 39.7546C42.0913 39.6533 42.6276 39.4632 42.8444 39.9979C43.0138 40.4162 42.7112 41.0535 42.1962 41.1551C41.7733 41.2384 41.1152 40.8705 40.8618 40.6051C40.4205 40.1434 40.8981 39.9349 41.3159 39.6614L41.591 39.7546L41.5914 39.7546Z" fill="#6BA638"/>
<path d="M45.2227 45.8136C45.1369 45.2242 47.1165 45.1316 46.6668 46.0945C46.5956 46.2471 46.1206 46.7921 45.9269 46.8297C45.4622 46.9195 45.3239 46.2757 45.3327 46.0467L45.2227 45.8136Z" fill="#6BA638"/>
<path d="M66.2393 46.1399C66.2371 46.6498 65.6946 47.8042 65.0413 46.931C64.5652 46.2949 65.2137 45.7312 65.5336 45.2157C65.9924 45.2036 66.1098 45.881 66.1843 46.0463L66.2393 46.1395L66.2393 46.1399Z" fill="#6BA638"/>
<path d="M60.7926 52.898C61.1888 51.9546 62.5276 51.9708 62.3332 53.1311C62.2738 53.4859 62.0192 53.9837 61.5079 53.9697C60.8954 53.9533 60.8844 53.3505 60.731 52.9869C60.7677 52.8903 60.782 52.9894 60.8477 52.9912L60.7926 52.898Z" fill="#6BA638"/>
<path d="M57.2164 72.7064C57.4269 72.4988 57.5223 72.1757 57.7515 71.9982C58.2375 71.6226 58.4826 72.0107 58.3743 72.4733C58.2262 73.1082 57.6987 73.8101 57.0623 74.1463C56.9944 73.555 57.223 72.9739 57.2134 72.3733C57.2739 72.3111 57.2336 72.4068 57.2714 72.4264L57.2164 72.7061L57.2164 72.7064Z" fill="#639334"/>
<path d="M59.9123 64.2704C60.8036 64.5438 60.2215 65.7169 59.3717 65.5674C59.1662 65.1308 59.5312 64.6371 59.9123 64.3636L59.9123 64.2704Z" fill="#639334"/>
<path d="M65.1939 78.579C65.8296 79.0705 64.9287 79.9524 64.4376 79.2675C64.2758 79.0419 64.3488 78.5873 64.6041 78.4028C64.9628 78.1433 64.9643 78.4112 65.3039 78.5786L65.1939 78.5786L65.1939 78.579Z" fill="#6BA638"/>
<path d="M62.8834 84.4049C62.8111 83.8105 63.4699 83.0508 63.9424 83.8341C64.402 84.5963 63.1589 84.9823 63.0485 84.4982L62.8834 84.4049Z" fill="#6BA638"/>
<path d="M51.3296 89.2522C52.3606 89.0794 51.8537 90.7278 50.7889 90.5492C50.4878 90.144 50.6862 89.4153 51.1645 89.1589L51.3296 89.2522Z" fill="#639334"/>
<path d="M50.1191 98.5273C50.2886 98.1556 50.6396 97.0019 51.152 97.9213C51.4818 98.513 50.7577 98.9225 50.2383 99.1273C50.187 98.9986 50.1536 98.8597 50.1738 98.7137L50.1188 98.5273L50.1191 98.5273Z" fill="#639334"/>
<path d="M48.5789 73.1259C48.3794 73.4512 48.0533 73.8142 48.2888 74.1603C48.5206 74.5009 49.0987 74.5254 49.3917 74.234C49.9115 73.7166 49.687 72.2844 48.689 73.1259L48.5789 73.1259Z" fill="#6BA638"/>
<path d="M49.2388 80.0239C48.8489 80.1933 48.4773 80.4723 48.2914 80.8129C48.1758 81.0248 47.886 81.7964 48.2059 81.971C48.7201 82.2519 49.7314 80.6156 49.1288 80.3502L49.2388 80.0239Z" fill="#6BA638"/>
<path d="M36.4198 94.006C36.5361 93.1928 35.2373 92.5347 35.0997 93.6341C35.0586 93.9613 35.2358 94.5706 35.6099 94.7456C36.0813 94.9665 36.1818 94.5787 36.3102 94.2857L36.4202 94.006L36.4198 94.006Z" fill="#639334"/>
<path d="M42.1966 66.1814C41.6999 65.5916 40.2246 65.7989 40.6685 66.6836C40.8027 66.9514 41.3133 67.1689 41.6464 67.1577C42.2145 67.1382 42.1265 66.8119 42.3066 66.4145L42.1966 66.1814Z" fill="#6BA638"/>
<path d="M43.462 58.5842C43.1605 58.9167 42.7761 60.279 43.7383 60.1699C44.7686 60.0531 43.9136 58.8191 43.7372 58.6308L43.462 58.5842Z" fill="#6BA638"/>
<path d="M17.2739 62.6856C17.4822 61.7954 19.1218 61.5157 19.3107 62.5449C19.5323 63.7515 17.6847 63.6265 17.2189 62.8721L17.2739 62.6856Z" fill="#6BA638"/>
<path d="M22.1153 54.2963C22.4076 54.6642 23.0459 54.5965 22.9953 55.135C22.9593 55.5191 22.587 55.7294 22.1703 55.7409C21.0677 55.7714 21.3461 54.4769 21.9502 54.296L22.1153 54.296L22.1153 54.2963Z" fill="#6BA638"/>
<path d="M20.4097 71.4946C20.4651 72.0011 21.3098 72.8597 21.4551 71.9607C21.4914 71.737 21.2995 71.3458 21.0835 71.2022C20.7306 70.9676 20.6679 71.0789 20.4097 71.3082L20.4097 71.4946Z" fill="#6BA638"/>
<path d="M24.2611 78.7189C23.9185 78.9575 22.9245 80.1433 24.0396 80.2138C25.0442 80.2772 24.5964 79.0448 24.3712 78.7189L24.2611 78.7189Z" fill="#6BA638"/>
<path d="M12.1574 97.0357C12.6053 96.5836 13.4984 95.4798 12.2135 95.2636C10.7569 95.0181 11.3104 96.5944 11.8273 97.0823L12.1574 97.0357Z" fill="#6BA638"/>
<path d="M9.07626 88.2733C8.06462 88.1232 7.89736 89.7356 8.80116 89.8133C9.09387 89.8384 9.52449 89.5255 9.62646 89.3009C9.79629 88.9274 9.42656 88.5641 9.13165 88.3196L9.07663 88.273L9.07626 88.2733Z" fill="#639334"/>
<path d="M12.8723 49.6357C13.3132 49.5011 15.0408 49.2646 14.6891 50.1959C14.5651 50.524 13.9452 50.5467 13.5875 50.5209C13.0106 50.4796 13.0733 50.3044 12.8173 49.8684L12.8723 49.6353L12.8723 49.6357Z" fill="#6BA638"/>
<path d="M7.70077 42.0852C8.31039 42.0989 10.3267 41.5933 9.55898 42.7729C9.03959 43.5711 7.5148 42.8999 7.70077 42.2716L7.70077 42.0852Z" fill="#6BA638"/>
<path d="M22.8306 30.2001C22.9586 30.5298 23.851 31.5966 24.2486 30.8887C24.3558 30.6983 24.1012 30.1026 23.8925 30.0022C23.6023 29.863 23.2509 30.1253 22.941 30.2468L22.831 30.2001L22.8306 30.2001Z" fill="#6BA638"/>
<path d="M27.617 36.9584L27.727 36.8186C27.2028 36.7598 26.0412 37.362 26.6255 37.8915C26.9897 38.2218 28.1822 37.5258 27.617 36.9584Z" fill="#6BA638"/>
<path d="M12.3771 25.2595C11.85 24.6974 12.5055 23.4821 13.3675 24.1515C13.9859 24.6316 13.1716 25.6066 12.5422 25.446L12.3771 25.2595Z" fill="#639334"/>
<path d="M20.7398 20.5522C20.8275 19.666 19.9042 19.6231 19.6974 20.4589C19.609 20.816 19.518 21.1264 20.0246 21.1581C20.3693 21.1798 20.7413 20.876 20.7398 20.6454L20.7398 20.5522Z" fill="#639334"/>
<path d="M27.6169 12.5356C28.1455 12.168 27.4394 11.8818 27.0117 11.8831C26.5844 11.8846 25.9715 11.9915 25.6806 12.2911C25.283 12.7006 25.8314 12.8771 26.3515 12.9914C26.8558 13.1024 27.1331 12.9669 27.5069 12.6754L27.6169 12.5356Z" fill="#6BA638"/>
<path d="M34.7142 6.75626L34.7142 6.61643C34 6.51141 31.6881 6.33708 32.5138 7.54833C33.1058 8.41683 34.2744 7.22796 34.7142 6.75626Z" fill="#6BA638"/>
</g>
<defs>
<clipPath id="clip0_360_815">
<rect width="98" height="66" fill="white" transform="translate(71 4) rotate(90)"/>
</clipPath>
</defs>
</svg>
