<svg width="20" height="19" viewBox="0 0 20 19" fill="none" xmlns="http://www.w3.org/2000/svg">
<path id="Vector" d="M1 3.90809C0.45 3.90809 0 4.32335 0 4.83088V16.8272C0 17.8423 0.9 18.6728 2 18.6728H15C15.55 18.6728 16 18.2575 16 17.75C16 17.2425 15.55 16.8272 15 16.8272H3C2.45 16.8272 2 16.4119 2 15.9044V4.83088C2 4.32335 1.55 3.90809 1 3.90809ZM18 0.216911H6C4.9 0.216911 4 1.04743 4 2.0625V13.136C4 14.1511 4.9 14.9816 6 14.9816H18C19.1 14.9816 20 14.1511 20 13.136V2.0625C20 1.04743 19.1 0.216911 18 0.216911ZM16 8.52206H8C7.45 8.52206 7 8.1068 7 7.59926C7 7.09173 7.45 6.67647 8 6.67647H16C16.55 6.67647 17 7.09173 17 7.59926C17 8.1068 16.55 8.52206 16 8.52206ZM12 12.2132H8C7.45 12.2132 7 11.798 7 11.2904C7 10.7829 7.45 10.3676 8 10.3676H12C12.55 10.3676 13 10.7829 13 11.2904C13 11.798 12.55 12.2132 12 12.2132ZM16 4.83088H8C7.45 4.83088 7 4.41562 7 3.90809C7 3.40055 7.45 2.98529 8 2.98529H16C16.55 2.98529 17 3.40055 17 3.90809C17 4.41562 16.55 4.83088 16 4.83088Z" fill="#9ADD19"/>
</svg>
