<svg width="44" height="50" viewBox="0 0 44 50" fill="none" xmlns="http://www.w3.org/2000/svg">
<g id="Group 34932">
<path id="Vector" d="M22.7711 0C23.8428 0.315926 24.5575 1.12055 25.3587 1.7919C28.6452 4.55132 32.4776 6.06678 36.7746 6.54561C37.6422 6.64433 38.5149 6.67889 39.3773 6.82204C41.8422 7.23176 43.7306 9.21124 43.848 11.6103C44.047 15.6532 44.093 19.701 43.7408 23.7389C43.4091 27.5597 42.6487 31.2816 41.0616 34.821C38.5201 40.4929 34.2844 44.6345 28.6656 47.4679C26.9203 48.3466 25.0575 49.0278 23.2356 49.7584C22.4548 50.0743 21.5973 50.0694 20.8165 49.8078C16.4736 48.3614 12.4675 46.3326 9.05846 43.3066C5.39938 40.0585 2.98558 36.0748 1.60258 31.489C0.699296 28.4975 0.184001 25.4419 0.0870376 22.332C-0.0099254 19.0691 0.0153819 15.8013 7.19187e-05 12.5334C-0.0050314 11.2055 0.260441 9.95167 1.1229 8.87061C2.17929 7.54767 3.56735 6.82697 5.29227 6.72825C9.99753 6.45675 14.3201 5.1585 18.0251 2.23618C18.362 1.96962 18.7139 1.70797 19.0201 1.41179C19.6376 0.804618 20.3114 0.286313 21.1534 0.00494117H22.7711V0ZM3.1438 16.8132H3.07228C3.07228 17.0403 3.07228 17.2674 3.07228 17.4944C3.05187 21.4484 3.25089 25.3827 4.22053 29.2479C5.24119 33.3105 7.06829 36.9683 10.0741 40.0239C13.2994 43.3017 17.275 45.3947 21.6383 46.8756C21.868 46.9496 22.1844 46.92 22.414 46.8312C24.0624 46.1549 25.7514 45.5428 27.3335 44.7381C33.2839 41.6974 37.3208 37.0819 39.255 30.8028C40.3879 27.1302 40.8062 23.3637 40.8266 19.5529C40.8419 16.9712 40.8063 14.3845 40.7247 11.8028C40.689 10.6872 39.6938 9.84309 38.5353 9.75423C37.6014 9.68019 36.6623 9.59627 35.7335 9.47286C30.6047 8.79164 26.1444 6.75291 22.3986 3.2876C22.0618 2.98154 21.8629 2.98154 21.5312 3.2876C19.9389 4.77344 18.1629 6.0174 16.2083 7.01948C12.932 8.69783 9.41582 9.47779 5.74654 9.74435C3.97058 9.8727 3.21015 10.6131 3.15401 12.331C3.10808 13.8218 3.1438 15.3175 3.1438 16.8132Z" fill="#B5C715"/>
<path id="Vector_2" d="M22.0057 12.2221C28.6824 12.2221 34.1013 17.9404 34.1013 24.9923C34.1013 32.0695 28.6825 37.7878 21.9723 37.7777C15.3003 37.7726 9.89561 32.0392 9.90039 24.9822C9.90518 17.9303 15.3241 12.2221 22.0057 12.2221ZM12.8322 25.0125C12.8322 30.3418 16.9454 34.6811 21.9865 34.6861C27.0563 34.6912 31.1694 30.3469 31.1646 24.9923C31.1646 19.668 27.0514 15.3237 22.0103 15.3237C16.9358 15.3136 12.8322 19.6529 12.8322 25.0125Z" fill="#B5C715"/>
<path id="Vector_3" d="M19.3952 26.7025C21.2405 24.9817 23.0381 23.292 24.8643 21.6291C25.1183 21.3973 25.4827 21.2145 25.8278 21.1432C26.4366 21.0184 26.9492 21.2636 27.2751 21.7629C27.6107 22.2801 27.5628 22.7972 27.1937 23.2876C27.1026 23.408 26.9878 23.5105 26.8775 23.613C24.8021 25.5434 22.7265 27.4738 20.651 29.4042C19.7931 30.2022 19.0166 30.1978 18.1538 29.3953C17.4157 28.7087 16.6776 28.0266 15.9442 27.3401C15.2588 26.6981 15.2204 25.8822 15.834 25.3071C16.4283 24.7499 17.3581 24.7855 18.0244 25.4052C18.4797 25.8243 18.9254 26.2567 19.3952 26.7025Z" fill="#B5C715"/>
</g>
</svg>
