<svg width="139" height="139" viewBox="0 0 139 139" fill="none" xmlns="http://www.w3.org/2000/svg">
<g filter="url(#filter0_d_311_1137)">
<circle cx="69.5" cy="67.5" r="59.5" fill="#F8FFEC"/>
</g>
<g opacity="0.7">
<path d="M92 51C92 48.3478 90.9464 45.8043 89.0711 43.9289C87.1957 42.0536 84.6522 41 82 41H54C51.3478 41 48.8043 42.0536 46.9289 43.9289C45.0536 45.8043 44 48.3478 44 51V56.032C46.9581 54.0503 50.4395 52.9948 54 53C58.288 53 62.224 54.5 65.316 57H88V79C88 80.5913 87.3679 82.1174 86.2426 83.2426C85.1174 84.3679 83.5913 85 82 85H76.484L78.244 86.76C78.896 87.412 79.368 88.18 79.66 89H82C84.6522 89 87.1957 87.9464 89.0711 86.0711C90.9464 84.1957 92 81.6522 92 79V51ZM54 53H48V51C48 49.4087 48.6321 47.8826 49.7574 46.7574C50.8826 45.6321 52.4087 45 54 45H82C83.5913 45 85.1174 45.6321 86.2426 46.7574C87.3679 47.8826 88 49.4087 88 51V53H54ZM62.384 82.212C59.5494 84.3317 56.0171 85.299 52.498 84.9192C48.9789 84.5395 45.7343 82.8409 43.4171 80.1653C41.0999 77.4897 39.8822 74.0357 40.009 70.4985C40.1358 66.9612 41.5977 63.6033 44.1005 61.1005C46.6033 58.5977 49.9612 57.1358 53.4985 57.009C57.0357 56.8822 60.4897 58.0999 63.1653 60.4171C65.8409 62.7343 67.5395 65.9789 67.9192 69.498C68.2989 73.0171 67.3317 76.5494 65.212 79.384L75.412 89.584C75.7875 89.959 75.9987 90.4679 75.9991 90.9986C75.9995 91.5293 75.789 92.0385 75.414 92.414C75.039 92.7896 74.5301 93.0007 73.9994 93.0011C73.4687 93.0015 72.9595 92.791 72.584 92.416L62.384 82.216V82.212ZM64 71C64 68.3478 62.9464 65.8043 61.0711 63.9289C59.1957 62.0536 56.6522 61 54 61C51.3478 61 48.8043 62.0536 46.9289 63.9289C45.0536 65.8043 44 68.3478 44 71C44 73.6522 45.0536 76.1957 46.9289 78.0711C48.8043 79.9464 51.3478 81 54 81C56.6522 81 59.1957 79.9464 61.0711 78.0711C62.9464 76.1957 64 73.6522 64 71Z" fill="#B5C715"/>
</g>
<defs>
<filter id="filter0_d_311_1137" x="0" y="0" width="139" height="139" filterUnits="userSpaceOnUse" color-interpolation-filters="sRGB">
<feFlood flood-opacity="0" result="BackgroundImageFix"/>
<feColorMatrix in="SourceAlpha" type="matrix" values="0 0 0 0 0 0 0 0 0 0 0 0 0 0 0 0 0 0 127 0" result="hardAlpha"/>
<feOffset dy="2"/>
<feGaussianBlur stdDeviation="5"/>
<feComposite in2="hardAlpha" operator="out"/>
<feColorMatrix type="matrix" values="0 0 0 0 0 0 0 0 0 0 0 0 0 0 0 0 0 0 0.1 0"/>
<feBlend mode="normal" in2="BackgroundImageFix" result="effect1_dropShadow_311_1137"/>
<feBlend mode="normal" in="SourceGraphic" in2="effect1_dropShadow_311_1137" result="shape"/>
</filter>
</defs>
</svg>
