<svg width="139" height="139" viewBox="0 0 139 139" fill="none" xmlns="http://www.w3.org/2000/svg">
<g filter="url(#filter0_d_311_1139)">
<circle cx="69.5" cy="67.5" r="59.5" fill="#F8FFEC"/>
</g>
<g opacity="0.7">
<path d="M51.7744 40.511L49.1344 43.1472L53.0625 47.0735L55.6988 44.4372L51.7725 40.511H51.7744ZM86.2275 40.511L82.2994 44.4372L84.9375 47.0735L88.8638 43.1491L86.2256 40.511H86.2275ZM69 41.681C68.3813 41.6885 67.755 41.7241 67.125 41.801C67.1063 41.801 67.0875 41.7972 67.0688 41.801C59.4638 42.6729 53.4113 48.8172 52.3594 56.3885C51.5194 62.4822 54.0319 68.0079 58.2188 71.5666C59.9314 73.0283 61.0898 75.034 61.5 77.2479V88.4979H65.775C66.4275 89.6172 67.6181 90.3729 69 90.3729C70.3819 90.3729 71.5725 89.6172 72.225 88.4979H76.5V80.9979H76.6763V78.7704C76.6763 76.0216 78.105 73.2504 80.4263 71.096C83.5312 67.9872 85.875 63.5716 85.875 58.4997C85.875 49.2372 78.2513 41.5947 69 41.681ZM69 45.431C76.2469 45.3297 82.125 51.2622 82.125 58.4997C82.125 62.426 80.3063 65.8835 77.7881 68.3997L77.8481 68.4597C75.3457 70.7673 73.7276 73.8762 73.2731 77.2497H65.0719C64.6594 74.036 63.2812 70.9254 60.6769 68.6941C57.3637 65.8816 55.3894 61.6441 56.0494 56.8591C56.8688 50.9529 61.6613 46.2035 67.5338 45.5529C68.0186 45.4853 68.5069 45.4452 68.9963 45.4329L69 45.431ZM42.75 58.4997V62.2497H48.375V58.4997H42.75ZM89.625 58.4997V62.2497H95.25V58.4997H89.625ZM53.0625 73.676L49.1363 77.6004L51.7744 80.2385L55.6969 76.3122L53.0625 73.676ZM84.9375 73.676L82.3013 76.3122L86.2256 80.2385L88.8638 77.6004L84.9375 73.676ZM65.25 80.9997H72.75V84.7497H65.25V80.9997Z" fill="#B5C715"/>
</g>
<defs>
<filter id="filter0_d_311_1139" x="0" y="0" width="139" height="139" filterUnits="userSpaceOnUse" color-interpolation-filters="sRGB">
<feFlood flood-opacity="0" result="BackgroundImageFix"/>
<feColorMatrix in="SourceAlpha" type="matrix" values="0 0 0 0 0 0 0 0 0 0 0 0 0 0 0 0 0 0 127 0" result="hardAlpha"/>
<feOffset dy="2"/>
<feGaussianBlur stdDeviation="5"/>
<feComposite in2="hardAlpha" operator="out"/>
<feColorMatrix type="matrix" values="0 0 0 0 0 0 0 0 0 0 0 0 0 0 0 0 0 0 0.1 0"/>
<feBlend mode="normal" in2="BackgroundImageFix" result="effect1_dropShadow_311_1139"/>
<feBlend mode="normal" in="SourceGraphic" in2="effect1_dropShadow_311_1139" result="shape"/>
</filter>
</defs>
</svg>
