<svg width="139" height="139" viewBox="0 0 139 139" fill="none" xmlns="http://www.w3.org/2000/svg">
<g filter="url(#filter0_d_311_1140)">
<circle cx="69.5" cy="67.5" r="59.5" fill="#F8FFEC"/>
</g>
<path d="M89.2012 87.215H74.5194C74.3411 87.1856 74.1629 87.1487 73.9798 87.1303C73.1992 87.053 72.4041 87.0198 71.6332 86.8983C65.4945 85.9515 60.5461 83.5682 56.8311 79.7077C56.5612 79.4241 56.2867 79.3025 55.8193 79.3025C51.9645 79.3025 48.1146 79.262 44.2599 79.2841C43.2095 79.2914 42.4385 79.0741 42 78.319V77.6264C42.3373 77.3059 42.6361 76.9597 43.0167 76.6687C44.4623 75.5599 45.9319 74.4658 47.3967 73.3681C47.522 73.2723 47.6425 73.1655 47.7629 73.0623C47.6569 72.9555 47.5798 72.8782 47.4931 72.8008C44.9586 70.4838 43.2914 67.8462 42.506 64.8919C42.2843 64.052 42.1686 63.1974 42.0048 62.3465V59.7568C42.0916 59.2927 42.159 58.8249 42.265 58.3607C43.2528 53.9219 45.9367 50.2014 50.4611 47.3133C56.171 43.6665 62.7721 42.3109 70.0624 43.3276C77.343 44.3443 82.8119 47.446 86.5028 52.3526C86.7775 52.7173 87.1244 52.9678 87.5966 53.1741C94.034 55.9921 97.9514 60.1952 99.3776 65.7539C99.5848 66.568 99.6763 67.3968 99.8209 68.222V70.2075C99.7871 70.3327 99.739 70.4543 99.7245 70.5795C99.4161 73.4528 98.2694 76.1161 96.2746 78.5547C95.6 79.3799 94.8242 80.1534 94.2026 80.8349C95.7253 82.0542 97.2334 83.2551 98.7319 84.4707C99.1222 84.7875 99.4595 85.1485 99.8209 85.4874V86.0915C99.4498 86.8725 98.7174 87.1561 97.6381 87.1377C95.2 87.1045 92.7571 87.1303 90.319 87.1451C89.948 87.1487 89.577 87.1893 89.2012 87.215ZM47.8737 76.6981C48.1339 76.6981 48.2833 76.6981 48.4374 76.6981C52.2006 76.7165 55.9638 76.7497 59.7269 76.7497C62.247 76.7497 64.7766 76.7976 67.287 76.6723C71.426 76.466 75.2181 75.3941 78.4127 73.3644C84.8694 69.2534 87.3654 63.982 85.5729 57.6866C82.4795 46.8271 65.3693 41.9904 53.7184 48.6321C49.2614 51.1702 46.4571 54.5334 45.6427 58.7401C44.655 63.8457 46.5197 68.3251 51.2032 72.0825C52.0512 72.764 52.0561 73.4528 51.1984 74.1269C50.9478 74.3221 50.6876 74.51 50.437 74.7053C49.6131 75.3462 48.7844 75.9908 47.8737 76.6981ZM60.7581 79.3541C61.1243 79.6488 61.37 79.8661 61.635 80.065C65.6005 83.0525 70.3708 84.5812 75.9313 84.618C79.3524 84.6401 82.7782 84.5923 86.204 84.5812C87.3701 84.5775 88.5313 84.5812 89.6974 84.5812H93.8654C93.8365 84.4744 93.8412 84.4412 93.822 84.4265C92.9161 83.734 92.0392 83.0193 91.0948 82.3599C89.8179 81.4722 89.4951 80.8128 90.9985 79.5825C94.381 76.8234 96.2071 73.5117 96.3854 69.736C96.5974 65.2861 94.6604 61.4145 90.6178 58.1802C90.1263 57.7861 89.577 57.4324 89.0518 57.0604C88.9747 57.2409 88.9843 57.3551 89.0132 57.4656C89.6348 59.6979 89.7746 61.9523 89.1916 64.192C87.3027 71.4157 81.7471 76.2119 72.6355 78.5694C69.5276 79.3725 66.28 79.4167 63.0372 79.3541C62.3337 79.3393 61.6206 79.3541 60.7581 79.3541Z" fill="#B5C715"/>
<path d="M65.7119 54.4854C68.9803 54.4854 72.244 54.4813 75.5125 54.4895C76.8132 54.4935 77.6362 55.487 77.1538 56.4683C76.8842 57.0139 76.3781 57.303 75.6923 57.3437C75.3612 57.3641 75.03 57.3518 74.6942 57.3518C68.4364 57.3518 62.1786 57.3518 55.9256 57.3518C55.0079 57.3518 54.412 57.0506 54.1423 56.4602C53.693 55.483 54.4781 54.4976 55.7458 54.4935C58.3851 54.4813 61.0244 54.4895 63.6638 54.4895C64.3449 54.4854 65.0308 54.4854 65.7119 54.4854Z" fill="#B5C715"/>
<path d="M65.7184 59.6551C68.9864 59.6551 72.2496 59.651 75.5176 59.6592C76.8182 59.6633 77.641 60.6655 77.1492 61.6392C76.8702 62.2014 76.3405 62.4907 75.6311 62.5151C75.1345 62.5314 74.6332 62.5192 74.1367 62.5192C68.0642 62.5192 61.9917 62.5151 55.924 62.5233C55.1578 62.5233 54.5382 62.3236 54.193 61.7084C53.6396 60.7185 54.4342 59.6673 55.7537 59.6592C58.5771 59.647 61.4006 59.6551 64.224 59.6551C64.7206 59.6551 65.2218 59.6551 65.7184 59.6551Z" fill="#B5C715"/>
<path d="M65.6403 67.6889C62.3586 67.6889 59.0721 67.693 55.7857 67.6848C54.4616 67.6807 53.6436 66.6419 54.1827 65.6559C54.4759 65.1182 54.996 64.8411 55.6816 64.8289C56.547 64.8126 57.4171 64.8248 58.2824 64.8248C64.0041 64.8248 69.7211 64.8248 75.4429 64.8248C76.3035 64.8248 76.904 65.1426 77.1688 65.7211C77.6133 66.6948 76.8189 67.6767 75.5516 67.6848C72.7097 67.697 69.8677 67.6889 67.0258 67.6889H65.6403Z" fill="#B5C715"/>
<defs>
<filter id="filter0_d_311_1140" x="0" y="0" width="139" height="139" filterUnits="userSpaceOnUse" color-interpolation-filters="sRGB">
<feFlood flood-opacity="0" result="BackgroundImageFix"/>
<feColorMatrix in="SourceAlpha" type="matrix" values="0 0 0 0 0 0 0 0 0 0 0 0 0 0 0 0 0 0 127 0" result="hardAlpha"/>
<feOffset dy="2"/>
<feGaussianBlur stdDeviation="5"/>
<feComposite in2="hardAlpha" operator="out"/>
<feColorMatrix type="matrix" values="0 0 0 0 0 0 0 0 0 0 0 0 0 0 0 0 0 0 0.1 0"/>
<feBlend mode="normal" in2="BackgroundImageFix" result="effect1_dropShadow_311_1140"/>
<feBlend mode="normal" in="SourceGraphic" in2="effect1_dropShadow_311_1140" result="shape"/>
</filter>
</defs>
</svg>
