<svg width="52" height="52" viewBox="0 0 52 52" fill="none" xmlns="http://www.w3.org/2000/svg">
<path id="Vector" d="M25.4432 0H27.8804C28.4162 0.283579 28.9782 0.525154 29.4772 0.861248C31.7516 2.38942 32.0823 5.91316 30.1179 7.83519C29.5926 8.34458 28.9677 8.74893 28.3952 9.20056C29.9604 10.671 32.1663 10.671 34.1255 8.98001C34.7978 8.3971 35.5122 8.08726 36.4209 8.10826C37.5765 8.13452 38.3696 8.70167 38.8528 9.66269C39.3255 10.6027 39.3099 11.6057 38.7163 12.5142C37.9337 13.7063 36.7046 14.3785 35.4912 15.0034C33.553 16.0012 31.4521 16.4318 29.2618 16.3951C29.0359 16.3898 28.6576 16.5001 28.5998 16.6524C28.1849 17.7342 27.833 18.8423 27.4601 19.9451C27.6019 20.0238 27.6911 20.0816 27.7909 20.1341C29.5558 21.0374 30.5538 22.4815 30.4277 24.4561C30.3437 25.7584 29.9392 27.045 29.6293 28.3317C29.3982 29.2927 29.0938 30.2327 28.8207 31.1832C30.2336 29.9544 31.5203 28.6572 32.8124 27.3759C33.4217 26.772 33.9995 26.772 34.6141 27.3759C35.528 28.2791 36.4316 29.1929 37.3455 30.1014C37.5766 30.3325 37.8076 30.5635 37.9546 30.7053C39.5041 29.1561 40.9802 27.6805 42.5455 26.1155C42.2145 25.8162 41.8048 25.4959 41.4529 25.123C40.9434 24.5874 40.9907 23.5108 42.0623 23.2902C44.72 22.7493 47.3777 22.2085 50.0354 21.6675C50.7498 21.5205 51.48 21.2842 52 22.0719V23.4268C51.8634 23.9729 51.7111 24.5138 51.5955 25.06C51.1386 27.2604 50.7026 29.4712 50.2193 31.6663C50.1615 31.9289 49.8569 32.2702 49.6048 32.328C49.1163 32.4436 48.6015 32.4225 48.2181 31.9184C47.8872 31.4825 47.4619 31.1254 47.0627 30.7211C44.531 33.2575 42.0359 35.71 39.5935 38.2097C38.2278 39.6066 37.8707 39.6696 36.484 38.1887C35.5963 37.2434 34.6561 36.3454 33.7054 35.3949C32.0194 37.0911 30.4015 38.7243 28.7732 40.347C28.2427 40.8774 27.5599 40.8932 27.1187 40.4205C26.7038 39.9742 26.7249 39.2967 27.2134 38.8083C29.0885 36.9178 30.9742 35.0378 32.8598 33.163C33.4324 32.5958 34.0257 32.6116 34.6087 33.1945C35.6224 34.1923 36.6204 35.2058 37.6289 36.2036C37.7655 36.3401 37.9179 36.4609 38.128 36.6447C38.3223 36.4189 38.4695 36.2141 38.6481 36.0408C41.1326 33.5516 43.638 31.0782 46.1014 28.5627C46.6792 27.9746 47.5142 27.8853 48.0237 28.5995C48.1655 28.799 48.2445 29.0459 48.3548 29.2664C48.4283 29.1824 48.5018 29.1036 48.5753 29.0196C48.9063 27.3496 49.237 25.6797 49.5784 23.9729C47.8451 24.33 46.2221 24.6661 44.5518 25.0127C45.3922 26.105 45.4553 26.5147 44.8565 27.1186C42.8868 29.1036 40.9118 31.0834 38.9159 33.0475C38.3434 33.6094 37.6395 33.5516 37.1562 33.0317C36.3526 32.1757 35.4912 31.3775 34.6823 30.532C34.3777 30.2117 34.1307 29.8388 33.9627 29.6235C27.6596 35.9253 21.53 42.0537 15.4319 48.1507C15.789 48.513 16.2093 48.9436 16.6663 49.411C16.8501 49.2062 17.0391 48.9804 17.2492 48.7756C18.6201 47.3997 19.9963 46.0343 21.362 44.6585C21.7717 44.2436 22.2917 44.0808 22.7382 44.4431C23.0323 44.6847 23.2266 45.1626 23.2581 45.5565C23.2791 45.8138 22.9797 46.1394 22.7538 46.3704C20.9155 48.2557 19.0562 50.1252 17.202 52H15.9833C15.0431 51.0337 14.1031 50.0675 13.1523 49.1012C12.3802 48.3187 12.3696 47.8251 13.1364 47.0584C16.6136 43.5819 20.0907 40.1002 23.5784 36.629C23.7517 36.4557 23.9776 36.3349 24.235 36.1511C22.3546 35.3214 22.0554 33.9612 22.234 32.6641C22.5176 30.5898 22.9009 28.5312 23.237 26.4674C23.174 26.4201 23.1162 26.3729 23.0531 26.3256C22.8641 26.5304 22.612 26.6984 22.4912 26.94C20.0646 31.7241 17.6536 36.5134 15.2375 41.3028C14.7857 42.1955 14.1345 42.7994 13.1313 43.0883C11.3034 43.6187 9.18667 42.122 9.19192 40.242C9.19717 39.0762 9.72757 38.1099 10.1373 37.0964C10.3789 36.4977 11.0406 36.6447 11.5186 36.7392C11.9021 36.8128 12.1332 37.1804 12.0544 37.6267C11.9756 38.0574 11.8812 38.488 11.7761 38.9134C11.6606 39.3597 11.3821 39.8166 11.4399 40.2315C11.4767 40.5255 11.9127 40.9247 12.2332 40.9982C12.8057 41.1242 13.1418 40.6411 13.3834 40.1684C15.164 36.65 16.9393 33.1262 18.7147 29.6025C19.4816 28.0796 20.2484 26.5514 21.0047 25.0232C21.2673 24.4981 21.5931 24.183 22.2496 24.2355C23.0112 24.2985 23.7833 24.246 24.5502 24.2513C25.317 24.2565 25.6479 24.5453 25.5902 25.3016C25.5166 26.2258 25.3433 27.1448 25.1962 28.0586C24.9441 29.655 24.6921 31.2462 24.4137 32.8374C24.3034 33.4676 24.5187 33.9927 25.0859 34.0662C25.6532 34.1398 25.8738 33.7039 26.0051 33.226C26.73 30.595 27.439 27.9536 28.1849 25.3278C28.6944 23.5423 27.5968 21.9406 25.7689 21.8408C23.4053 21.7096 21.031 21.8041 18.6621 21.8251C18.494 21.8251 18.2314 21.9826 18.1684 22.1297C17.3805 24.141 16.6241 26.1628 15.852 28.1794C15.5473 28.9828 15.248 29.7863 14.8961 30.5688C14.6545 31.0992 14.2394 31.3407 13.6091 31.1569C12.9473 30.9679 12.8004 30.511 12.8792 29.9281C12.9212 29.6288 13.0578 29.3399 13.1629 29.0511C13.4255 28.3369 13.6985 27.628 13.9664 26.919C13.1365 27.5544 12.4379 28.2581 11.7341 28.9566C10.5627 30.1277 9.08165 30.1329 7.91033 28.9671C5.62549 26.6879 3.33537 24.4141 1.07154 22.1139C0.661839 21.699 0.351919 21.1844 0 20.717V19.0943C0.210101 18.816 0.388666 18.5114 0.635535 18.2646C2.49493 16.3898 4.39103 14.5518 6.21891 12.6455C6.89123 11.9418 8.71911 11.8998 9.37042 12.6613C10.006 13.407 10.7414 14.0634 11.2719 14.5991C12.1596 14.1317 12.9003 13.6433 13.7091 13.344C15.7366 12.5878 17.5697 11.5585 19.0719 9.98304C19.5499 9.48415 19.9912 8.94324 20.5269 8.52837C21.194 8.01898 21.9449 7.61463 22.6697 7.16301C22.6119 7.03697 22.5281 6.85841 22.444 6.67461C21.6929 5.03615 21.8242 3.45022 22.7959 1.9588C23.4105 0.987281 24.4137 0.456877 25.4432 0ZM18.9091 19.63C20.9471 19.63 22.8851 19.6457 24.8233 19.6037C25.0334 19.5985 25.3381 19.2886 25.4222 19.0523C25.9107 17.7552 26.3465 16.4318 26.793 15.119C27.1239 14.1527 27.2553 14.0687 28.29 14.0739C29.1725 14.0792 30.0653 14.1264 30.9425 14.0634C33.1433 13.9059 34.9976 12.9134 36.6784 11.5532C37.1354 11.1856 36.9987 10.4189 36.442 10.3296C36.1741 10.2824 35.8064 10.4767 35.5648 10.671C34.2885 11.7003 32.8808 12.4145 31.221 12.4355C29.3616 12.4617 27.77 11.7948 26.4516 10.4399C25.4904 9.45264 24.34 9.02202 22.9534 9.56817C21.7926 10.025 21.1887 10.8915 20.8893 12.0574C20.259 14.5518 19.5919 17.041 18.9091 19.63ZM4.12841 17.8392C3.49811 18.4747 2.90466 19.0366 2.37415 19.6457C2.26385 19.7718 2.25846 20.1761 2.36877 20.2917C4.72715 22.6863 7.10671 25.06 9.49661 27.4231C9.60691 27.5334 9.97965 27.5439 10.0952 27.4442C10.7255 26.8823 11.3139 26.2783 11.9285 25.6692C11.2246 24.9707 10.5996 24.3248 9.93774 23.7104C9.80117 23.5843 9.52809 23.5266 9.33375 23.5633C7.30102 23.9099 5.6359 22.2242 5.97731 20.6855C6.16115 19.861 5.74089 19.4672 5.25765 19.0051C4.87947 18.648 4.53286 18.2593 4.12841 17.8392ZM13.5199 24.078C14.0871 23.5003 14.6754 22.9384 15.2059 22.3292C15.3162 22.1979 15.3321 21.7988 15.2218 21.6833C12.7636 19.1784 10.2791 16.6997 7.80518 14.2157C7.07508 14.9404 6.3922 15.6231 5.65159 16.3583C5.96675 16.6524 6.29768 16.9307 6.59182 17.2353C6.88596 17.5399 7.15389 17.8707 7.43227 18.1858C8.51429 17.188 8.85045 17.188 9.79591 18.1386C10.4315 18.774 11.0723 19.4094 11.7079 20.0501C12.1281 20.4755 12.1701 21.0794 11.8077 21.5468C11.6869 21.7043 11.5293 21.8408 11.3822 21.9931C12.0808 22.6706 12.774 23.348 13.5199 24.078ZM26.6881 7.17876C28.1221 7.08948 29.162 6.10746 29.2303 4.61604C29.2933 3.20865 28.0484 2.20561 26.4411 2.14785C25.4537 2.11634 24.1142 3.29792 24.1142 4.70531C24.1142 6.00242 25.4012 7.18401 26.6881 7.17876ZM18.1422 13.7273C18.0162 13.7641 17.9269 13.7851 17.8481 13.8166C16.4824 14.41 15.1009 14.9772 13.7615 15.6231C13.5251 15.7386 13.2995 16.1903 13.3257 16.4633C13.3677 16.8992 13.751 17.0988 14.208 16.9307C15.0536 16.6261 15.8784 16.2428 16.7399 16.0012C17.9479 15.6651 17.9794 14.6989 18.1422 13.7273ZM16.5716 19.9503C16.7082 19.3726 16.8134 18.921 16.9604 18.3119C16.4089 18.5272 16.0044 18.6847 15.5632 18.858C15.6787 18.984 15.7365 19.0523 15.7943 19.1153C16.0254 19.3674 16.2512 19.6142 16.5716 19.9503ZM8.58254 20.0133C8.39345 20.3967 8.17283 20.6488 8.16757 20.9113C8.16232 21.0689 8.51947 21.3787 8.6718 21.3525C8.92917 21.3104 9.14972 21.0584 9.4071 20.8798C9.11821 20.5805 8.91871 20.3704 8.58254 20.0133Z" fill="#B5C715"/>
</svg>
