<svg width="60" height="57" viewBox="0 0 60 57" fill="none" xmlns="http://www.w3.org/2000/svg">
<g id="Group">
<path id="Vector" d="M0.00591571 33.2783C1.53476 30.1849 4.51744 31.5328 6.91744 31.1065C7.44821 27.8288 8.58482 24.9429 10.881 22.5235C11.4002 21.9762 11.4521 20.8414 11.4232 19.9831C11.3886 18.9174 10.8867 17.8575 10.881 16.7975C10.8694 15.5763 11.5444 15.0636 12.7329 15.8355C12.9059 15.9507 13.05 16.112 13.2346 16.1984C14.9884 17.0337 16.448 18.0188 18.7154 16.7284C22.7596 14.43 27.3636 13.8482 32.002 14.165C40.8347 14.7698 50.8041 19.7642 53.4406 29.7989C53.6252 30.5075 53.7866 31.2218 53.977 32.0282C55.7596 31.4752 56.8847 30.2713 57.5078 28.6065C57.9578 27.4083 58.6962 26.815 60 27.0454V29.1249C58.4135 30.7552 56.8154 32.3796 55.2404 34.0213C54.8481 34.4303 54.2828 34.8566 54.202 35.3405C53.5501 39.1194 52.5751 42.7773 49.9731 45.7209C48.8597 46.9824 48.7443 48.3246 48.7213 49.8512C48.6866 52.236 48.4731 54.6151 48.3289 56.9999H35.827V54.1197H22.9096V56.9999H11.2444C11.1059 55.1738 10.875 53.3477 10.852 51.5159C10.8173 48.6011 11.0135 45.7842 9.02316 43.169C8.002 41.8268 7.29251 40.8994 5.54443 41.1816C3.16751 41.5676 1.275 40.7957 0 38.6931V33.2783H0.00591571ZM20.5732 18.18C15.277 20.657 10.8406 24.05 9.27133 29.9717C8.7521 31.9246 8.30783 33.2955 6.34052 32.9902V39.2403C9.16744 38.624 11.9597 39.9834 14.5039 37.9788C15.5193 37.1781 16.6098 38.4454 16.4829 40.1563C14.4925 40.571 12.5192 40.9858 10.35 41.4408C10.8692 42.2127 11.25 43.0192 11.8385 43.6183C14.9942 46.8211 17.7291 50.168 15.9521 55.2199H20.7692C20.7923 54.7072 20.8271 54.304 20.8329 53.895C20.8848 51.3777 21.3117 51.0148 23.706 51.6139C29.2271 53.0021 34.6559 52.9157 39.9347 50.5827C41.4578 49.9087 41.9655 50.7095 42.0636 51.9998C42.1501 53.0713 42.0807 54.1542 42.0807 55.2314H46.6674C46.6674 52.9445 46.5461 50.7325 46.7192 48.5493C46.8058 47.4202 47.175 46.1529 47.8384 45.26C50.1057 42.2012 51.8828 38.9293 52.0501 35.0928C52.327 28.6987 49.0386 23.9981 44.129 20.4209C39.1097 16.763 33.2714 15.6627 27.1906 16.3021C24.9175 16.5383 22.7309 17.5752 20.5098 18.2492L20.5732 18.18ZM2.71165 39.1194C2.97704 39.1079 3.24235 39.0963 3.50774 39.0848C3.62312 38.8602 3.83099 38.6413 3.83676 38.4166C3.89446 36.9765 3.96346 35.5306 3.89423 34.0962C3.88269 33.8197 3.30597 33.405 2.94828 33.3646C2.7002 33.3358 2.14052 33.8543 2.15783 34.102C2.27321 35.7783 2.50973 37.4489 2.71165 39.1194ZM13.0616 55.3236C14.7058 54.5517 14.5962 49.6956 13.0616 48.5551V55.3236ZM39.9694 53.2383C39.8367 53.077 39.6981 52.91 39.5654 52.7487C39.0231 53.342 38.4521 53.918 37.9502 54.5517C37.8521 54.6784 38.0308 55.0183 38.1 55.3524C38.7923 55.2948 39.3694 55.2487 39.9694 55.2026V53.2383Z" fill="#B5C715"/>
<path id="Vector_2" d="M32.0869 0C36.3331 2.09681 37.6023 5.67985 35.3811 9.27439C34.3196 10.9853 31.4466 12.0855 29.3927 11.5613C26.7216 10.8758 25.1928 9.03244 24.9793 6.60152C24.6909 3.27772 26.1677 1.18666 29.1677 0H32.0869ZM30.5928 9.56242C32.387 9.58546 34.4927 7.61535 34.5388 5.86993C34.585 4.18211 32.4907 2.11409 30.6849 2.07952C28.9426 2.04496 26.762 4.07267 26.7101 5.77201C26.6639 7.42527 28.8274 9.54513 30.5928 9.56242Z" fill="#B5C715"/>
<path id="Vector_3" d="M20.5029 18.2434C21.8991 18.6006 23.3934 16.5211 24.68 18.3472C26.9242 16.6651 29.5492 16.6363 32.1453 16.7169C33.2703 16.7515 34.4126 17.1432 35.4742 17.5522C35.8319 17.6905 36.132 18.3875 36.1435 18.831C36.1493 19.0557 35.3414 19.5741 35.0702 19.4762C32.1164 18.4393 29.203 18.4854 26.2665 19.5165C25.955 19.626 25.5279 19.4186 25.0952 19.3437C25.476 21.6421 25.955 23.8772 26.1569 26.1411C26.2146 26.815 25.5108 27.5524 25.1589 28.2609C24.83 27.6791 24.3279 27.1376 24.2067 26.5155C23.7798 24.3553 23.4855 22.1663 23.0413 19.361C21.0394 21.0488 19.5395 22.3103 17.7741 23.7908C17.0875 20.6283 19.6607 19.8679 20.5722 18.1743C20.5722 18.1801 20.5029 18.2434 20.5029 18.2434Z" fill="#B5C715"/>
<path id="Vector_4" d="M16.4017 26.216C17.4632 26.3773 18.3458 27.1492 18.3516 28.837C18.3574 30.5363 17.342 31.314 15.8997 31.5329C14.5381 31.7403 13.0612 30.2541 13.0382 28.8888C13.0093 27.1722 14.0651 26.1814 16.4017 26.216Z" fill="#B5C715"/>
</g>
</svg>
