<svg width="52" height="53" viewBox="0 0 52 53" fill="none" xmlns="http://www.w3.org/2000/svg">
<g id="Group">
<path id="Vector" d="M0.322266 29.8852C0.72531 28.9524 1.13978 28.0254 1.52555 27.0869C1.85375 26.2923 2.98234 25.2905 4.18572 25.7108C4.73846 25.9008 5.38906 26.206 5.87847 26.0678C6.37364 25.9296 6.71331 25.2847 7.13939 24.8817C7.42728 24.6053 7.77838 24.3923 8.02021 24.0929C8.15839 23.9201 8.20447 23.6092 8.17568 23.3789C8.08931 22.734 7.90515 22.0949 7.83606 21.45C7.73818 20.5749 8.22193 19.9357 8.94741 19.5845C10.0817 19.0375 11.2621 18.5712 12.4482 18.1451C13.2255 17.8629 14.2158 18.3178 14.7513 19.0893C14.9125 19.3197 15.0565 19.5672 15.1831 19.8206C15.7359 20.9031 15.7877 20.8915 17.0314 20.6843C17.515 20.6036 18.0388 20.7821 18.5397 20.7649C18.7642 20.7533 19.0466 20.5921 19.1905 20.4079C19.4842 20.0279 19.6797 19.5845 19.9446 19.1815C20.5722 18.2257 21.6375 17.8514 22.6854 18.2545C23.5836 18.5942 24.4474 19.0087 25.3456 19.36C26.7677 19.9127 27.2743 21.0297 26.7676 22.4807C26.4164 23.4825 26.7043 24.0295 27.3549 24.8011C28.3337 25.9526 29.3126 26.2405 30.6887 25.7223C31.5178 25.4114 32.5831 25.9238 32.9516 26.7242C33.441 27.7721 33.9074 28.8315 34.3278 29.9082C34.7711 31.0483 34.2817 32.194 33.1416 32.8504C32.8595 33.0117 32.5946 33.2362 32.2895 33.3341C31.8346 33.4838 31.7768 33.7774 31.7941 34.192C31.8229 34.906 31.7653 35.6315 31.8172 36.3454C31.8344 36.593 32.0073 36.9039 32.2088 37.0594C32.704 37.4509 33.2911 37.7273 33.7748 38.1303C34.4887 38.7291 34.6673 39.5237 34.3449 40.3931C33.9534 41.4353 33.5618 42.4717 33.1127 43.4908C32.6348 44.5618 31.4947 45.0972 30.3431 44.7C29.2607 44.3257 28.4143 44.343 27.7291 45.4024C27.4873 45.7767 27.0268 46.0012 26.7159 46.3409C26.5892 46.4791 26.5144 46.7497 26.5432 46.9455C26.6123 47.4407 26.6813 47.9531 26.8713 48.4137C27.2859 49.4271 26.3014 50.7744 25.4895 51.0796C24.5395 51.4366 23.6238 51.8742 22.691 52.2772H21.0849C20.7509 52.0123 20.3708 51.782 20.0944 51.4654C19.795 51.1256 19.5704 50.7111 19.3632 50.308C19.1559 49.8992 18.9082 49.6862 18.4073 49.7207C17.6991 49.7726 16.9794 49.7553 16.2712 49.7265C15.8336 49.7092 15.6034 49.8877 15.3903 50.262C14.9585 51.0278 14.5901 51.8684 13.7206 52.283H12.1142C11.0663 51.8281 9.98385 51.4366 8.98199 50.8896C8.55016 50.6535 8.19303 50.1583 7.96848 49.6977C7.55392 48.8628 8.02608 48.0395 8.13548 47.2046C8.17578 46.911 8.07218 46.5309 7.89369 46.2891C7.65187 45.9609 7.15665 45.7939 6.98392 45.4485C6.36784 44.2278 5.42945 44.3315 4.38729 44.6942C4.34699 44.7115 4.31233 44.7518 4.27203 44.7575C3.33351 44.8785 2.16479 44.7921 1.65235 43.5254C1.23779 42.5062 0.771384 41.5101 0.333792 40.5025V38.8961C0.759868 38.0094 1.6636 37.6927 2.39484 37.1688C2.6194 37.0076 2.8326 36.6794 2.85563 36.4145C2.91897 35.7063 2.83264 34.9866 2.89021 34.2784C2.93628 33.7256 2.7059 33.455 2.24528 33.2189C1.47373 32.8217 0.719418 32.3726 0.327888 31.5319V29.8852H0.322266ZM2.78647 30.6107C3.22406 30.887 3.65013 31.1519 4.07045 31.4225C5.28534 32.1998 5.4927 32.7583 5.30269 34.2093C5.21632 34.8829 5.22198 35.6027 5.34289 36.2706C5.55593 37.4451 5.29692 38.1994 4.28355 38.8673C3.77687 39.2013 3.2645 39.518 2.78085 39.8289C3.13783 40.6868 3.47756 41.5044 3.81152 42.299C4.42184 42.132 4.95715 41.9362 5.50989 41.8383C6.40235 41.6771 7.20273 41.8729 7.85911 42.5638C8.5558 43.3008 9.28703 44.0033 10.0068 44.7172C10.4559 45.1606 10.8358 45.6673 10.7667 46.3237C10.6803 47.1413 10.5018 47.9416 10.3579 48.8053C11.1179 49.1162 11.9299 49.4501 12.7648 49.7956C13.0872 49.2774 13.3923 48.7477 13.7263 48.241C14.3366 47.3082 15.1946 47.0434 16.3001 47.2276C17.0141 47.3485 17.774 47.3543 18.488 47.2391C19.6338 47.0549 20.5031 47.3773 21.0961 48.3849C21.3782 48.8628 21.6834 49.335 21.9713 49.8013C22.8177 49.4501 23.6353 49.1162 24.4299 48.788C24.2744 48.1201 24.1708 47.5385 24.0096 46.98C23.7793 46.2027 23.9925 45.5579 24.5395 45.0051C25.3111 44.2163 26.1401 43.4793 26.8598 42.6502C27.5162 41.8959 28.2878 41.6886 29.209 41.8614C29.5948 41.9305 29.9746 42.0399 30.3431 42.1665C30.7462 42.299 30.994 42.2184 31.1495 41.7865C31.3855 41.1417 31.6733 40.5083 31.944 39.8519C31.6388 39.6561 31.3796 39.4431 31.0859 39.3164C29.825 38.7637 29.2321 37.8712 29.376 36.4491C29.4739 35.453 29.4221 34.4396 29.3875 33.4377C29.353 32.4992 29.8367 31.9119 30.5737 31.4571C31.0343 31.1749 31.4947 30.8928 31.9496 30.6164C31.7538 30.1673 31.5813 29.77 31.4143 29.367C31.2473 28.9697 31.086 28.5667 30.9133 28.1291C30.4757 28.2615 30.061 28.3882 29.6465 28.5091C28.3337 28.9064 27.522 28.5954 26.6641 27.5303C26.1805 26.9257 25.6045 26.3787 24.9941 25.9008C24.1362 25.2271 23.7737 24.398 24.0385 23.3271C24.171 22.7801 24.3149 22.2388 24.4588 21.6803C23.6125 21.3291 22.7947 20.9952 21.9828 20.6555C21.6719 21.1679 21.4013 21.64 21.1076 22.1007C20.6643 22.7801 20.1003 23.2349 19.2136 23.2119C17.9641 23.1831 16.7146 23.1889 15.4651 23.2062C14.6475 23.2177 14.0947 22.8434 13.6917 22.164C13.3865 21.6458 13.0584 21.1391 12.7532 20.6439C11.9126 21.0009 11.1583 21.3234 10.3292 21.6746C10.4674 22.2504 10.6169 22.7974 10.7321 23.3444C10.8991 24.162 10.8072 24.9105 10.1451 25.5323C9.4196 26.206 8.69979 26.8969 8.04916 27.6397C7.21429 28.5839 6.28718 28.9639 5.06653 28.4515C4.69803 28.296 4.27199 28.273 3.80561 28.1751C3.44863 28.9812 3.11467 29.8046 2.78647 30.6107Z" fill="#B5C715"/>
<path id="Vector_2" d="M51.7559 15.8188C51.2205 16.694 50.357 16.9243 49.4185 17.0395C49.2458 17.0625 49.0383 17.264 48.9462 17.4368C48.7044 17.9032 48.5202 18.3926 48.2956 18.905C48.5432 19.2908 48.8427 19.6938 49.073 20.1314C49.5336 21.0008 49.4128 21.6975 48.7219 22.3942C48.2497 22.8721 47.7256 23.304 47.3111 23.8222C46.5856 24.7434 45.3362 24.7089 44.4437 23.9776C44.2249 23.7934 43.9023 23.5112 43.7066 23.5631C43.079 23.7358 42.4687 23.9949 41.9045 24.3231C41.7375 24.421 41.7144 24.847 41.7144 25.1234C41.7202 26.0792 41.0985 26.9601 39.8606 27.0408C38.9163 27.0983 37.9605 27.0177 37.0162 26.9141C36.3599 26.845 35.7034 26.1138 35.6977 25.4516C35.6862 24.5361 35.3004 24.0179 34.4022 23.8394C34.1316 23.7818 33.884 23.6206 33.5846 23.4882C33.3486 23.6667 33.0952 23.8797 32.8303 24.0697C31.9897 24.6801 31.0224 24.7204 30.2278 24.064C29.5944 23.54 29.0012 22.9527 28.483 22.3136C27.8151 21.4845 27.8497 20.5057 28.5522 19.6766C28.9495 19.2102 29.151 18.8129 28.7307 18.2717C28.6328 18.145 28.5925 17.9492 28.5637 17.7822C28.4601 17.1143 27.9707 16.9704 27.4122 16.8898C26.203 16.717 25.6503 16.3025 25.5294 15.1624C25.4315 14.2527 25.5582 13.3142 25.61 12.3872C25.6619 11.4487 26.3471 10.9247 27.1186 10.919C28.2472 10.9074 28.5176 10.2165 28.8401 9.41043C29.0358 8.91526 28.9841 8.56404 28.6213 8.14372C27.7404 7.13035 27.821 6.20335 28.7653 5.2418C29.2605 4.73511 29.7152 4.18812 30.2219 3.69295C30.8668 3.04808 32.0126 3.07686 32.8936 3.73901C33.1412 3.92326 33.3772 4.11327 33.6018 4.286C34.1488 4.06145 34.7188 3.91751 35.1736 3.60659C35.4327 3.4281 35.6343 2.98475 35.6401 2.65079C35.6573 1.79864 36.1411 1.2862 36.7399 0.819824H40.4881C41.1041 1.15378 41.6571 1.60863 41.6686 2.33987C41.6801 3.20929 42.0426 3.61234 42.8429 3.92902C43.5396 4.2054 43.9658 4.23418 44.5531 3.70446C45.3304 3.00777 46.3841 3.06535 47.0578 3.71022C47.6739 4.29176 48.267 4.89057 48.8543 5.50665C49.3782 6.05364 49.5968 7.11882 49.1017 7.62551C48.2323 8.50645 48.2955 9.32982 48.9001 10.2453C49.0325 10.4468 49.2514 10.6886 49.4587 10.7174C50.4145 10.8671 51.3013 11.0744 51.7447 12.0705V15.8188H51.7559ZM31.6729 5.83485C31.2813 6.2091 30.9417 6.52577 30.5789 6.87124C30.648 6.95185 30.717 7.03246 30.7861 7.10731C31.6095 7.99401 31.7997 8.9383 31.1491 10.0323C30.8382 10.5505 30.671 11.1493 30.4637 11.725C30.1988 12.4563 29.5541 12.9572 28.7999 13.009C28.5062 13.0321 28.2182 13.1184 27.9188 13.176C27.9188 13.4006 27.9188 13.556 27.9188 13.7115C27.913 14.6327 27.9189 14.6097 28.8631 14.7536C29.6462 14.8746 30.2219 15.2603 30.4867 16.0895C30.7113 16.7919 31.0625 17.454 31.3619 18.1335C31.6613 18.8071 31.6268 19.452 31.2295 20.0738C31.0337 20.379 30.8208 20.6727 30.5674 21.0412C30.7286 21.1736 30.8958 21.2599 31.0051 21.3981C31.3852 21.8703 31.6845 22.0372 32.2545 21.519C32.934 20.903 33.7859 20.8684 34.6381 21.3118C35.2369 21.6227 35.8646 21.8991 36.5037 22.1006C37.2983 22.3539 37.6782 22.9239 37.8164 23.6724C38.0006 24.6685 37.972 24.6743 38.9508 24.6628C39.0832 24.6628 39.2156 24.6628 39.3941 24.6628C39.4575 24.3691 39.5437 24.0985 39.5668 23.8279C39.6243 23.0046 40.0965 22.4057 40.8738 22.1121C41.5647 21.853 42.2443 21.5478 42.918 21.2484C43.6607 20.9202 44.3573 20.926 45.008 21.4615C45.244 21.6515 45.4973 21.8185 45.7679 22.0142C46.1019 21.663 46.4187 21.329 46.7584 20.9663C46.7008 20.8627 46.649 20.7072 46.5512 20.6093C45.6875 19.7284 45.647 18.7841 46.2458 17.7304C46.5107 17.264 46.6028 16.7055 46.8216 16.2104C47.0865 15.5943 47.4205 15.03 48.1632 14.8803C48.6008 14.794 49.0326 14.6788 49.4472 14.5809V13.1875C49.1881 13.1242 48.9579 13.0263 48.7219 13.0263C47.743 13.0206 47.196 12.4448 46.8391 11.6272C46.5512 10.9708 46.3149 10.2914 46.0327 9.62922C45.7448 8.95556 45.7736 8.31069 46.1652 7.68885C46.3609 7.38369 46.5742 7.09004 46.8275 6.7273C46.6605 6.59487 46.4992 6.50275 46.3898 6.37032C46.004 5.89818 45.7047 5.73697 45.1404 6.24941C44.461 6.87125 43.6146 6.88851 42.751 6.45668C42.1925 6.17455 41.582 5.9903 40.9947 5.75999C40.1828 5.44332 39.5552 4.75238 39.5552 3.90022C39.5552 3.63537 39.4401 3.36476 39.3882 3.13445H37.9949C37.9373 3.40506 37.8222 3.64113 37.8394 3.87144C37.8912 4.67753 37.2234 5.43756 36.423 5.74848C35.7551 6.00758 35.0931 6.28394 34.4252 6.54304C33.7631 6.80214 33.1065 6.877 32.4904 6.40486C32.2083 6.19182 31.9147 6.00182 31.6729 5.83485Z" fill="#B5C715"/>
<path id="Vector_3" d="M25.2363 35.2513C25.386 39.5754 21.6491 43.2316 17.2156 43.1453C12.9203 43.0589 9.40791 39.7021 9.4367 35.1247C9.45973 31.0827 12.8281 27.0235 17.9008 27.3229C21.7469 27.5532 25.3687 30.7891 25.2363 35.2513ZM22.8235 35.188C22.8696 32.2976 20.2728 29.7642 17.4976 29.7469C14.256 29.7296 11.8724 32.1709 11.8897 35.1535C11.9069 38.349 14.0776 40.6003 17.3711 40.6867C20.25 40.7615 22.8063 38.4008 22.8235 35.188Z" fill="#B5C715"/>
<path id="Vector_4" d="M38.7094 18.6344C36.0205 18.6228 33.9362 16.5501 33.9477 13.9015C33.9592 11.1435 35.9686 9.15706 38.6748 9.15131C41.4385 9.15131 43.4077 11.1147 43.425 13.8669C43.4365 16.5961 41.4443 18.571 38.7094 18.6344ZM38.6919 16.3543C40.0911 16.4522 41.2083 15.1797 41.1795 13.8669C41.1507 12.4908 40.0969 11.4256 38.7265 11.3911C37.385 11.3565 36.2221 12.4966 36.1875 13.8612C36.1587 15.1394 37.454 16.5097 38.6919 16.3543Z" fill="#B5C715"/>
</g>
</svg>
