<svg width="938" height="1233" viewBox="0 0 938 1233" fill="none" xmlns="http://www.w3.org/2000/svg">
<path opacity="0.95" d="M311.599 752.627L128.762 1036.95C124.978 1042.82 120.686 1049.46 116.793 1056.3C110.732 1066.91 109.757 1076.8 113.933 1085.7C116.789 1091.81 123.284 1099.72 138.066 1102.77C148.089 1104.86 156.87 1105.42 164.95 1104.5C187.016 1101.96 209.289 1098.99 230.856 1096.15L246.843 1094.04C252.754 1093.26 257.635 1092.2 262.176 1090.72C283.216 1083.82 295.259 1068.2 302.48 1057.05C318.549 1032.27 334.589 1007.46 350.63 982.655L355.251 975.486C372.037 949.532 388.823 923.578 405.637 897.646L432.99 855.324C457.425 817.5 485.119 774.645 512.41 733.372L516.231 727.601C516.625 726.997 517.051 726.364 517.457 725.759C545.889 682.944 583.338 624.931 545.888 564.107C534.582 545.747 520.179 527.557 501.875 508.501C500.122 506.676 498.253 504.916 496.464 503.095C477.361 483.82 456.609 465.714 436.408 448.214C422.719 436.375 410.05 425.405 398.024 414.213C345.611 365.471 293.243 316.698 240.996 267.797C224.815 252.65 210.296 239.58 196.605 227.817C183.121 216.214 167.401 211.014 151.148 212.795C142.096 213.776 133.027 214.922 124.18 216.139L82.7293 221.319L65.7217 223.6C58.3346 224.587 50.9612 225.585 43.6428 226.814C31.4723 228.846 22.1097 235.561 17.9416 245.253C13.7882 254.868 15.4733 265.82 22.5701 275.305C28.0124 282.575 32.6683 287.905 37.6821 292.549C67.4613 320.273 102.869 353.162 139.654 386.809C211.266 452.319 282.957 517.767 354.787 583.047C368.297 595.323 375.556 606.153 378.332 618.14C381.872 633.512 379.049 647.629 369.454 662.589C350.218 692.629 330.927 722.625 311.623 752.624L311.599 752.627Z" fill="white" stroke="url(#paint0_linear_439_1609)"/>
<path opacity="0.95" d="M535.464 765.125L297.08 1135.83C292.147 1143.48 286.55 1152.13 281.476 1161.06C273.573 1174.89 272.301 1187.78 277.746 1199.39C281.47 1207.35 289.938 1217.66 309.211 1221.64C322.279 1224.37 333.728 1225.1 344.262 1223.9C373.032 1220.58 402.071 1216.72 430.192 1213.01L451.035 1210.26C458.742 1209.24 465.106 1207.86 471.026 1205.94C498.458 1196.94 514.16 1176.57 523.575 1162.04C544.526 1129.73 565.439 1097.37 586.354 1065.04L592.378 1055.69C614.264 1021.85 636.15 988.013 658.072 954.201L693.735 899.022C725.594 849.708 761.701 793.832 797.283 740.021L802.265 732.496C802.778 731.709 803.335 730.883 803.864 730.094C840.933 674.272 889.76 598.634 840.932 519.332C826.19 495.394 807.412 471.677 783.547 446.833C781.262 444.453 778.825 442.158 776.492 439.784C751.586 414.653 724.529 391.047 698.191 368.229C680.343 352.794 663.826 338.492 648.145 323.899C579.809 260.349 511.532 196.759 443.412 133.001C422.315 113.253 403.385 96.2109 385.534 80.8743C367.954 65.7472 347.458 58.9675 326.268 61.2888C314.465 62.5678 302.642 64.0621 291.106 65.6493L237.063 72.4026L214.888 75.3768C205.257 76.6637 195.643 77.9646 186.101 79.5667C170.234 82.2159 158.026 90.9715 152.592 103.608C147.177 116.144 149.374 130.423 158.627 142.79C165.723 152.269 171.793 159.218 178.33 165.272C217.156 201.42 263.32 244.3 311.281 288.17C404.649 373.581 498.121 458.913 591.774 544.026C609.387 560.031 618.852 574.152 622.472 589.78C627.086 609.822 623.406 628.228 610.897 647.733C585.816 686.899 560.664 726.009 535.496 765.121L535.464 765.125Z" fill="white" stroke="url(#paint1_linear_439_1609)"/>
<defs>
<linearGradient id="paint0_linear_439_1609" x1="366.999" y1="1078.19" x2="251.033" y2="199.117" gradientUnits="userSpaceOnUse">
<stop stop-color="#9ADD19"/>
<stop offset="0.333333" stop-color="#00B1C6"/>
<stop offset="0.666667" stop-color="#1C7FC1"/>
<stop offset="1" stop-color="#25255C"/>
</linearGradient>
<linearGradient id="paint1_linear_439_1609" x1="607.695" y1="1189.59" x2="456.498" y2="43.4551" gradientUnits="userSpaceOnUse">
<stop stop-color="#9ADD19"/>
<stop offset="0.333333" stop-color="#00B1C6"/>
<stop offset="0.666667" stop-color="#1C7FC1"/>
<stop offset="1" stop-color="#25255C"/>
</linearGradient>
</defs>
</svg>
