<svg width="1063" height="1036" viewBox="0 0 1063 1036" fill="none" xmlns="http://www.w3.org/2000/svg">
<path d="M233.776 26.4488L233.776 26.4493C247.858 42.0717 262.702 59.3369 279.139 79.2105C332.133 143.296 385.27 207.266 438.48 271.178C450.695 285.864 463.712 300.433 477.498 315.83C497.234 337.884 517.228 360.323 535.567 383.87C515.197 407.145 491.241 434.72 476.907 466.594C462.535 498.554 457.83 534.853 476.068 575.486L476.053 575.5L476.195 575.815C486.757 599.218 500.965 622.814 519.631 648C520.93 649.757 522.296 651.495 523.656 653.227C524.419 654.199 525.181 655.168 525.929 656.138L522.583 659.963L522.583 659.964C486.767 701.035 450.775 743.222 415.885 784.116L412.848 787.676L374.616 832.459C351.246 859.798 327.877 887.152 304.522 914.506C297.645 922.555 290.771 930.604 283.895 938.654C266.458 959.072 249.019 979.49 231.559 999.894L231.938 1000.22L231.558 999.894C221.138 1012.08 204.261 1028.78 177.792 1033.71C170.505 1035.07 163.583 1035.24 159.004 1035.25H141.215H141.181H141.147H141.113H141.079H141.045H141.01H140.976H140.942H140.908H140.874H140.84H140.806H140.772H140.738H140.704H140.67H140.636H140.602H140.568H140.534H140.5H140.465H140.431H140.397H140.363H140.329H140.295H140.261H140.227H140.193H140.159H140.125H140.09H140.056H140.022H139.988H139.954H139.92H139.886H139.852H139.818H139.784H139.749H139.715H139.681H139.647H139.613H139.579H139.545H139.511H139.476H139.442H139.408H139.374H139.34H139.306H139.272H139.238H139.203H139.169H139.135H139.101H139.067H139.033H138.999H138.964H138.93H138.896H138.862H138.828H138.794H138.76H138.725H138.691H138.657H138.623H138.589H138.555H138.52H138.486H138.452H138.418H138.384H138.35H138.315H138.281H138.247H138.213H138.179H138.145H138.11H138.076H138.042H138.008H137.974H137.939H137.905H137.871H137.837H137.803H137.768H137.734H137.7H137.666H137.632H137.597H137.563H137.529H137.495H137.461H137.426H137.392H137.358H137.324H137.29H137.255H137.221H137.187H137.153H137.118H137.084H137.05H137.016H136.982H136.947H136.913H136.879H136.845H136.81H136.776H136.742H136.708H136.673H136.639H136.605H136.571H136.537H136.502H136.468H136.434H136.4H136.365H136.331H136.297H136.263H136.228H136.194H136.16H136.125H136.091H136.057H136.023H135.988H135.954H135.92H135.886H135.851H135.817H135.783H135.749H135.714H135.68H135.646H135.611H135.577H135.543H135.509H135.474H135.44H135.406H135.371H135.337H135.303H135.269H135.234H135.2H135.166H135.131H135.097H135.063H135.029H134.994H134.96H134.926H134.891H134.857H134.823H134.788H134.754H134.72H134.686H134.651H134.617H134.583H134.548H134.514H134.48H134.445H134.411H134.377H134.342H134.308H134.274H134.239H134.205H134.171H134.136H134.102H134.068H134.033H133.999H133.965H133.93H133.896H133.862H133.827H133.793H133.759H133.724H133.69H133.656H133.621H133.587H133.553H133.518H133.484H133.45H133.415H133.381H133.347H133.312H133.278H133.243H133.209H133.175H133.14H133.106H133.072H133.037H133.003H132.969H132.934H132.9H132.866H132.831H132.797H132.762H132.728H132.694H132.659H132.625H132.591H132.556H132.522H132.487H132.453H132.419H132.384H132.35H132.315H132.281H132.247H132.212H132.178H132.144H132.109H132.075H132.04H132.006H131.972H131.937H131.903H131.868H131.834H131.8H131.765H131.731H131.696H131.662H131.628H131.593H131.559H131.524H131.49H131.456H131.421H131.387H131.352H131.318H131.284H131.249H131.215H131.18H131.146H131.111H131.077H131.043H131.008H130.974H130.939H130.905H130.871H130.836H130.802H130.767H130.733H130.698H130.664H130.63H130.595H130.561H130.526H130.492H130.457H130.423H130.389H130.354H130.32H130.285H130.251H130.216H130.182H130.147H130.113H130.079H130.044H130.01H129.975H129.941H129.906H129.872H129.837H129.803H129.769H129.734H129.7H129.665H129.631H129.596H129.562H129.527H129.493H129.459H129.424H129.39H129.355H129.321H129.286H129.252H129.217H129.183H129.148H129.114H129.079H129.045H129.011H128.976H128.942H128.907H128.873H128.838H128.804H128.769H128.735H128.7H128.666H128.631H128.597H128.562H128.528H128.493H128.459H128.425H128.39H128.356H128.321H128.287H128.252H128.218H128.183H128.149H128.114H128.08H128.045H128.011H127.976H127.942H127.907H127.873H127.838H127.804H127.769H127.735H127.7H127.666H127.631H127.597H127.562H127.528H127.493H127.459H127.424H127.39H127.355H127.321H127.286H127.252H127.217H127.183H127.148H127.114H127.079H127.045H127.01H126.976H126.941H126.907H126.872H126.838H126.803H126.769H126.734H126.7H126.665H126.631H126.596H126.562H126.527H126.493H126.458H126.424H126.389H126.355H126.32H126.286H126.251H126.217H126.182H126.148H126.113H126.079H126.044H126.01H125.975H125.941H125.906H125.871H125.837H125.802H125.768H125.733H125.699H125.664H125.63H125.595H125.561H125.526H125.492H125.457H125.423H125.388H125.354H125.319H125.285H125.25H125.216H125.181H125.146H125.112H125.077H125.043H125.008H124.974H124.939H124.905H124.87H124.836H124.801H124.767H124.732H124.698H124.663H124.628H124.594H124.559H124.525H124.49H124.456H124.421H124.387H124.352H124.318H124.283H124.248H124.214H124.179H124.145H124.11H124.076H124.041H124.007H123.972H123.938H123.903H123.869H123.834H123.799H123.765H123.73H123.696H123.661H123.627C103.514 1035.25 83.0462 1035.2 62.7368 1034.85C52.9307 1034.69 42.4829 1032.66 30.8152 1028.6C12.7002 1022.3 5.79181 1011.14 3.16686 1002.92L2.69056 1003.07L3.16685 1002.92C-0.688873 990.851 2.07268 978.501 11.4802 966.183C17.0516 958.892 22.8246 952.103 28.4204 945.533L28.4209 945.533L282.186 646.759C308.984 615.214 335.768 583.682 362.495 552.108L362.164 551.828L362.495 552.108C375.108 537.198 380.214 522.289 378.549 505.167L378.549 505.167C377.23 491.758 370.705 478.845 357.502 463.35C284.367 377.472 211.403 291.464 138.526 205.355C102.29 162.533 65.8095 118.774 34.8942 81.6114C29.682 75.3456 24.9786 68.3572 19.6667 58.9553L19.6665 58.9548C12.1967 45.7653 11.9324 31.5692 18.8713 19.9905L18.8714 19.9903C25.7989 8.42111 38.7255 1.44516 54.3962 0.902594L54.3969 0.902569C62.784 0.600339 71.1721 0.573521 79.5822 0.546632C79.9804 0.545359 80.3787 0.544086 80.7771 0.542783L80.7777 0.54278L87.0322 0.513973C87.0323 0.513973 87.0324 0.513972 87.0325 0.513972C92.4116 0.492369 97.7903 0.495072 103.164 0.497773C104.954 0.498673 106.744 0.499572 108.533 0.499573C108.533 0.499573 108.534 0.499573 108.535 0.499573L149.101 0.830855V0.830878L149.106 0.830871C159.592 0.816467 170.217 0.830891 180.855 1.07561L180.866 0.609054L180.856 1.07561C200.948 1.53315 219.256 10.2944 233.776 26.4488Z" stroke="#B5C715"/>
<path opacity="0.95" d="M1036.68 91.8494L1036.68 91.8489L1037.03 91.4351C1042.2 85.3712 1048 78.559 1053.39 71.4598L1053.39 71.4589C1061.91 60.2886 1064.46 49.2498 1061.03 38.5834L1061.03 38.5829C1058.69 31.2755 1052.49 21.3325 1036.04 15.6402L1036.04 15.6399C1024.81 11.7353 1014.81 9.77521 1005.41 9.60343C981.696 9.20729 957.732 9.21068 934.382 9.21398C932.266 9.21428 930.154 9.21458 928.048 9.21458H909.269C902.349 9.21458 896.585 9.68825 891.155 10.6899C865.992 15.3972 849.832 31.4075 839.842 43.0913L839.842 43.0915C821.064 65.0295 802.306 86.9983 783.552 108.963C780.055 113.059 776.558 117.154 773.062 121.249L766.65 128.782L766.649 128.782L766.599 128.841C743.332 156.089 720.066 183.336 696.77 210.555L1036.68 91.8494ZM1036.68 91.8494L783.084 390.439L783.056 390.425L782.802 390.724C756.004 422.255 729.219 453.786 702.493 485.375C689.09 501.193 683.655 517.111 685.448 535.456L685.449 535.457C686.868 549.785 693.693 563.418 707.486 579.607C780.635 665.471 853.598 751.507 926.461 837.601C963.888 881.821 999.838 924.96 1030.06 961.316L1030.07 961.317C1035.13 967.381 1039.69 974.181 1044.88 983.339C1051.57 995.178 1051.85 1007.82 1045.71 1018.05L1045.71 1018.06C1039.55 1028.38 1027.9 1034.61 1013.68 1035.1C1005.05 1035.4 996.392 1035.43 987.712 1035.44L967.732 1035.49H967.728L919.085 1035.15H919.079C908.682 1035.21 898.042 1035.15 887.446 1034.91C868.559 1034.5 851.313 1026.21 837.567 1010.93L837.195 1011.27L837.567 1010.93C823.528 995.354 808.727 978.146 792.319 958.302C739.325 894.216 686.173 830.261 632.964 766.334C620.748 751.648 607.759 737.122 593.73 721.452C573.028 698.288 551.794 674.362 532.641 649.344C531.846 648.298 531.044 647.277 530.247 646.263C529.219 644.955 528.198 643.656 527.208 642.321C508.948 617.683 495.067 594.638 484.784 571.875C467.798 534.264 472.235 500.292 485.823 470.104C499.422 439.892 522.177 413.488 541.816 391.046C541.816 391.046 541.816 391.046 541.816 391.046L542.074 390.753C542.553 390.211 543.048 389.652 543.511 389.113C543.511 389.113 543.511 389.113 543.511 389.112L548.788 383.065L548.789 383.065C586.506 339.792 624.926 294.762 658.825 255.021L696.77 210.556L1036.68 91.8494ZM1061.51 38.4306C1064.99 49.2915 1062.38 60.498 1053.79 71.7622C1048.39 78.872 1042.58 85.6929 1037.42 91.7541L1037.06 92.1731L1061.51 38.4306ZM1061.51 38.4306C1059.13 30.9836 1052.81 20.915 1036.2 15.1677L1061.51 38.4306Z" stroke="#B5C715"/>
</svg>
