<svg width="94" height="82" viewBox="0 0 94 82" fill="none" xmlns="http://www.w3.org/2000/svg">
<path d="M38 5.807C38 3.704 36.296 2 34.193 2H29.81C27.704 2 26 3.704 26 5.807C26 7.541 24.812 9.029 23.195 9.665C22.94 9.767 22.685 9.875 22.436 9.983C20.843 10.673 18.95 10.463 17.72 9.236C17.0061 8.52263 16.0382 8.12191 15.029 8.12191C14.0198 8.12191 13.0519 8.52263 12.338 9.236L9.236 12.338C8.52263 13.0519 8.12191 14.0198 8.12191 15.029C8.12191 16.0382 8.52263 17.0061 9.236 17.72C10.466 18.95 10.676 20.84 9.98 22.436C9.87065 22.6872 9.76563 22.9402 9.665 23.195C9.029 24.812 7.541 26 5.807 26C3.704 26 2 27.704 2 29.807V34.193C2 36.296 3.704 38 5.807 38C7.541 38 9.029 39.188 9.665 40.805C9.767 41.06 9.875 41.315 9.98 41.564C10.673 43.157 10.463 45.05 9.236 46.28C8.52263 46.9939 8.12191 47.9618 8.12191 48.971C8.12191 49.9802 8.52263 50.9481 9.236 51.662L12.338 54.764C13.0519 55.4774 14.0198 55.8781 15.029 55.8781C16.0382 55.8781 17.0061 55.4774 17.72 54.764C18.95 53.534 20.84 53.324 22.436 54.017C22.685 54.128 22.94 54.233 23.195 54.335C24.812 54.971 26 56.459 26 58.193C26 60.296 27.704 62 29.807 62H34.193C36.296 62 38 60.296 38 58.193C38 56.459 39.188 54.971 40.805 54.332C41.06 54.233 41.315 54.128 41.564 54.02C43.157 53.324 45.05 53.537 46.277 54.764C46.6305 55.1177 47.0503 55.3982 47.5123 55.5896C47.9743 55.7811 48.4694 55.8796 48.9695 55.8796C49.4696 55.8796 49.9647 55.7811 50.4267 55.5896C50.8887 55.3982 51.3085 55.1177 51.662 54.764L54.764 51.662C55.4774 50.9481 55.8781 49.9802 55.8781 48.971C55.8781 47.9618 55.4774 46.9939 54.764 46.28C53.534 45.05 53.324 43.16 54.017 41.564C54.128 41.315 54.233 41.06 54.335 40.805C54.971 39.188 56.459 38 58.193 38C60.296 38 62 36.296 62 34.193V29.81C62 27.707 60.296 26.003 58.193 26.003C56.459 26.003 54.971 24.815 54.332 23.198C54.2315 22.9432 54.1265 22.6901 54.017 22.439C53.327 20.846 53.537 18.953 54.764 17.723C55.4774 17.0091 55.8781 16.0412 55.8781 15.032C55.8781 14.0228 55.4774 13.0549 54.764 12.341L51.662 9.239C50.9481 8.52563 49.9802 8.12491 48.971 8.12491C47.9618 8.12491 46.9939 8.52563 46.28 9.239C45.05 10.469 43.16 10.679 41.564 9.986C41.3129 9.87562 41.0598 9.76961 40.805 9.668C39.188 9.029 38 7.538 38 5.807Z" fill="#25255C"/>
<path d="M38 5.807C38 3.704 36.296 2 34.193 2H29.81C27.704 2 26 3.704 26 5.807C26 7.541 24.812 9.029 23.195 9.665C22.94 9.767 22.685 9.875 22.436 9.983C20.843 10.673 18.95 10.463 17.72 9.236C17.0061 8.52263 16.0382 8.12191 15.029 8.12191C14.0198 8.12191 13.0519 8.52263 12.338 9.236L9.236 12.338C8.52263 13.0519 8.12191 14.0198 8.12191 15.029C8.12191 16.0382 8.52263 17.0061 9.236 17.72C10.466 18.95 10.676 20.84 9.98 22.436C9.87065 22.6872 9.76563 22.9402 9.665 23.195C9.029 24.812 7.541 26 5.807 26C3.704 26 2 27.704 2 29.807V34.193C2 36.296 3.704 38 5.807 38C7.541 38 9.029 39.188 9.665 40.805C9.767 41.06 9.875 41.315 9.98 41.564C10.673 43.157 10.463 45.05 9.236 46.28C8.52263 46.9939 8.12191 47.9618 8.12191 48.971C8.12191 49.9802 8.52263 50.9481 9.236 51.662L12.338 54.764C13.0519 55.4774 14.0198 55.8781 15.029 55.8781C16.0382 55.8781 17.0061 55.4774 17.72 54.764C18.95 53.534 20.84 53.324 22.436 54.017C22.685 54.128 22.94 54.233 23.195 54.335C24.812 54.971 26 56.459 26 58.193C26 60.296 27.704 62 29.807 62H34.193C36.296 62 38 60.296 38 58.193C38 56.459 39.188 54.971 40.805 54.332C41.06 54.233 41.315 54.128 41.564 54.02C43.157 53.324 45.05 53.537 46.277 54.764C46.6305 55.1177 47.0503 55.3982 47.5123 55.5896C47.9743 55.7811 48.4694 55.8796 48.9695 55.8796C49.4696 55.8796 49.9647 55.7811 50.4267 55.5896C50.8887 55.3982 51.3085 55.1177 51.662 54.764L54.764 51.662C55.4774 50.9481 55.8781 49.9802 55.8781 48.971C55.8781 47.9618 55.4774 46.9939 54.764 46.28C53.534 45.05 53.324 43.16 54.017 41.564C54.128 41.315 54.233 41.06 54.335 40.805C54.971 39.188 56.459 38 58.193 38C60.296 38 62 36.296 62 34.193V29.81C62 27.707 60.296 26.003 58.193 26.003C56.459 26.003 54.971 24.815 54.332 23.198C54.2315 22.9432 54.1265 22.6901 54.017 22.439C53.327 20.846 53.537 18.953 54.764 17.723C55.4774 17.0091 55.8781 16.0412 55.8781 15.032C55.8781 14.0228 55.4774 13.0549 54.764 12.341L51.662 9.239C50.9481 8.52563 49.9802 8.12491 48.971 8.12491C47.9618 8.12491 46.9939 8.52563 46.28 9.239C45.05 10.469 43.16 10.679 41.564 9.986C41.3129 9.87562 41.0598 9.76961 40.805 9.668C39.188 9.029 38 7.538 38 5.807Z" stroke="white" stroke-width="3"/>
<path d="M38 5.807C38 3.704 36.296 2 34.193 2H29.81C27.704 2 26 3.704 26 5.807C26 7.541 24.812 9.029 23.195 9.665C22.94 9.767 22.685 9.875 22.436 9.983C20.843 10.673 18.95 10.463 17.72 9.236C17.0061 8.52263 16.0382 8.12191 15.029 8.12191C14.0198 8.12191 13.0519 8.52263 12.338 9.236L9.236 12.338C8.52263 13.0519 8.12191 14.0198 8.12191 15.029C8.12191 16.0382 8.52263 17.0061 9.236 17.72C10.466 18.95 10.676 20.84 9.98 22.436C9.87065 22.6872 9.76563 22.9402 9.665 23.195C9.029 24.812 7.541 26 5.807 26C3.704 26 2 27.704 2 29.807V34.193C2 36.296 3.704 38 5.807 38C7.541 38 9.029 39.188 9.665 40.805C9.767 41.06 9.875 41.315 9.98 41.564C10.673 43.157 10.463 45.05 9.236 46.28C8.52263 46.9939 8.12191 47.9618 8.12191 48.971C8.12191 49.9802 8.52263 50.9481 9.236 51.662L12.338 54.764C13.0519 55.4774 14.0198 55.8781 15.029 55.8781C16.0382 55.8781 17.0061 55.4774 17.72 54.764C18.95 53.534 20.84 53.324 22.436 54.017C22.685 54.128 22.94 54.233 23.195 54.335C24.812 54.971 26 56.459 26 58.193C26 60.296 27.704 62 29.807 62H34.193C36.296 62 38 60.296 38 58.193C38 56.459 39.188 54.971 40.805 54.332C41.06 54.233 41.315 54.128 41.564 54.02C43.157 53.324 45.05 53.537 46.277 54.764C46.6305 55.1177 47.0503 55.3982 47.5123 55.5896C47.9743 55.7811 48.4694 55.8796 48.9695 55.8796C49.4696 55.8796 49.9647 55.7811 50.4267 55.5896C50.8887 55.3982 51.3085 55.1177 51.662 54.764L54.764 51.662C55.4774 50.9481 55.8781 49.9802 55.8781 48.971C55.8781 47.9618 55.4774 46.9939 54.764 46.28C53.534 45.05 53.324 43.16 54.017 41.564C54.128 41.315 54.233 41.06 54.335 40.805C54.971 39.188 56.459 38 58.193 38C60.296 38 62 36.296 62 34.193V29.81C62 27.707 60.296 26.003 58.193 26.003C56.459 26.003 54.971 24.815 54.332 23.198C54.2315 22.9432 54.1265 22.6901 54.017 22.439C53.327 20.846 53.537 18.953 54.764 17.723C55.4774 17.0091 55.8781 16.0412 55.8781 15.032C55.8781 14.0228 55.4774 13.0549 54.764 12.341L51.662 9.239C50.9481 8.52563 49.9802 8.12491 48.971 8.12491C47.9618 8.12491 46.9939 8.52563 46.28 9.239C45.05 10.469 43.16 10.679 41.564 9.986C41.3129 9.87562 41.0598 9.76961 40.805 9.668C39.188 9.029 38 7.538 38 5.807Z" stroke="white" stroke-width="3"/>
<path d="M38 5.807C38 3.704 36.296 2 34.193 2H29.81C27.704 2 26 3.704 26 5.807C26 7.541 24.812 9.029 23.195 9.665C22.94 9.767 22.685 9.875 22.436 9.983C20.843 10.673 18.95 10.463 17.72 9.236C17.0061 8.52263 16.0382 8.12191 15.029 8.12191C14.0198 8.12191 13.0519 8.52263 12.338 9.236L9.236 12.338C8.52263 13.0519 8.12191 14.0198 8.12191 15.029C8.12191 16.0382 8.52263 17.0061 9.236 17.72C10.466 18.95 10.676 20.84 9.98 22.436C9.87065 22.6872 9.76563 22.9402 9.665 23.195C9.029 24.812 7.541 26 5.807 26C3.704 26 2 27.704 2 29.807V34.193C2 36.296 3.704 38 5.807 38C7.541 38 9.029 39.188 9.665 40.805C9.767 41.06 9.875 41.315 9.98 41.564C10.673 43.157 10.463 45.05 9.236 46.28C8.52263 46.9939 8.12191 47.9618 8.12191 48.971C8.12191 49.9802 8.52263 50.9481 9.236 51.662L12.338 54.764C13.0519 55.4774 14.0198 55.8781 15.029 55.8781C16.0382 55.8781 17.0061 55.4774 17.72 54.764C18.95 53.534 20.84 53.324 22.436 54.017C22.685 54.128 22.94 54.233 23.195 54.335C24.812 54.971 26 56.459 26 58.193C26 60.296 27.704 62 29.807 62H34.193C36.296 62 38 60.296 38 58.193C38 56.459 39.188 54.971 40.805 54.332C41.06 54.233 41.315 54.128 41.564 54.02C43.157 53.324 45.05 53.537 46.277 54.764C46.6305 55.1177 47.0503 55.3982 47.5123 55.5896C47.9743 55.7811 48.4694 55.8796 48.9695 55.8796C49.4696 55.8796 49.9647 55.7811 50.4267 55.5896C50.8887 55.3982 51.3085 55.1177 51.662 54.764L54.764 51.662C55.4774 50.9481 55.8781 49.9802 55.8781 48.971C55.8781 47.9618 55.4774 46.9939 54.764 46.28C53.534 45.05 53.324 43.16 54.017 41.564C54.128 41.315 54.233 41.06 54.335 40.805C54.971 39.188 56.459 38 58.193 38C60.296 38 62 36.296 62 34.193V29.81C62 27.707 60.296 26.003 58.193 26.003C56.459 26.003 54.971 24.815 54.332 23.198C54.2315 22.9432 54.1265 22.6901 54.017 22.439C53.327 20.846 53.537 18.953 54.764 17.723C55.4774 17.0091 55.8781 16.0412 55.8781 15.032C55.8781 14.0228 55.4774 13.0549 54.764 12.341L51.662 9.239C50.9481 8.52563 49.9802 8.12491 48.971 8.12491C47.9618 8.12491 46.9939 8.52563 46.28 9.239C45.05 10.469 43.16 10.679 41.564 9.986C41.3129 9.87562 41.0598 9.76961 40.805 9.668C39.188 9.029 38 7.538 38 5.807Z" stroke="white" stroke-width="3"/>
<path d="M44 32C44 35.1826 42.7357 38.2348 40.4853 40.4853C38.2348 42.7357 35.1826 44 32 44C28.8174 44 25.7652 42.7357 23.5147 40.4853C21.2643 38.2348 20 35.1826 20 32C20 28.8174 21.2643 25.7652 23.5147 23.5147C25.7652 21.2643 28.8174 20 32 20C35.1826 20 38.2348 21.2643 40.4853 23.5147C42.7357 25.7652 44 28.8174 44 32Z" fill="#25255C"/>
<path d="M44 32C44 35.1826 42.7357 38.2348 40.4853 40.4853C38.2348 42.7357 35.1826 44 32 44C28.8174 44 25.7652 42.7357 23.5147 40.4853C21.2643 38.2348 20 35.1826 20 32C20 28.8174 21.2643 25.7652 23.5147 23.5147C25.7652 21.2643 28.8174 20 32 20C35.1826 20 38.2348 21.2643 40.4853 23.5147C42.7357 25.7652 44 28.8174 44 32Z" stroke="white" stroke-width="3"/>
<path d="M44 32C44 35.1826 42.7357 38.2348 40.4853 40.4853C38.2348 42.7357 35.1826 44 32 44C28.8174 44 25.7652 42.7357 23.5147 40.4853C21.2643 38.2348 20 35.1826 20 32C20 28.8174 21.2643 25.7652 23.5147 23.5147C25.7652 21.2643 28.8174 20 32 20C35.1826 20 38.2348 21.2643 40.4853 23.5147C42.7357 25.7652 44 28.8174 44 32Z" stroke="white" stroke-width="3"/>
<path d="M44 32C44 35.1826 42.7357 38.2348 40.4853 40.4853C38.2348 42.7357 35.1826 44 32 44C28.8174 44 25.7652 42.7357 23.5147 40.4853C21.2643 38.2348 20 35.1826 20 32C20 28.8174 21.2643 25.7652 23.5147 23.5147C25.7652 21.2643 28.8174 20 32 20C35.1826 20 38.2348 21.2643 40.4853 23.5147C42.7357 25.7652 44 28.8174 44 32Z" stroke="white" stroke-width="3"/>
<path d="M68 23.807C68 21.704 66.296 20 64.193 20H59.81C57.704 20 56 21.704 56 23.807C56 25.541 54.812 27.029 53.195 27.665C52.94 27.767 52.685 27.875 52.436 27.983C50.843 28.673 48.95 28.463 47.72 27.236C47.0061 26.5226 46.0382 26.1219 45.029 26.1219C44.0198 26.1219 43.0519 26.5226 42.338 27.236L39.236 30.338C38.5226 31.0519 38.1219 32.0198 38.1219 33.029C38.1219 34.0382 38.5226 35.0061 39.236 35.72C40.466 36.95 40.676 38.84 39.98 40.436C39.8706 40.6872 39.7656 40.9402 39.665 41.195C39.029 42.812 37.541 44 35.807 44C33.704 44 32 45.704 32 47.807V52.193C32 54.296 33.704 56 35.807 56C37.541 56 39.029 57.188 39.665 58.805C39.767 59.06 39.875 59.315 39.98 59.564C40.673 61.157 40.463 63.05 39.236 64.28C38.5226 64.9939 38.1219 65.9618 38.1219 66.971C38.1219 67.9802 38.5226 68.9481 39.236 69.662L42.338 72.764C43.0519 73.4774 44.0198 73.8781 45.029 73.8781C46.0382 73.8781 47.0061 73.4774 47.72 72.764C48.95 71.534 50.84 71.324 52.436 72.017C52.685 72.128 52.94 72.233 53.195 72.335C54.812 72.971 56 74.459 56 76.193C56 78.296 57.704 80 59.807 80H64.193C66.296 80 68 78.296 68 76.193C68 74.459 69.188 72.971 70.805 72.332C71.06 72.233 71.315 72.128 71.564 72.02C73.157 71.324 75.05 71.537 76.277 72.764C76.6305 73.1177 77.0503 73.3982 77.5123 73.5896C77.9743 73.7811 78.4694 73.8796 78.9695 73.8796C79.4696 73.8796 79.9647 73.7811 80.4267 73.5896C80.8887 73.3982 81.3085 73.1177 81.662 72.764L84.764 69.662C85.4774 68.9481 85.8781 67.9802 85.8781 66.971C85.8781 65.9618 85.4774 64.9939 84.764 64.28C83.534 63.05 83.324 61.16 84.017 59.564C84.128 59.315 84.233 59.06 84.335 58.805C84.971 57.188 86.459 56 88.193 56C90.296 56 92 54.296 92 52.193V47.81C92 45.707 90.296 44.003 88.193 44.003C86.459 44.003 84.971 42.815 84.332 41.198C84.2315 40.9432 84.1265 40.6901 84.017 40.439C83.327 38.846 83.537 36.953 84.764 35.723C85.4774 35.0091 85.8781 34.0412 85.8781 33.032C85.8781 32.0228 85.4774 31.0549 84.764 30.341L81.662 27.239C80.9481 26.5256 79.9802 26.1249 78.971 26.1249C77.9618 26.1249 76.9939 26.5256 76.28 27.239C75.05 28.469 73.16 28.679 71.564 27.986C71.3129 27.8756 71.0598 27.7696 70.805 27.668C69.188 27.029 68 25.538 68 23.807Z" fill="#25255C"/>
<path d="M68 23.807C68 21.704 66.296 20 64.193 20H59.81C57.704 20 56 21.704 56 23.807C56 25.541 54.812 27.029 53.195 27.665C52.94 27.767 52.685 27.875 52.436 27.983C50.843 28.673 48.95 28.463 47.72 27.236C47.0061 26.5226 46.0382 26.1219 45.029 26.1219C44.0198 26.1219 43.0519 26.5226 42.338 27.236L39.236 30.338C38.5226 31.0519 38.1219 32.0198 38.1219 33.029C38.1219 34.0382 38.5226 35.0061 39.236 35.72C40.466 36.95 40.676 38.84 39.98 40.436C39.8706 40.6872 39.7656 40.9402 39.665 41.195C39.029 42.812 37.541 44 35.807 44C33.704 44 32 45.704 32 47.807V52.193C32 54.296 33.704 56 35.807 56C37.541 56 39.029 57.188 39.665 58.805C39.767 59.06 39.875 59.315 39.98 59.564C40.673 61.157 40.463 63.05 39.236 64.28C38.5226 64.9939 38.1219 65.9618 38.1219 66.971C38.1219 67.9802 38.5226 68.9481 39.236 69.662L42.338 72.764C43.0519 73.4774 44.0198 73.8781 45.029 73.8781C46.0382 73.8781 47.0061 73.4774 47.72 72.764C48.95 71.534 50.84 71.324 52.436 72.017C52.685 72.128 52.94 72.233 53.195 72.335C54.812 72.971 56 74.459 56 76.193C56 78.296 57.704 80 59.807 80H64.193C66.296 80 68 78.296 68 76.193C68 74.459 69.188 72.971 70.805 72.332C71.06 72.233 71.315 72.128 71.564 72.02C73.157 71.324 75.05 71.537 76.277 72.764C76.6305 73.1177 77.0503 73.3982 77.5123 73.5896C77.9743 73.7811 78.4694 73.8796 78.9695 73.8796C79.4696 73.8796 79.9647 73.7811 80.4267 73.5896C80.8887 73.3982 81.3085 73.1177 81.662 72.764L84.764 69.662C85.4774 68.9481 85.8781 67.9802 85.8781 66.971C85.8781 65.9618 85.4774 64.9939 84.764 64.28C83.534 63.05 83.324 61.16 84.017 59.564C84.128 59.315 84.233 59.06 84.335 58.805C84.971 57.188 86.459 56 88.193 56C90.296 56 92 54.296 92 52.193V47.81C92 45.707 90.296 44.003 88.193 44.003C86.459 44.003 84.971 42.815 84.332 41.198C84.2315 40.9432 84.1265 40.6901 84.017 40.439C83.327 38.846 83.537 36.953 84.764 35.723C85.4774 35.0091 85.8781 34.0412 85.8781 33.032C85.8781 32.0228 85.4774 31.0549 84.764 30.341L81.662 27.239C80.9481 26.5256 79.9802 26.1249 78.971 26.1249C77.9618 26.1249 76.9939 26.5256 76.28 27.239C75.05 28.469 73.16 28.679 71.564 27.986C71.3129 27.8756 71.0598 27.7696 70.805 27.668C69.188 27.029 68 25.538 68 23.807Z" stroke="white" stroke-width="3"/>
<path d="M68 23.807C68 21.704 66.296 20 64.193 20H59.81C57.704 20 56 21.704 56 23.807C56 25.541 54.812 27.029 53.195 27.665C52.94 27.767 52.685 27.875 52.436 27.983C50.843 28.673 48.95 28.463 47.72 27.236C47.0061 26.5226 46.0382 26.1219 45.029 26.1219C44.0198 26.1219 43.0519 26.5226 42.338 27.236L39.236 30.338C38.5226 31.0519 38.1219 32.0198 38.1219 33.029C38.1219 34.0382 38.5226 35.0061 39.236 35.72C40.466 36.95 40.676 38.84 39.98 40.436C39.8706 40.6872 39.7656 40.9402 39.665 41.195C39.029 42.812 37.541 44 35.807 44C33.704 44 32 45.704 32 47.807V52.193C32 54.296 33.704 56 35.807 56C37.541 56 39.029 57.188 39.665 58.805C39.767 59.06 39.875 59.315 39.98 59.564C40.673 61.157 40.463 63.05 39.236 64.28C38.5226 64.9939 38.1219 65.9618 38.1219 66.971C38.1219 67.9802 38.5226 68.9481 39.236 69.662L42.338 72.764C43.0519 73.4774 44.0198 73.8781 45.029 73.8781C46.0382 73.8781 47.0061 73.4774 47.72 72.764C48.95 71.534 50.84 71.324 52.436 72.017C52.685 72.128 52.94 72.233 53.195 72.335C54.812 72.971 56 74.459 56 76.193C56 78.296 57.704 80 59.807 80H64.193C66.296 80 68 78.296 68 76.193C68 74.459 69.188 72.971 70.805 72.332C71.06 72.233 71.315 72.128 71.564 72.02C73.157 71.324 75.05 71.537 76.277 72.764C76.6305 73.1177 77.0503 73.3982 77.5123 73.5896C77.9743 73.7811 78.4694 73.8796 78.9695 73.8796C79.4696 73.8796 79.9647 73.7811 80.4267 73.5896C80.8887 73.3982 81.3085 73.1177 81.662 72.764L84.764 69.662C85.4774 68.9481 85.8781 67.9802 85.8781 66.971C85.8781 65.9618 85.4774 64.9939 84.764 64.28C83.534 63.05 83.324 61.16 84.017 59.564C84.128 59.315 84.233 59.06 84.335 58.805C84.971 57.188 86.459 56 88.193 56C90.296 56 92 54.296 92 52.193V47.81C92 45.707 90.296 44.003 88.193 44.003C86.459 44.003 84.971 42.815 84.332 41.198C84.2315 40.9432 84.1265 40.6901 84.017 40.439C83.327 38.846 83.537 36.953 84.764 35.723C85.4774 35.0091 85.8781 34.0412 85.8781 33.032C85.8781 32.0228 85.4774 31.0549 84.764 30.341L81.662 27.239C80.9481 26.5256 79.9802 26.1249 78.971 26.1249C77.9618 26.1249 76.9939 26.5256 76.28 27.239C75.05 28.469 73.16 28.679 71.564 27.986C71.3129 27.8756 71.0598 27.7696 70.805 27.668C69.188 27.029 68 25.538 68 23.807Z" stroke="white" stroke-width="3"/>
<path d="M68 23.807C68 21.704 66.296 20 64.193 20H59.81C57.704 20 56 21.704 56 23.807C56 25.541 54.812 27.029 53.195 27.665C52.94 27.767 52.685 27.875 52.436 27.983C50.843 28.673 48.95 28.463 47.72 27.236C47.0061 26.5226 46.0382 26.1219 45.029 26.1219C44.0198 26.1219 43.0519 26.5226 42.338 27.236L39.236 30.338C38.5226 31.0519 38.1219 32.0198 38.1219 33.029C38.1219 34.0382 38.5226 35.0061 39.236 35.72C40.466 36.95 40.676 38.84 39.98 40.436C39.8706 40.6872 39.7656 40.9402 39.665 41.195C39.029 42.812 37.541 44 35.807 44C33.704 44 32 45.704 32 47.807V52.193C32 54.296 33.704 56 35.807 56C37.541 56 39.029 57.188 39.665 58.805C39.767 59.06 39.875 59.315 39.98 59.564C40.673 61.157 40.463 63.05 39.236 64.28C38.5226 64.9939 38.1219 65.9618 38.1219 66.971C38.1219 67.9802 38.5226 68.9481 39.236 69.662L42.338 72.764C43.0519 73.4774 44.0198 73.8781 45.029 73.8781C46.0382 73.8781 47.0061 73.4774 47.72 72.764C48.95 71.534 50.84 71.324 52.436 72.017C52.685 72.128 52.94 72.233 53.195 72.335C54.812 72.971 56 74.459 56 76.193C56 78.296 57.704 80 59.807 80H64.193C66.296 80 68 78.296 68 76.193C68 74.459 69.188 72.971 70.805 72.332C71.06 72.233 71.315 72.128 71.564 72.02C73.157 71.324 75.05 71.537 76.277 72.764C76.6305 73.1177 77.0503 73.3982 77.5123 73.5896C77.9743 73.7811 78.4694 73.8796 78.9695 73.8796C79.4696 73.8796 79.9647 73.7811 80.4267 73.5896C80.8887 73.3982 81.3085 73.1177 81.662 72.764L84.764 69.662C85.4774 68.9481 85.8781 67.9802 85.8781 66.971C85.8781 65.9618 85.4774 64.9939 84.764 64.28C83.534 63.05 83.324 61.16 84.017 59.564C84.128 59.315 84.233 59.06 84.335 58.805C84.971 57.188 86.459 56 88.193 56C90.296 56 92 54.296 92 52.193V47.81C92 45.707 90.296 44.003 88.193 44.003C86.459 44.003 84.971 42.815 84.332 41.198C84.2315 40.9432 84.1265 40.6901 84.017 40.439C83.327 38.846 83.537 36.953 84.764 35.723C85.4774 35.0091 85.8781 34.0412 85.8781 33.032C85.8781 32.0228 85.4774 31.0549 84.764 30.341L81.662 27.239C80.9481 26.5256 79.9802 26.1249 78.971 26.1249C77.9618 26.1249 76.9939 26.5256 76.28 27.239C75.05 28.469 73.16 28.679 71.564 27.986C71.3129 27.8756 71.0598 27.7696 70.805 27.668C69.188 27.029 68 25.538 68 23.807Z" stroke="white" stroke-width="3"/>
<path d="M74 50C74 53.1826 72.7357 56.2348 70.4853 58.4853C68.2348 60.7357 65.1826 62 62 62C58.8174 62 55.7652 60.7357 53.5147 58.4853C51.2643 56.2348 50 53.1826 50 50C50 46.8174 51.2643 43.7652 53.5147 41.5147C55.7652 39.2643 58.8174 38 62 38C65.1826 38 68.2348 39.2643 70.4853 41.5147C72.7357 43.7652 74 46.8174 74 50Z" fill="#25255C"/>
<path d="M74 50C74 53.1826 72.7357 56.2348 70.4853 58.4853C68.2348 60.7357 65.1826 62 62 62C58.8174 62 55.7652 60.7357 53.5147 58.4853C51.2643 56.2348 50 53.1826 50 50C50 46.8174 51.2643 43.7652 53.5147 41.5147C55.7652 39.2643 58.8174 38 62 38C65.1826 38 68.2348 39.2643 70.4853 41.5147C72.7357 43.7652 74 46.8174 74 50Z" stroke="white" stroke-width="3"/>
<path d="M74 50C74 53.1826 72.7357 56.2348 70.4853 58.4853C68.2348 60.7357 65.1826 62 62 62C58.8174 62 55.7652 60.7357 53.5147 58.4853C51.2643 56.2348 50 53.1826 50 50C50 46.8174 51.2643 43.7652 53.5147 41.5147C55.7652 39.2643 58.8174 38 62 38C65.1826 38 68.2348 39.2643 70.4853 41.5147C72.7357 43.7652 74 46.8174 74 50Z" stroke="white" stroke-width="3"/>
<path d="M74 50C74 53.1826 72.7357 56.2348 70.4853 58.4853C68.2348 60.7357 65.1826 62 62 62C58.8174 62 55.7652 60.7357 53.5147 58.4853C51.2643 56.2348 50 53.1826 50 50C50 46.8174 51.2643 43.7652 53.5147 41.5147C55.7652 39.2643 58.8174 38 62 38C65.1826 38 68.2348 39.2643 70.4853 41.5147C72.7357 43.7652 74 46.8174 74 50Z" stroke="white" stroke-width="3"/>
</svg>
