<svg width="60" height="78" viewBox="0 0 60 78" fill="none" xmlns="http://www.w3.org/2000/svg">
<path fill-rule="evenodd" clip-rule="evenodd" d="M30 5.43983C25.0299 5.44078 20.1771 6.94705 16.0837 9.7594C11.9902 12.5718 8.8489 16.5577 7.0753 21.1899C5.3017 25.8221 4.97935 30.8824 6.1509 35.7014C7.32246 40.5204 9.93271 44.871 13.6364 48.1778L13.6473 48.1923C15.6727 50.0027 17.2109 51.374 18.3091 52.3826C19.3455 53.3259 20.1636 54.1023 20.5964 54.632L20.64 54.6864C21.4473 55.6769 22.1455 56.5403 22.6109 57.5743C23.0727 58.6047 23.2473 59.704 23.4509 60.9629L23.4618 61.0354C23.5673 61.6812 23.6073 62.4721 23.6255 63.488H36.3745C36.3927 62.4721 36.4327 61.6812 36.5382 61.0354L36.5491 60.9629C36.7527 59.704 36.9273 58.6047 37.3891 57.5743C37.8545 56.5403 38.5527 55.6769 39.36 54.6864L39.4036 54.632C39.8364 54.1023 40.6545 53.3259 41.6909 52.3826C42.7891 51.374 44.3273 50.0027 46.3527 48.1923L46.3673 48.1778C50.0712 44.8708 52.6815 40.5199 53.853 35.7005C55.0244 30.8812 54.7018 25.8206 52.9277 21.1882C51.1536 16.5558 48.0118 12.5699 43.9177 9.75786C39.8237 6.94579 34.9704 5.44005 30 5.43983ZM36.3418 68.93H23.6582C23.6727 69.3073 23.6909 69.6374 23.7164 69.9349C23.7891 70.7512 23.9164 71.0487 24.0036 71.1975C24.2428 71.6102 24.5863 71.953 25 72.1916C25.1455 72.2786 25.4473 72.402 26.2655 72.4782C27.12 72.5544 28.2509 72.558 30 72.558C31.7491 72.558 32.88 72.558 33.7345 72.4782C34.5527 72.4056 34.8509 72.2786 35 72.1916C35.4137 71.953 35.7573 71.6102 35.9964 71.1975C36.0836 71.0524 36.2109 70.7512 36.2836 69.9349C36.3091 69.6374 36.3273 69.3073 36.3418 68.93ZM1.82833e-05 29.9289C0.000383717 24.9367 1.25229 20.0239 3.64176 15.6377C6.03124 11.2515 9.48238 7.5313 13.681 4.81572C17.8796 2.10013 22.6924 0.475442 27.6811 0.0895588C32.6698 -0.296325 37.676 0.568855 42.244 2.60633C46.812 4.64381 50.7966 7.78887 53.8351 11.7552C56.8736 15.7215 58.8696 20.3831 59.6412 25.3156C60.4128 30.248 59.9355 35.2947 58.2529 39.9962C56.5703 44.6977 53.7357 48.9045 50.0073 52.2339C48.456 53.612 46.9117 54.9979 45.3745 56.3916C44.8318 56.8896 44.2984 57.3976 43.7745 57.9153C43.7299 57.9616 43.6863 58.0088 43.6436 58.0568C42.6982 59.2214 42.4909 59.5226 42.3709 59.7947C42.2473 60.0668 42.16 60.4187 41.9236 61.8989C41.8291 62.483 41.8182 63.4843 41.8182 66.209V66.3251C41.8182 67.9214 41.8182 69.3 41.7164 70.4247C41.6073 71.622 41.3673 72.8047 40.7236 73.9185C40.0052 75.1601 38.9718 76.1912 37.7273 76.908C36.6109 77.5501 35.4255 77.7896 34.2291 77.8984C33.0945 78 31.7164 78 30.12 78H29.8836C28.2836 78 26.9018 78 25.7746 77.8984C24.5746 77.7896 23.3891 77.5501 22.2727 76.908C21.0281 76.1913 19.9947 75.1602 19.2764 73.9185C18.6327 72.8047 18.3927 71.622 18.2836 70.4283C18.1818 69.2964 18.1818 67.9214 18.1818 66.3287V66.209C18.1818 63.488 18.1709 62.483 18.0764 61.8989C17.84 60.4187 17.7491 60.0668 17.6291 59.7947C17.5091 59.5226 17.3018 59.2214 16.3564 58.0532L16.32 58.0169C15.7647 57.4641 15.1985 56.9222 14.6218 56.3916C13.5527 55.412 12.04 54.0588 9.99274 52.2339C6.84511 49.429 4.32759 45.9917 2.60542 42.1476C0.883246 38.3035 -0.00464619 34.1395 1.82833e-05 29.9289ZM22.3346 43.8967C22.6447 43.7177 22.9871 43.6014 23.3423 43.5545C23.6975 43.5076 24.0585 43.5309 24.4046 43.6232C24.7508 43.7156 25.0753 43.875 25.3596 44.0925C25.644 44.31 25.8826 44.5813 26.0618 44.8908C26.4605 45.581 27.0345 46.1542 27.7258 46.5528C28.4172 46.9514 29.2015 47.1612 30 47.1612C30.7985 47.1612 31.5829 46.9514 32.2742 46.5528C32.9655 46.1542 33.5395 45.581 33.9382 44.8908C34.1177 44.5813 34.3566 44.3102 34.6412 44.0929C34.9258 43.8755 35.2505 43.7163 35.5967 43.6241C35.943 43.532 36.3041 43.5088 36.6594 43.5559C37.0146 43.603 37.3571 43.7194 37.6673 43.8985C37.9774 44.0777 38.2492 44.316 38.467 44.5999C38.6849 44.8839 38.8445 45.2078 38.9369 45.5533C39.0292 45.8988 39.0525 46.259 39.0053 46.6135C38.9581 46.9679 38.8414 47.3096 38.6618 47.6191C37.3577 49.865 35.2297 51.5172 32.7273 52.2266V57.139C32.7273 57.8606 32.4399 58.5527 31.9285 59.063C31.417 59.5733 30.7233 59.86 30 59.86C29.2767 59.86 28.583 59.5733 28.0715 59.063C27.5601 58.5527 27.2727 57.8606 27.2727 57.139V52.2266C24.7703 51.5172 22.6423 49.865 21.3382 47.6191C21.1588 47.3096 21.0422 46.968 20.9952 46.6136C20.9481 46.2592 20.9716 45.8991 21.0641 45.5537C21.1566 45.2084 21.3164 44.8846 21.5344 44.6009C21.7524 44.3172 22.0243 44.0755 22.3346 43.8967Z" fill="white"/>
</svg>
