<svg width="70" height="70" viewBox="0 0 70 70" fill="none" xmlns="http://www.w3.org/2000/svg">
<path d="M35 70C44.2826 70 53.185 66.3125 59.7487 59.7487C66.3125 53.185 70 44.2826 70 35C70 25.7174 66.3125 16.815 59.7487 10.2513C53.185 3.68749 44.2826 0 35 0C25.7174 0 16.815 3.68749 10.2513 10.2513C3.68749 16.815 0 25.7174 0 35C0 44.2826 3.68749 53.185 10.2513 59.7487C16.815 66.3125 25.7174 70 35 70ZM65.625 35C65.625 43.1223 62.3984 50.9118 56.6551 56.6551C50.9118 62.3984 43.1223 65.625 35 65.625C26.8777 65.625 19.0882 62.3984 13.3449 56.6551C7.60155 50.9118 4.375 43.1223 4.375 35C4.375 26.8777 7.60155 19.0882 13.3449 13.3449C19.0882 7.60155 26.8777 4.375 35 4.375C43.1223 4.375 50.9118 7.60155 56.6551 13.3449C62.3984 19.0882 65.625 26.8777 65.625 35Z" fill="white"/>
</svg>
