<svg width="78" height="69" viewBox="0 0 78 69" fill="none" xmlns="http://www.w3.org/2000/svg">
<path d="M75 63H72V3C72 2.20435 71.6839 1.44129 71.1213 0.87868C70.5587 0.316071 69.7956 0 69 0H48C47.2044 0 46.4413 0.316071 45.8787 0.87868C45.3161 1.44129 45 2.20435 45 3V18H27C26.2044 18 25.4413 18.3161 24.8787 18.8787C24.3161 19.4413 24 20.2044 24 21V36H9C8.20435 36 7.44129 36.3161 6.87868 36.8787C6.31607 37.4413 6 38.2044 6 39V63H3C2.20435 63 1.44129 63.3161 0.87868 63.8787C0.31607 64.4413 0 65.2044 0 66C0 66.7956 0.31607 67.5587 0.87868 68.1213C1.44129 68.6839 2.20435 69 3 69H75C75.7956 69 76.5587 68.6839 77.1213 68.1213C77.6839 67.5587 78 66.7956 78 66C78 65.2044 77.6839 64.4413 77.1213 63.8787C76.5587 63.3161 75.7956 63 75 63ZM51 6H66V63H51V6ZM30 24H45V63H30V24ZM12 42H24V63H12V42Z" fill="white"/>
</svg>
