<svg width="103" height="44" viewBox="0 0 103 44" fill="none" xmlns="http://www.w3.org/2000/svg">
<g id="Group 34930">
<path id="Vector" d="M65.121 0.820801H61.3118C60.9771 0.820801 60.7058 1.09213 60.7058 1.42684V30.2108C60.7058 30.5455 60.9771 30.8168 61.3118 30.8168H65.121C65.4557 30.8168 65.727 30.5455 65.727 30.2108V1.42684C65.727 1.09213 65.4557 0.820801 65.121 0.820801Z" fill="white"/>
<path id="Vector_2" d="M52.2406 0.820801H32.3029C31.5001 0.820801 30.8503 1.47056 30.8503 2.27331V4.17091C30.8503 4.97367 31.5001 5.62342 32.3029 5.62342H39.7621V29.1259C39.7621 29.8928 40.3841 30.5148 41.151 30.5148H43.3924C44.1594 30.5148 44.7813 29.8928 44.7813 29.1259V5.62143H52.2406C53.0433 5.62143 53.6931 4.97168 53.6931 4.16892V2.27331C53.6931 1.47056 53.0413 0.820801 52.2406 0.820801Z" fill="white"/>
<path id="Vector_3" d="M31.4444 29.9047L25.6324 18.1416C23.4745 13.7205 20.0767 6.62087 17.9148 2.20373C17.5174 1.39303 16.8994 0.858523 15.9576 0.822757C14.9323 0.783016 14.1573 1.22811 13.7023 2.14412C12.4982 4.57027 11.3139 7.00635 10.1257 9.44045C8.6851 12.3932 7.2465 15.3478 5.80591 18.3006L0.178678 29.6901C-0.077647 30.2087 0.299886 30.8168 0.878108 30.8168H3.5268C4.93361 30.8168 5.28531 29.9922 5.98275 28.6986L6.40003 27.6356C7.56442 25.3525 8.67914 23.0436 9.80776 20.7406C11.0596 18.1873 12.3035 15.632 13.5533 13.0767C14.2964 11.5566 15.0396 10.0385 15.8105 8.46284C15.888 8.61186 15.9357 8.70128 15.9814 8.79268C16.8517 10.585 17.7181 12.3792 18.5904 14.1715C20.6867 18.4834 22.787 22.7932 24.8852 27.103C24.9687 27.2739 25.0382 27.4547 25.1157 27.6296V27.6356L25.533 28.6986C26.2324 29.9902 26.5822 30.8168 27.989 30.8168H30.8781C31.347 30.8168 31.653 30.324 31.4444 29.9047Z" fill="white"/>
<g id="Group">
<path id="Vector_4" d="M0 37.3022H1.78235C2.2811 37.3022 2.70433 37.3638 3.05206 37.4851C3.39979 37.6063 3.6879 37.7632 3.9184 37.952C4.14889 38.1428 4.32971 38.3514 4.46284 38.5819C4.59597 38.8124 4.69333 39.0329 4.75493 39.2455C4.81653 39.4582 4.85627 39.6489 4.87217 39.8198C4.88806 39.9907 4.89601 40.1119 4.89601 40.1814C4.89601 40.251 4.88806 40.3722 4.87217 40.5431C4.85627 40.714 4.81653 40.9047 4.75493 41.1173C4.69333 41.3299 4.59398 41.5505 4.46284 41.781C4.32971 42.0115 4.14889 42.2221 3.9184 42.4109C3.6879 42.6016 3.39979 42.7566 3.05206 42.8798C2.70433 43.003 2.2811 43.0626 1.78235 43.0626H0V37.3022ZM0.536495 42.5758H1.64326C2.02278 42.5758 2.37846 42.5281 2.7083 42.4327C3.04014 42.3373 3.32627 42.1923 3.57067 41.9976C3.81507 41.8028 4.00781 41.5545 4.14889 41.2524C4.28997 40.9524 4.3615 40.5947 4.3615 40.1834C4.3615 39.7721 4.28997 39.4144 4.14889 39.1144C4.00781 38.8144 3.81507 38.566 3.57067 38.3693C3.32627 38.1745 3.03815 38.0295 2.7083 37.9341C2.37846 37.8387 2.02278 37.7911 1.64326 37.7911H0.536495V42.5758Z" fill="white"/>
<path id="Vector_5" d="M18.3064 37.3022H18.8429V43.0626H18.3064V37.3022Z" fill="white"/>
<path id="Vector_6" d="M37.3802 42.6871C37.0444 42.8779 36.6946 43.011 36.335 43.0905C35.9753 43.17 35.6058 43.2077 35.2322 43.2077C34.7931 43.2077 34.3897 43.1322 34.0241 42.9832C33.6585 42.8342 33.3445 42.6255 33.0842 42.3573C32.8239 42.089 32.6213 41.7691 32.4742 41.3976C32.3272 41.026 32.2537 40.6206 32.2537 40.1815C32.2537 39.7424 32.3272 39.339 32.4742 38.9694C32.6213 38.5998 32.8239 38.2819 33.0842 38.0137C33.3445 37.7454 33.6585 37.5348 34.0241 37.3838C34.3897 37.2328 34.7931 37.1553 35.2322 37.1553C36.0886 37.1553 36.7801 37.4215 37.3066 37.9521L36.9172 38.3594C36.8298 38.2561 36.7225 38.1607 36.5953 38.0713C36.4681 37.9819 36.329 37.9064 36.18 37.8428C36.031 37.7812 35.874 37.7315 35.7131 37.6957C35.5501 37.66 35.3912 37.6421 35.2322 37.6421C34.8586 37.6421 34.5208 37.7077 34.2188 37.8368C33.9188 37.968 33.6625 38.1468 33.4498 38.3733C33.2372 38.6018 33.0763 38.8701 32.961 39.1781C32.8478 39.488 32.7902 39.8219 32.7902 40.1795C32.7902 40.5372 32.8478 40.871 32.961 41.181C33.0743 41.4909 33.2372 41.7592 33.4498 41.9857C33.6605 42.2142 33.9168 42.393 34.2188 42.5222C34.5208 42.6533 34.8567 42.7169 35.2322 42.7169C35.5422 42.7169 35.8323 42.6931 36.1025 42.6434C36.3747 42.5937 36.6211 42.5043 36.8437 42.3752V40.4378H35.4607V39.949H37.3802V42.6832V42.6871Z" fill="white"/>
<path id="Vector_7" d="M51.1636 37.3022H51.7001V43.0626H51.1636V37.3022Z" fill="white"/>
<path id="Vector_8" d="M66.7621 37.7889H64.793V37.3H69.2677V37.7889H67.2986V43.0624H66.7621V37.7889Z" fill="white"/>
<path id="Vector_9" d="M83.572 37.3022H84.1244L86.5485 43.0626H85.9465L85.3206 41.5326H82.2685L81.6168 43.0626H81.0544L83.568 37.3022H83.572ZM83.8243 37.8884L82.4811 41.0458H85.1258L83.8243 37.8884Z" fill="white"/>
<path id="Vector_10" d="M99.5862 37.3022H100.123V42.5758H102.807V43.0646H99.5842V37.3042L99.5862 37.3022Z" fill="white"/>
</g>
<path id="Vector_11" opacity="0.95" d="M94.8655 12.1828L102.219 3.55915C102.38 3.37038 102.547 3.17565 102.708 2.96503C102.982 2.60737 103.064 2.24573 102.951 1.89204C102.873 1.65161 102.67 1.32574 102.14 1.14294C101.8 1.0257 101.496 0.966091 101.21 0.962117C100.435 0.950195 99.6502 0.950195 98.8932 0.950195H98.4222C98.2136 0.950195 98.0388 0.964104 97.8718 0.995897C97.1009 1.13896 96.6081 1.62379 96.3061 1.9755C95.5987 2.80011 94.8913 3.62273 94.1859 4.44735C93.5123 5.2342 92.8368 6.02106 92.1612 6.80593L91.0623 8.08756C90.0211 9.30361 88.9462 10.5594 87.8752 11.7814L87.7222 11.9563C86.5578 13.2796 84.9642 15.0938 85.9994 17.3749C86.3313 18.1061 86.7605 18.7857 87.2433 19.4334C87.8414 20.2362 88.517 20.9893 89.1826 21.7304C89.582 22.1755 89.9595 22.5948 90.3132 23.018C91.8552 24.862 93.3931 26.7079 94.9291 28.5578C95.406 29.1321 95.8371 29.6308 96.2445 30.0799C96.6677 30.5488 97.2022 30.8031 97.7884 30.817C98.0964 30.825 98.4064 30.825 98.7084 30.825L99.8589 30.8349H100.115C100.244 30.8349 100.375 30.8349 100.505 30.8349H100.695C100.948 30.8349 101.2 30.8329 101.452 30.825C101.909 30.8091 102.289 30.6064 102.494 30.2666C102.698 29.9269 102.688 29.5116 102.47 29.1281C102.315 28.8559 102.18 28.6532 102.027 28.4724C101.079 27.3378 100.062 26.1217 99.0243 24.9017C96.9141 22.4179 94.7999 19.9361 92.6798 17.4583C92.2983 17.0113 92.1115 16.6417 92.0737 16.2602C92.026 15.7714 92.1731 15.3441 92.5367 14.9169C93.3116 14.0069 94.0866 13.0968 94.8635 12.1868L94.8655 12.1828Z" fill="white"/>
<path id="Vector_12" d="M85.4922 17.4283C84.4291 15.0856 86.0326 13.2436 87.2169 11.8964C86.6824 11.2129 86.1002 10.5631 85.526 9.92329C85.1266 9.4782 84.749 9.05894 84.3953 8.63571C82.8534 6.79175 81.3155 4.94581 79.7795 3.09789C79.3026 2.52364 78.8734 2.02689 78.4641 1.57583C78.0409 1.1069 77.5064 0.852559 76.9202 0.83865C76.6122 0.832689 76.3042 0.830702 76.0002 0.832689L74.8239 0.822754C74.6172 0.822754 74.4086 0.822754 74.202 0.822754H74.0211C73.7668 0.822754 73.5105 0.824741 73.2561 0.834676C72.7991 0.850572 72.4196 1.05325 72.2149 1.39303C72.0103 1.73281 72.0202 2.14809 72.2368 2.53159C72.3918 2.80381 72.5269 3.00649 72.6799 3.1873C73.576 4.26029 74.6331 5.52205 75.6823 6.75797C77.7925 9.24174 79.9067 11.7235 82.0268 14.2013C82.4083 14.6484 82.5951 15.018 82.6329 15.3995C82.6805 15.8883 82.5335 16.3155 82.1719 16.7427C81.3969 17.6528 80.622 18.5628 79.8451 19.4729L72.4931 28.0926C72.3302 28.2813 72.1633 28.4781 72.0023 28.6887C71.7281 29.0463 71.6466 29.408 71.7599 29.7617C71.8374 30.0021 72.0401 30.328 72.5706 30.5108C72.9104 30.628 73.2144 30.6876 73.5005 30.6916C74.0887 30.7015 74.6828 30.7035 75.265 30.7035C75.4359 30.7035 75.6068 30.7035 75.7737 30.7035H76.2883C76.4214 30.7035 76.6221 30.6976 76.8347 30.6578C77.6057 30.5147 78.0985 30.0299 78.4005 29.6782C79.1059 28.8576 79.8093 28.035 80.5147 27.2143C81.1923 26.4255 81.8679 25.6366 82.5454 24.8478L83.6522 23.5562C84.6894 22.3441 85.7644 21.0903 86.8314 19.8723L86.9367 19.7531C86.8732 19.6716 86.8076 19.5921 86.748 19.5087C86.2075 18.7834 85.7962 18.1019 85.4902 17.4283H85.4922Z" fill="white"/>
</g>
</svg>
