<svg width="145" height="52" viewBox="0 0 145 52" fill="none" xmlns="http://www.w3.org/2000/svg">
<path d="M8.89209 39.4866C10.4395 39.4866 11.9889 39.4866 13.5362 39.4866C14.7321 39.4866 15.926 39.4805 17.1219 39.4866C17.5198 39.4886 17.8713 39.3359 17.934 38.9591C18.0531 38.2258 18.0329 37.4844 17.5986 36.8184C16.5643 35.2318 15.5321 33.6452 14.514 32.0504C13.4716 30.4169 12.4515 28.7692 11.4111 27.1377C10.5991 25.8647 9.76476 24.6081 8.94865 23.3392C8.24364 22.2434 7.55278 21.1374 6.85585 20.0355C6.19528 18.9907 5.54482 17.9377 4.87819 16.8989C4.65194 16.5486 4.68022 16.2961 5.02162 16.0374C5.23575 15.8765 5.45795 15.8765 5.68824 15.8765C7.2033 15.8724 8.71836 15.8744 10.2314 15.8744C12.1505 15.8744 14.0695 15.8765 15.9866 15.8724C16.5866 15.8724 16.726 15.7258 16.7381 15.1188C16.7462 14.7787 16.7199 14.4385 16.7441 14.1004C16.8007 13.3611 16.4896 13.0189 15.6715 13.023C10.791 13.0454 5.91045 13.0352 1.02994 13.0352C0.878435 13.0352 0.726929 13.0372 0.575423 13.0495C0.375436 13.0596 0.171408 13.1676 0.147167 13.3468C0.052223 14.0312 -0.121504 14.7705 0.22595 15.3877C0.969339 16.7095 1.87029 17.9377 2.6561 19.2392C3.40959 20.4877 4.23985 21.6894 5.02566 22.9155C5.96297 24.3759 6.89019 25.8403 7.81943 27.3047C8.85371 28.9341 9.88193 30.5656 10.9162 32.195C11.6657 33.3743 12.4111 34.5576 13.1767 35.7288C13.4211 36.1035 13.3241 36.3092 12.9423 36.4661C12.5747 36.6168 12.1949 36.6453 11.805 36.6453C8.32041 36.6412 4.83779 36.6433 1.35315 36.6453C1.06832 36.6453 0.781471 36.6697 0.49664 36.6799C0.189588 36.6921 0.0380824 36.8612 0.0300021 37.1626C0.0158616 37.6535 -0.00635931 38.1464 0.001721 38.6372C0.0138415 39.3847 0.120906 39.4845 0.862275 39.4845C3.53888 39.4866 6.21346 39.4845 8.89007 39.4845L8.89209 39.4866Z" fill="#727276"/>
<path d="M74.9872 39.4864C76.67 39.4864 78.3527 39.4864 80.0374 39.4864C81.098 39.4864 82.1585 39.4926 83.219 39.4803C83.7523 39.4742 83.9786 39.2298 83.9948 38.6982C84.0028 38.4436 83.9988 38.189 83.9988 37.9344C83.9988 37.0763 83.5753 36.6465 82.7282 36.6452C79.1607 36.6452 75.5912 36.6452 72.0238 36.6452C71.7228 36.6452 71.4177 36.6655 71.1289 36.5433C70.6925 36.358 70.5572 35.973 70.8178 35.5698C71.6157 34.3273 72.4278 33.0951 73.2197 31.8486C74.2762 30.1846 75.3024 28.5022 76.369 26.8463C77.5042 25.0845 78.6516 23.3288 79.7647 21.5528C80.9061 19.7279 82.11 17.9396 83.2615 16.1208C83.6433 15.5179 84.0533 14.9333 83.9645 14.1186C83.8715 13.2652 83.718 13.0371 82.8655 13.0371C77.9668 13.0371 73.0702 13.0371 68.1715 13.0371C68.0705 13.0371 67.9695 13.0412 67.8685 13.0412C67.521 13.0371 67.3271 13.2184 67.3008 13.5565C67.2705 13.9455 67.2544 14.3345 67.2544 14.7235C67.2544 15.8682 67.2685 15.8784 68.4078 15.8784C71.7228 15.8784 75.0397 15.8825 78.3547 15.8763C78.7042 15.8763 78.9809 15.9741 79.1728 16.2735C79.3647 16.5709 79.1446 16.8051 79.0153 17.019C78.6254 17.6646 78.183 18.2777 77.7931 18.9233C76.9709 20.2839 76.0639 21.5874 75.2438 22.948C74.4236 24.3065 73.5085 25.6039 72.65 26.94C71.5814 28.604 70.5309 30.2783 69.4724 31.9484C68.5593 33.3904 67.6806 34.8549 66.719 36.2623C66.2282 36.9812 65.9615 37.7022 66.0282 38.574C66.0868 39.3439 66.2039 39.4926 66.9635 39.4926C69.6401 39.4946 72.3167 39.4926 74.9913 39.4926L74.9872 39.4864Z" fill="#727276"/>
<path d="M55.8823 26.2008C55.8823 30.3415 55.8823 34.4823 55.8823 38.623C55.8823 39.3562 56.052 39.5212 56.7772 39.5253C57.2661 39.5293 57.7529 39.5253 58.2418 39.5253C59.2276 39.5253 59.3164 39.4356 59.3164 38.4539C59.3164 30.3089 59.3164 22.1619 59.3164 14.0169C59.3164 13.8988 59.3164 13.7786 59.3144 13.6605C59.3104 13.2246 59.0902 13.0046 58.6579 13.0026C58.0862 13.0026 57.5125 12.9985 56.9408 13.0006C55.9651 13.0006 55.8803 13.0841 55.8803 14.0821C55.8783 18.121 55.8803 22.1599 55.8803 26.1988L55.8823 26.2008Z" fill="#B5C715"/>
<path d="M32.0706 16.1755C34.3917 16.1755 36.7147 16.1775 39.0358 16.1755C39.7186 16.1755 39.8741 16.0125 39.8802 15.3424C39.8843 14.9005 39.8499 14.4564 39.8883 14.0206C39.9469 13.3668 39.5671 13.0124 38.8924 13.0205C36.1168 13.0511 33.3412 13.0327 30.5636 13.0327C28.7637 13.0327 26.9638 13.0307 25.1619 13.0348C24.5296 13.0348 24.4347 13.1346 24.4286 13.7782C24.4226 14.32 24.4246 14.8638 24.4286 15.4076C24.4327 16.1429 24.465 16.1775 25.2064 16.1795C27.4951 16.1816 29.7818 16.1795 32.0706 16.1795V16.1755Z" fill="#727276"/>
<path d="M32.0602 39.4865C32.4299 39.4865 32.7995 39.4865 33.1712 39.4865C35.1226 39.4865 37.074 39.4905 39.0234 39.4824C39.6274 39.4804 39.8658 39.2421 39.8779 38.6718C39.886 38.299 39.8819 37.9263 39.8799 37.5536C39.8799 36.633 39.6981 36.4476 38.7931 36.4476C34.7388 36.4476 30.6865 36.4476 26.6322 36.4476C26.1454 36.4476 25.6565 36.4395 25.1697 36.4537C24.6445 36.47 24.4405 36.6819 24.4304 37.2012C24.4223 37.6921 24.4243 38.185 24.4283 38.6758C24.4324 39.407 24.5071 39.4844 25.2505 39.4865C27.5211 39.4885 29.7917 39.4865 32.0622 39.4865H32.0602Z" fill="#727276"/>
<path d="M49.8171 26.0196C49.8171 26.0196 49.8131 26.0196 49.8111 26.0196C49.8111 24.8159 49.8232 23.6102 49.805 22.4064C49.7969 21.8341 49.3464 21.5571 48.8738 21.8321C47.9162 22.3901 46.8678 22.7384 45.882 23.2395C44.4619 23.9605 42.9731 24.543 41.5368 25.2334C41.2379 25.3781 40.7813 25.4453 40.7793 25.9911C40.7793 26.4046 41.0419 26.5818 41.3065 26.706C42.4418 27.2335 43.5953 27.7224 44.7245 28.2662C46.0254 28.8935 47.3648 29.4414 48.6515 30.1033C49.3323 30.4537 49.8111 30.1828 49.8151 29.4271C49.8212 28.2906 49.8151 27.1541 49.8151 26.0176L49.8171 26.0196Z" fill="#B5C715"/>
<path d="M29.854 27.6957C30.7287 27.6978 31.6034 27.6998 32.4781 27.6978C33.268 27.6978 34.0598 27.6957 34.8497 27.6876C34.9608 27.6876 35.1123 27.7018 35.1487 27.5572C35.1911 27.3841 35.0174 27.4045 34.9265 27.3454C34.3932 27.0093 33.7791 26.8382 33.2538 26.4777C33.0599 26.3453 32.8579 26.2089 32.8781 25.9869C32.8983 25.7527 33.0922 25.5938 33.3286 25.4919C33.8195 25.2781 34.3043 25.0459 34.783 24.8035C34.9406 24.7241 35.1669 24.6161 35.1325 24.4226C35.0961 24.2251 34.8517 24.2841 34.6962 24.2841C31.5166 24.2801 28.3349 24.278 25.1553 24.2862C24.5897 24.2862 24.4362 24.4593 24.4301 25.0235C24.4221 25.6671 24.4241 26.3128 24.4301 26.9584C24.4362 27.6142 24.5049 27.6896 25.1614 27.6937C26.727 27.6998 28.2905 27.6957 29.8561 27.6957H29.854Z" fill="#727276"/>
</svg>
