<svg width="255" height="60" viewBox="0 0 255 60" fill="none" xmlns="http://www.w3.org/2000/svg">
<path d="M98.1378 11.9919V14.0453L103.842 15.3287V32.7318L85.6402 11.9919H71.2758V14.0453L75.4244 15.1234V43.8204L71.2758 45.1039V47.1573H84.9661V45.1039L79.2618 43.8204V20.5137L103.583 47.2087H107.628V15.3287L111.776 14.0453V11.9919H98.1378Z" fill="white"/>
<path d="M127.814 47.6707C137.2 47.6707 143.734 41.7157 143.734 33.5018C143.734 25.4934 137.2 20.3597 127.814 20.3597C118.428 20.3597 111.842 26.3147 111.842 34.5286C111.842 42.537 118.428 47.6707 127.814 47.6707ZM128.022 45.6172C124.392 45.6172 123.043 40.2269 123.043 31.9617C123.043 25.9554 124.132 22.4132 127.607 22.4132C131.185 22.4132 132.533 27.8035 132.533 36.0687C132.533 42.075 131.444 45.6172 128.022 45.6172Z" fill="white"/>
<path d="M155.819 47.6707C159.086 47.6707 162.249 46.3873 165.516 45.0012V43.7178L159.086 42.691V23.4399H164.998V20.8731H159.086V11.4785L144.877 21.8998V23.4399H148.507V40.6889C148.507 45.7199 152.448 47.6707 155.819 47.6707Z" fill="white"/>
<path d="M192.555 38.1221C190.377 40.5863 187.733 41.7157 184.051 41.7157C178.865 41.7157 175.961 38.8922 175.391 34.3232L193.437 33.8098V32.5778C193.437 25.4934 189.185 20.3597 180.939 20.3597C172.694 20.3597 165.693 25.9554 165.693 34.6312C165.693 42.7937 172.072 47.6707 180.525 47.6707C187.733 47.6707 192.089 44.0771 193.644 38.7381L192.555 38.1221ZM180.265 22.4132C183.169 22.4132 183.792 26.4687 183.843 31.6024L175.287 32.1157C175.391 27.0848 176.791 22.4132 180.265 22.4132Z" fill="white"/>
<path d="M217.843 20.3597C213.85 20.3597 211.464 22.3105 208.871 28.2655V20.3597L195.285 24.7746V26.1094L198.396 26.7254V44.3852L195.285 45.2579V47.1573H213.539V45.2579L208.871 43.6664V30.781C211.672 28.1628 214.939 28.0088 217.065 28.0088C219.865 28.0088 220.695 26.2634 220.695 23.9533C220.695 22.1565 220.228 20.3597 217.843 20.3597Z" fill="white"/>
<path d="M244.577 20.8731V22.7725L248.466 23.4399L242.347 38.7895L235.968 23.4399L239.858 22.7725V20.8731H221.552V22.7725L224.404 23.6966L237.887 48.9028C236.954 50.6995 235.968 51.2642 232.235 51.2642C229.901 51.2642 227.879 52.907 227.879 55.3711C227.879 57.8353 229.901 59.4781 231.975 59.4781C234.516 59.4781 236.694 58.5027 239.495 52.1883L252.148 23.6966L255 22.7725V20.8731H244.577Z" fill="white"/>
<path d="M2.44293 2.44897H48.3774C54.7196 2.44897 59.861 7.60227 59.861 13.9592V60H13.9265C7.58431 60 2.44293 54.8467 2.44293 48.4898V2.44897Z" fill="#EDEDED"/>
<path d="M2.44293 2.44897H48.3774C54.7196 2.44897 59.861 7.60227 59.861 13.9592V60H13.9265C7.58431 60 2.44293 54.8467 2.44293 48.4898V2.44897Z" fill="white"/>
<path d="M1.22147 1.22461H47.1559C53.4981 1.22461 58.6395 6.3779 58.6395 12.7348V58.7756H12.7051C6.36284 58.7756 1.22147 53.6223 1.22147 47.2654V1.22461Z" fill="black"/>
<path d="M0 0H45.9344C52.2767 0 57.418 5.15329 57.418 11.5102V57.551H11.4836C5.14138 57.551 0 52.3977 0 46.0408V0Z" fill="white"/>
<path d="M32.5802 14.6938V16.537L37.4233 17.689V33.3098L21.9693 14.6938H9.77332V16.537L13.2956 17.5047V43.2629L9.77332 44.4149V46.2581H21.3969V44.4149L16.5537 43.2629V22.343L37.2032 46.3041H40.6374V17.689L44.1597 16.537V14.6938H32.5802Z" fill="black"/>
<path d="M48.7059 46.5306C50.112 46.5306 51.3098 45.3588 51.3098 43.9417C51.3098 42.5247 50.112 41.3529 48.7059 41.3529C47.2999 41.3529 46.1021 42.5247 46.1021 43.9417C46.1021 45.3588 47.2999 46.5306 48.7059 46.5306Z" fill="black"/>
</svg>
