<svg width="145" height="34" viewBox="0 0 145 34" fill="none" xmlns="http://www.w3.org/2000/svg">
<path d="M55.7402 6.79554V7.95917L58.9801 8.68644V18.5482L48.6418 6.79554H40.4832V7.95917L42.8395 8.57007V24.8317L40.4832 25.559V26.7226H48.2589V25.559L45.019 24.8317V11.6246L58.8328 26.7517H61.1302V8.68644L63.4865 7.95917V6.79554H55.7402Z" fill="#191923"/>
<path d="M72.5958 27.0135C77.9269 27.0135 81.6381 23.639 81.6381 18.9845C81.6381 14.4464 77.9269 11.5373 72.5958 11.5373C67.2647 11.5373 63.524 14.9118 63.524 19.5663C63.524 24.1045 67.2647 27.0135 72.5958 27.0135ZM72.7136 25.8499C70.6519 25.8499 69.8861 22.7954 69.8861 18.1118C69.8861 14.7082 70.5046 12.7009 72.478 12.7009C74.5103 12.7009 75.2761 15.7555 75.2761 20.439C75.2761 23.8427 74.6576 25.8499 72.7136 25.8499Z" fill="#191923"/>
<path d="M88.502 27.0135C90.3576 27.0135 92.1543 26.2863 94.0098 25.5008V24.7736L90.3576 24.1917V13.2828H93.7153V11.8282H90.3576V6.50464L82.2872 12.41V13.2828H84.349V23.0572C84.349 25.9081 86.5875 27.0135 88.502 27.0135Z" fill="#191923"/>
<path d="M109.367 21.6027C108.13 22.999 106.628 23.639 104.537 23.639C101.592 23.639 99.9422 22.039 99.6183 19.45L109.868 19.1591V18.4609C109.868 14.4464 107.453 11.5373 102.77 11.5373C98.0867 11.5373 94.1104 14.7082 94.1104 19.6245C94.1104 24.2499 97.7332 27.0135 102.534 27.0135C106.628 27.0135 109.102 24.9772 109.986 21.9518L109.367 21.6027ZM102.387 12.7009C104.036 12.7009 104.39 14.9991 104.419 17.9082L99.5593 18.1991C99.6183 15.3482 100.414 12.7009 102.387 12.7009Z" fill="#191923"/>
<path d="M123.73 11.5373C121.462 11.5373 120.107 12.6428 118.635 16.0173V11.5373L110.918 14.0391V14.7955L112.685 15.1446V25.1517L110.918 25.6463V26.7226H121.285V25.6463L118.635 24.7445V17.4427C120.225 15.9591 122.081 15.8718 123.288 15.8718C124.879 15.8718 125.35 14.8827 125.35 13.5737C125.35 12.5555 125.085 11.5373 123.73 11.5373Z" fill="#191923"/>
<path d="M138.914 11.8282V12.9046L141.123 13.2828L137.648 21.9809L134.025 13.2828L136.234 12.9046V11.8282H125.837V12.9046L127.457 13.4282L135.115 27.7117C134.585 28.7299 134.025 29.0499 131.904 29.0499C130.579 29.0499 129.43 29.9808 129.43 31.3771C129.43 32.7735 130.579 33.7044 131.757 33.7044C133.2 33.7044 134.437 33.1517 136.028 29.5735L143.215 13.4282L144.835 12.9046V11.8282H138.914Z" fill="#191923"/>
<path d="M1.38745 1.38794H27.4773C31.0795 1.38794 33.9997 4.30814 33.9997 7.91039V34.0002H7.90989C4.30764 34.0002 1.38745 31.08 1.38745 27.4777V1.38794Z" fill="#EDEDED"/>
<path d="M1.38745 1.38794H27.4773C31.0795 1.38794 33.9997 4.30814 33.9997 7.91039V34.0002H7.90989C4.30764 34.0002 1.38745 31.08 1.38745 27.4777V1.38794Z" fill="#191923"/>
<path d="M0.693848 0.69397H26.7836C30.3859 0.69397 33.3061 3.61417 33.3061 7.21642V33.3062H7.21629C3.61404 33.3062 0.693848 30.386 0.693848 26.7838V0.69397Z" fill="white"/>
<path d="M0 0.00012207H26.0898C29.692 0.00012207 32.6122 2.92032 32.6122 6.52257V32.6124H6.52244C2.92019 32.6124 0 29.6922 0 26.0899V0.00012207Z" fill="#191923"/>
<path d="M18.5048 8.32666V9.37112L21.2556 10.0239V18.8757L12.4781 8.32666H5.55103V9.37112L7.55161 9.91946V24.5158L5.55103 25.1686V26.213H12.153V25.1686L9.40216 24.5158V12.6612L21.1306 26.2392H23.0812V10.0239L25.0818 9.37112V8.32666H18.5048Z" fill="white"/>
<path d="M27.6639 26.3675C28.4626 26.3675 29.1429 25.7035 29.1429 24.9005C29.1429 24.0975 28.4626 23.4334 27.6639 23.4334C26.8653 23.4334 26.185 24.0975 26.185 24.9005C26.185 25.7035 26.8653 26.3675 27.6639 26.3675Z" fill="white"/>
</svg>
