<svg width="161" height="43" viewBox="0 0 161 43" fill="none" xmlns="http://www.w3.org/2000/svg">
<g id="Logo SEIZ">
<path id="Vector" d="M17.0432 42.3284C20.009 42.3284 22.9787 42.3284 25.9445 42.3284C28.2366 42.3284 30.5249 42.3186 32.817 42.3284C33.5797 42.3316 34.2534 42.0875 34.3734 41.4854C34.6019 40.3136 34.5632 39.1288 33.7307 38.0644C31.7484 35.5288 29.7698 32.9932 27.8185 30.4445C25.8206 27.834 23.8653 25.2008 21.8713 22.5936C20.3149 20.5592 18.7158 18.5509 17.1516 16.5231C15.8003 14.7719 14.4762 13.0044 13.1404 11.2435C11.8743 9.57372 10.6276 7.8909 9.34987 6.23087C8.91623 5.67102 8.97043 5.2674 9.62477 4.85402C10.0352 4.59688 10.4611 4.59688 10.9025 4.59688C13.8063 4.59037 16.7102 4.59362 19.6102 4.59362C23.2884 4.59362 26.9667 4.59688 30.641 4.59037C31.7909 4.59037 32.0581 4.35601 32.0813 3.38603C32.0968 2.84246 32.0465 2.29888 32.0929 1.75855C32.2014 0.577002 31.6051 0.0301686 30.037 0.0366785C20.6827 0.0724831 11.3284 0.0562083 1.97405 0.0562083C1.68367 0.0562083 1.39328 0.0594632 1.1029 0.078993C0.719585 0.0952678 0.328531 0.267781 0.28207 0.554217C0.100094 1.64788 -0.232882 2.82944 0.433071 3.81569C1.8579 5.92816 3.58473 7.8909 5.09087 9.97082C6.53506 11.9661 8.12638 13.8865 9.63251 15.846C11.429 18.1798 13.2062 20.5202 14.9872 22.8605C16.9696 25.4644 18.9404 28.0717 20.9227 30.6756C22.3592 32.5603 23.7879 34.4514 25.2553 36.323C25.7238 36.9219 25.5379 37.2507 24.8062 37.5013C24.1015 37.7421 23.3736 37.7877 22.6263 37.7877C15.9475 37.7812 9.27244 37.7845 2.59355 37.7877C2.04762 37.7877 1.49782 37.8268 0.951894 37.8431C0.363378 37.8626 0.0729913 38.1327 0.0575041 38.6145C0.0304013 39.3989 -0.0121887 40.1866 0.00329859 40.9711C0.0265295 42.1656 0.231736 42.3251 1.65269 42.3251C6.78286 42.3284 11.9091 42.3251 17.0393 42.3251L17.0432 42.3284Z" fill="white"/>
<path id="Vector_2" d="M143.726 42.3283C146.951 42.3283 150.176 42.3283 153.405 42.3283C155.438 42.3283 157.471 42.338 159.504 42.3185C160.526 42.3087 160.959 41.9181 160.99 41.0686C161.006 40.6617 160.998 40.2548 160.998 39.848C160.998 38.4765 160.186 37.7898 158.563 37.7876C151.725 37.7876 144.884 37.7876 138.046 37.7876C137.469 37.7876 136.884 37.8201 136.331 37.6248C135.494 37.3286 135.235 36.7134 135.734 36.069C137.264 34.0834 138.82 32.1142 140.338 30.1221C142.363 27.4628 144.33 24.7742 146.374 22.128C148.55 19.3124 150.749 16.5066 152.883 13.6683C155.07 10.7519 157.378 7.89402 159.585 4.98734C160.317 4.02387 161.103 3.08969 160.932 1.78771C160.754 0.423882 160.46 0.0593262 158.826 0.0593262C149.437 0.0593262 140.052 0.0593262 130.662 0.0593262C130.469 0.0593262 130.275 0.0658361 130.082 0.0658361C129.416 0.0593262 129.044 0.349018 128.994 0.889341C128.936 1.51104 128.905 2.13274 128.905 2.75443C128.905 4.58372 128.932 4.6 131.115 4.6C137.469 4.6 143.827 4.60651 150.18 4.59674C150.85 4.59674 151.381 4.75298 151.748 5.23146C152.116 5.70668 151.694 6.081 151.446 6.42277C150.699 7.4546 149.851 8.43434 149.104 9.46616C147.528 11.6405 145.79 13.7237 144.218 15.898C142.646 18.069 140.892 20.1424 139.246 22.2777C137.198 24.937 135.185 27.6126 133.156 30.2816C131.406 32.5862 129.722 34.9265 127.879 37.1756C126.938 38.3246 126.427 39.4769 126.554 40.87C126.667 42.1004 126.891 42.338 128.347 42.338C133.477 42.3413 138.607 42.338 143.734 42.338L143.726 42.3283Z" fill="white"/>
<path id="Vector_3" d="M107.109 21.0963C107.109 27.7137 107.109 34.331 107.109 40.9483C107.109 42.1201 107.434 42.3838 108.824 42.3903C109.761 42.3968 110.694 42.3903 111.631 42.3903C113.52 42.3903 113.691 42.2471 113.691 40.6782C113.691 27.6616 113.691 14.6417 113.691 1.62514C113.691 1.43635 113.691 1.24431 113.687 1.05552C113.679 0.358957 113.257 0.00742131 112.429 0.00416635C111.333 0.00416635 110.233 -0.00234357 109.138 0.000911389C107.267 0.000911389 107.105 0.134365 107.105 1.7293C107.101 8.18388 107.105 14.6385 107.105 21.0931L107.109 21.0963Z" fill="#B5C715"/>
<path id="Vector_4" d="M61.469 5.07511C65.9177 5.07511 70.3703 5.07837 74.819 5.07511C76.1277 5.07511 76.4258 4.81472 76.4375 3.74383C76.4452 3.03751 76.3794 2.32793 76.4529 1.63136C76.5652 0.586522 75.8373 0.0201587 74.5441 0.0331786C69.2243 0.082003 63.9044 0.0527083 58.5806 0.0527083C55.1308 0.0527083 51.681 0.0494534 48.2274 0.0559633C47.0155 0.0559633 46.8335 0.215456 46.8219 1.24402C46.8103 2.10984 46.8142 2.97892 46.8219 3.84799C46.8296 5.02303 46.8916 5.07837 48.3126 5.08162C52.6993 5.08488 57.0822 5.08162 61.469 5.08162V5.07511Z" fill="white"/>
<path id="Vector_5" d="M61.4491 42.3281C62.1576 42.3281 62.8662 42.3281 63.5786 42.3281C67.3188 42.3281 71.0589 42.3346 74.7953 42.3216C75.9529 42.3184 76.4098 41.9375 76.433 41.0261C76.4485 40.4305 76.4408 39.8348 76.4369 39.2392C76.4369 37.7679 76.0884 37.4717 74.3539 37.4717C66.5831 37.4717 58.8162 37.4717 51.0455 37.4717C50.1124 37.4717 49.1754 37.4587 48.2423 37.4815C47.2356 37.5075 46.8446 37.846 46.8252 38.6761C46.8097 39.4605 46.8136 40.2482 46.8214 41.0326C46.8291 42.2012 46.9724 42.3249 48.3972 42.3281C52.7491 42.3314 57.101 42.3281 61.453 42.3281H61.4491Z" fill="white"/>
<path id="Vector_6" d="M95.481 20.8069C95.481 20.8069 95.4732 20.8069 95.4694 20.8069C95.4694 18.8833 95.4926 16.9563 95.4577 15.0326C95.4422 14.118 94.5788 13.6753 93.6728 14.1147C91.8376 15.0066 89.8281 15.5632 87.9387 16.3639C85.2168 17.5162 82.3632 18.4471 79.6104 19.5505C79.0374 19.7816 78.1623 19.889 78.1584 20.7614C78.1584 21.4221 78.6618 21.7053 79.169 21.9039C81.345 22.7469 83.5558 23.5281 85.7201 24.3972C88.2136 25.3997 90.7806 26.2753 93.2469 27.3331C94.5517 27.893 95.4694 27.4601 95.4771 26.2525C95.4887 24.4362 95.4771 22.62 95.4771 20.8037L95.481 20.8069Z" fill="#B5C715"/>
<path id="Vector_7" d="M57.2206 23.4853C58.8971 23.4886 60.5736 23.4918 62.2501 23.4886C63.764 23.4886 65.2818 23.4853 66.7956 23.4723C67.0086 23.4723 67.299 23.4951 67.3687 23.264C67.45 22.9873 67.117 23.0198 66.9428 22.9254C65.9206 22.3884 64.7436 22.115 63.7369 21.5388C63.3652 21.3273 62.978 21.1092 63.0167 20.7544C63.0555 20.3801 63.4271 20.1262 63.8802 19.9634C64.821 19.6217 65.7502 19.2506 66.6679 18.8633C66.9699 18.7363 67.4035 18.5638 67.3377 18.2546C67.268 17.9388 66.7995 18.0332 66.5014 18.0332C60.4071 18.0267 54.309 18.0235 48.2148 18.0365C47.1307 18.0365 46.8364 18.3132 46.8248 19.2148C46.8093 20.2434 46.8132 21.2752 46.8248 22.307C46.8364 23.3551 46.968 23.4755 48.2264 23.482C51.227 23.4918 54.2238 23.4853 57.2245 23.4853H57.2206Z" fill="white"/>
</g>
</svg>
