<svg width="127" height="49" viewBox="0 0 127 49" fill="none" xmlns="http://www.w3.org/2000/svg">
<g clip-path="url(#clip0_195_847)">
<path d="M74.7112 0H71.8788C71.0538 0 70.385 0.66681 70.385 1.48936V33.186C70.385 34.0085 71.0538 34.6753 71.8788 34.6753H74.7112C75.5362 34.6753 76.205 34.0085 76.205 33.186V1.48936C76.205 0.66681 75.5362 0 74.7112 0Z" fill="white"/>
<path d="M60.7589 0H37.2639C36.4393 0 35.77 0.667234 35.77 1.48936V4.06149C35.77 4.88362 36.4393 5.55085 37.2639 5.55085H45.8878C46.0058 5.55085 46.1014 5.64617 46.1014 5.76383V32.8374C46.1014 33.6596 46.7706 34.3268 47.5952 34.3268H50.4275C51.2521 34.3268 51.9214 33.6596 51.9214 32.8374V5.76234C51.9214 5.64468 52.017 5.54936 52.135 5.54936H60.7589C61.5835 5.54936 62.2528 4.88213 62.2528 4.06V1.48936C62.2528 0.667234 61.585 0 60.7589 0Z" fill="white"/>
<path d="M36.457 33.6208L29.7183 20.023C27.2162 14.913 23.2769 6.70657 20.7688 1.59806C20.3087 0.661248 19.5931 0.0431632 18.4996 0.0014611C17.3105 -0.0432197 16.4127 0.47061 15.8854 1.52806C14.4887 4.33252 13.1159 7.14742 11.7385 9.96231C10.0669 13.3759 8.39981 16.7925 6.7297 20.2076L0.207609 33.3721C-0.0896644 33.9723 0.34803 34.6753 1.02026 34.6753H4.09158C5.71837 34.6753 6.12768 33.7266 6.93435 32.2387C6.93884 32.2313 6.94182 32.2238 6.94481 32.2149L7.42135 31.0055C7.42135 31.0055 7.42583 30.9936 7.43031 30.9876C8.77924 28.3515 10.0699 25.6855 11.3755 23.027C12.826 20.0751 14.2691 17.1217 15.7166 14.1683C16.5173 12.5344 17.3195 10.9006 18.1471 9.21316C18.2248 9.05529 18.4518 9.0538 18.5295 9.21316V9.21614C19.5393 11.2878 20.5447 13.3625 21.5545 15.4327C23.9865 20.4161 26.42 25.3981 28.8519 30.3815C28.949 30.5781 29.0297 30.7881 29.1208 30.9891V30.9966L29.6003 32.2149C29.6033 32.2223 29.6078 32.2313 29.6108 32.2387C30.416 33.7266 30.8253 34.6753 32.4536 34.6753H35.8027C36.3465 34.6753 36.7005 34.1064 36.46 33.6208H36.457Z" fill="white"/>
<path d="M0 42.3841C0 42.2665 0.0956055 42.1711 0.213619 42.1711H2.06598C2.64409 42.1711 3.13556 42.2411 3.5374 42.3826C3.93925 42.5241 4.27536 42.7043 4.54276 42.9233C4.81015 43.1422 5.02078 43.3865 5.17465 43.6516C5.32851 43.9182 5.44205 44.1728 5.51375 44.4186C5.58545 44.6628 5.63176 44.8848 5.65118 45.0814C5.6706 45.2794 5.67957 45.418 5.67957 45.4999C5.67957 45.5818 5.6706 45.7203 5.65118 45.9184C5.63176 46.1165 5.58695 46.3369 5.51375 46.5811C5.44205 46.8254 5.32851 47.0816 5.17465 47.3482C5.02078 47.6148 4.81015 47.8575 4.54276 48.0765C4.27536 48.2954 3.94074 48.4756 3.5374 48.6171C3.13556 48.7586 2.64409 48.8286 2.06598 48.8286H0.213619C0.0956055 48.8286 0 48.7333 0 48.6156V42.3811V42.3841ZM0.62293 48.0541C0.62293 48.1718 0.718535 48.2671 0.836548 48.2671H1.90614C2.34682 48.2671 2.75762 48.212 3.14154 48.1018C3.52545 47.9916 3.85858 47.8248 4.14091 47.5984C4.42325 47.372 4.64733 47.086 4.81015 46.7375C4.97298 46.389 5.05514 45.978 5.05514 45.5014C5.05514 45.0248 4.97298 44.6122 4.81015 44.2652C4.64583 43.9167 4.42325 43.6307 4.14091 43.4043C3.85858 43.178 3.52396 43.0111 3.14154 42.9009C2.75762 42.7907 2.34532 42.7371 1.90614 42.7371H0.836548C0.718535 42.7371 0.62293 42.8324 0.62293 42.9501V48.0556V48.0541Z" fill="white"/>
<path d="M21.4394 42.1711H21.6366C21.7546 42.1711 21.8503 42.2665 21.8503 42.3841V48.6186C21.8503 48.7362 21.7546 48.8316 21.6366 48.8316H21.4394C21.3214 48.8316 21.2258 48.7362 21.2258 48.6186V42.3841C21.2258 42.2665 21.3214 42.1711 21.4394 42.1711Z" fill="white"/>
<path d="M43.3392 48.2702C43.3392 48.3491 43.2959 48.4221 43.2272 48.4593C42.8717 48.647 42.5057 48.781 42.1277 48.8629C41.7095 48.9538 41.2837 49 40.849 49C40.3396 49 39.872 48.9136 39.4478 48.7408C39.0235 48.568 38.6605 48.3268 38.3588 48.017C38.057 47.7072 37.821 47.3363 37.6507 46.9074C37.4804 46.4785 37.3953 46.0093 37.3953 45.5014C37.3953 44.9936 37.4804 44.5259 37.6507 44.1C37.821 43.674 38.057 43.3046 38.3588 42.9948C38.6605 42.6851 39.0235 42.4423 39.4478 42.2665C39.872 42.0908 40.3396 42.0029 40.849 42.0029C41.7558 42.0029 42.5027 42.2591 43.0898 42.77C43.1824 42.8504 43.1899 42.9919 43.1047 43.0797L42.9538 43.2361C42.8717 43.321 42.7402 43.321 42.6536 43.2421C42.5863 43.1795 42.5102 43.1185 42.428 43.0619C42.2801 42.9576 42.1203 42.8712 41.947 42.7982C41.7737 42.7268 41.5929 42.6702 41.4047 42.6285C41.2165 42.5883 41.0298 42.5674 40.8475 42.5674C40.4128 42.5674 40.0214 42.6419 39.6734 42.7938C39.3238 42.9442 39.0265 43.1512 38.7815 43.4148C38.5366 43.6785 38.3468 43.9883 38.2154 44.3457C38.0839 44.7031 38.0167 45.0889 38.0167 45.5029C38.0167 45.917 38.0824 46.3027 38.2154 46.6602C38.3468 47.0176 38.5366 47.3274 38.7815 47.591C39.0265 47.8546 39.3238 48.0617 39.6734 48.2121C40.0229 48.3625 40.4143 48.4385 40.8475 48.4385C41.206 48.4385 41.5422 48.4102 41.8574 48.3536C42.1277 48.3044 42.3772 48.2225 42.6058 48.1034C42.6745 48.0676 42.7163 47.9946 42.7163 47.9157V46.0153C42.7163 45.8976 42.6207 45.8023 42.5027 45.8023H41.3241C41.206 45.8023 41.1104 45.707 41.1104 45.5893V45.4493C41.1104 45.3317 41.206 45.2363 41.3241 45.2363H43.1241C43.2421 45.2363 43.3377 45.3317 43.3377 45.4493V48.2702H43.3392Z" fill="white"/>
<path d="M59.5339 42.1711H59.7311C59.8491 42.1711 59.9447 42.2665 59.9447 42.3841V48.6186C59.9447 48.7362 59.8491 48.8316 59.7311 48.8316H59.5339C59.4159 48.8316 59.3203 48.7362 59.3203 48.6186V42.3841C59.3203 42.2665 59.4159 42.1711 59.5339 42.1711Z" fill="white"/>
<path d="M77.1925 42.7356H75.3357C75.2177 42.7356 75.1221 42.6403 75.1221 42.5227V42.3827C75.1221 42.265 75.2177 42.1697 75.3357 42.1697H80.098C80.2161 42.1697 80.3117 42.265 80.3117 42.3827V42.5227C80.3117 42.6403 80.2161 42.7356 80.098 42.7356H78.2412C78.1232 42.7356 78.0276 42.831 78.0276 42.9486V48.6186C78.0276 48.7363 77.932 48.8316 77.814 48.8316H77.6168C77.4988 48.8316 77.4032 48.7363 77.4032 48.6186V42.9486C77.4032 42.831 77.3075 42.7356 77.1895 42.7356H77.1925Z" fill="white"/>
<path d="M97.0366 42.1712H97.3966C97.4818 42.1712 97.5595 42.2218 97.5923 42.3007L100.224 48.5352C100.284 48.6752 100.181 48.8301 100.029 48.8301H99.7942C99.7076 48.8301 99.6299 48.778 99.5971 48.6975L98.9786 47.1933C98.9457 47.1129 98.8681 47.0607 98.7814 47.0607H95.5278C95.4427 47.0607 95.365 47.1114 95.3321 47.1903L94.6883 48.7005C94.6554 48.7795 94.5778 48.8301 94.4926 48.8301H94.3074C94.1535 48.8301 94.0504 48.6737 94.1117 48.5322L96.8409 42.2978C96.8753 42.2203 96.9515 42.1697 97.0366 42.1697V42.1712ZM96.9903 43.315L95.7594 46.2029C95.6996 46.3429 95.8027 46.4978 95.9551 46.4978H98.3811C98.532 46.4978 98.635 46.3444 98.5783 46.2044L97.3847 43.3165C97.313 43.1422 97.0665 43.1407 96.9918 43.315H96.9903Z" fill="white"/>
<path d="M115.675 42.1711H115.872C115.99 42.1711 116.086 42.2665 116.086 42.3841V48.0541C116.086 48.1718 116.182 48.2671 116.3 48.2671H118.987C119.105 48.2671 119.201 48.3624 119.201 48.4801V48.6201C119.201 48.7377 119.105 48.8331 118.987 48.8331H115.677C115.559 48.8331 115.463 48.7377 115.463 48.6201V42.3856C115.463 42.268 115.559 42.1726 115.677 42.1726L115.675 42.1711Z" fill="white"/>
<path d="M126.779 21.8848C126.852 21.7909 126.928 21.6986 126.998 21.6033L126.779 21.8848Z" fill="white"/>
<path d="M99.7315 19.1725C100.08 19.9365 100.549 20.7095 101.166 21.5361C101.173 21.5465 101.182 21.5569 101.189 21.5688C101.27 21.6746 101.43 21.6791 101.518 21.5793C102.825 20.0765 104.34 18.0897 103.221 15.6308C102.846 14.8056 102.359 14.0371 101.817 13.3044C101.736 13.1956 101.575 13.1897 101.487 13.291C100.189 14.7744 98.6305 16.7493 99.7315 19.1725Z" fill="white"/>
<path d="M99.473 19.2887C98.2705 16.6421 100.002 14.5481 101.367 12.9962C101.434 12.9187 101.437 12.8055 101.373 12.7266C100.782 11.9834 100.144 11.273 99.5134 10.573C99.0488 10.0562 98.6096 9.56915 98.1973 9.07766C96.4017 6.93596 94.6076 4.79277 92.8195 2.64511C92.2638 1.97936 91.7634 1.4 91.2883 0.875745C90.7953 0.330638 90.1739 0.0357447 89.4897 0.0193617C89.1312 0.0119149 88.7712 0.0104255 88.4172 0.0119149L87.0503 0C86.8083 0 86.5663 0 86.3243 0H86.1137C85.8164 0.00148936 85.5191 0.00297872 85.2233 0.0134043C84.69 0.0312766 84.2479 0.268085 84.0103 0.661277C83.7728 1.05447 83.7818 1.53702 84.0372 1.98383C84.2165 2.29957 84.3763 2.53489 84.5526 2.74489C85.5953 3.99 86.8277 5.45702 88.0497 6.89128C90.5085 9.77617 92.9719 12.6596 95.4397 15.537C95.8849 16.0553 96.1015 16.4843 96.1463 16.9296C96.2015 17.4985 96.0313 17.993 95.6085 18.4904C94.7062 19.5479 93.8024 20.6053 92.8987 21.6628L84.3345 31.6757C84.1463 31.8962 83.9506 32.124 83.7624 32.3683C83.4427 32.7853 83.3471 33.2038 83.4785 33.6149C83.5682 33.8949 83.8057 34.2732 84.4226 34.4862C84.8185 34.6232 85.1726 34.6917 85.5057 34.6962C86.1913 34.7081 86.8815 34.7096 87.5612 34.7096C87.7599 34.7096 87.9586 34.7096 88.1542 34.7096H88.7548C88.9101 34.7096 89.1447 34.7036 89.3926 34.6574C90.2919 34.4906 90.8641 33.9277 91.2166 33.5181C92.0382 32.5649 92.8583 31.6102 93.6785 30.657C94.4672 29.7396 95.2545 28.8236 96.0447 27.9077L97.3354 26.4064C98.5454 24.9989 99.7957 23.5423 101.039 22.126L101.161 21.9874C101.088 21.8921 101.012 21.7998 100.94 21.7045C100.311 20.8615 99.8316 20.0706 99.476 19.2887H99.473Z" fill="white"/>
<path opacity="0.95" d="M109.819 13.105L118.387 3.08903C118.564 2.88201 118.765 2.64818 118.951 2.40541C119.241 2.0286 119.329 1.6518 119.211 1.28839C119.131 1.03818 118.917 0.701583 118.357 0.509456C117.977 0.378392 117.637 0.311371 117.319 0.306903C116.446 0.292009 115.562 0.293498 114.707 0.293498H114.074C113.839 0.293498 113.644 0.309881 113.46 0.342647C112.605 0.502009 112.057 1.04116 111.718 1.43435C110.967 2.30712 110.215 3.17988 109.464 4.05414L109.247 4.30584C108.462 5.22031 107.676 6.13329 106.889 7.04626L105.608 8.53563C104.464 9.86711 103.167 11.3773 101.895 12.8265L101.717 13.029C101.699 13.0499 101.678 13.0722 101.66 13.0931C100.335 14.5973 98.5813 16.6392 99.7331 19.1712C100.081 19.9352 100.55 20.7082 101.167 21.5348C101.227 21.6137 101.29 21.6912 101.351 21.7701C101.998 22.6086 102.715 23.4114 103.414 24.1873C103.887 24.7131 104.325 25.1986 104.737 25.6916C106.533 27.8333 108.327 29.9765 110.115 32.1256C110.669 32.7914 111.168 33.3677 111.642 33.8905C112.11 34.4058 112.695 34.6858 113.337 34.6992C113.696 34.7082 114.054 34.7097 114.406 34.7082L116.047 34.7186H116.721C117.014 34.7171 117.307 34.7156 117.598 34.7052C118.082 34.6888 118.482 34.4773 118.693 34.1258C118.903 33.7773 118.893 33.3469 118.664 32.9463C118.49 32.638 118.334 32.4101 118.163 32.206C117.142 30.9878 115.929 29.5416 114.665 28.0597C112.207 25.1748 109.745 22.2914 107.275 19.4139C106.811 18.8733 106.584 18.419 106.536 17.9439C106.476 17.3348 106.657 16.806 107.107 16.2773C108.009 15.2184 108.913 14.1624 109.816 13.105H109.819Z" fill="white"/>
</g>
<defs>
<clipPath id="clip0_195_847">
<rect width="127" height="49" fill="white"/>
</clipPath>
</defs>
</svg>
