<svg width="84" height="27" viewBox="0 0 84 27" fill="none" xmlns="http://www.w3.org/2000/svg">
<g id="Logo SEIZ">
<path id="Vector" d="M8.89209 26.4867C10.4395 26.4867 11.9889 26.4867 13.5362 26.4867C14.7321 26.4867 15.926 26.4806 17.1219 26.4867C17.5198 26.4887 17.8713 26.336 17.934 25.9592C18.0531 25.2259 18.0329 24.4846 17.5986 23.8185C16.5643 22.2319 15.5321 20.6453 14.514 19.0505C13.4716 17.417 12.4515 15.7693 11.4111 14.1378C10.5991 12.8649 9.76476 11.6082 8.94865 10.3393C8.24364 9.24351 7.55278 8.13755 6.85585 7.03566C6.19528 5.99081 5.54482 4.9378 4.87819 3.89906C4.65194 3.54873 4.68022 3.29618 5.02162 3.03751C5.23575 2.8766 5.45795 2.8766 5.68824 2.8766C7.2033 2.87253 8.71836 2.87457 10.2314 2.87457C12.1505 2.87457 14.0695 2.8766 15.9866 2.87253C16.5866 2.87253 16.726 2.72588 16.7381 2.11893C16.7462 1.77879 16.7199 1.43865 16.7441 1.10055C16.8007 0.361209 16.4896 0.0190337 15.6715 0.0231072C10.791 0.0455116 5.91045 0.0353278 1.02994 0.0353278C0.878435 0.0353278 0.726929 0.0373645 0.575423 0.0495851C0.375436 0.0597689 0.171408 0.167717 0.147167 0.346952C0.052223 1.0313 -0.121504 1.77065 0.22595 2.38778C0.969339 3.70964 1.87029 4.9378 2.6561 6.23929C3.40959 7.48782 4.23985 8.68951 5.02566 9.91564C5.96297 11.376 6.89019 12.8404 7.81943 14.3049C8.85371 15.9343 9.88193 17.5657 10.9162 19.1951C11.6657 20.3744 12.4111 21.5577 13.1767 22.7289C13.4211 23.1036 13.3241 23.3094 12.9423 23.4662C12.5747 23.6169 12.1949 23.6454 11.805 23.6454C8.32041 23.6413 4.83779 23.6434 1.35315 23.6454C1.06832 23.6454 0.781471 23.6699 0.49664 23.68C0.189588 23.6923 0.0380824 23.8613 0.0300021 24.1628C0.0158616 24.6536 -0.00635931 25.1465 0.001721 25.6374C0.0138415 26.3849 0.120906 26.4847 0.862275 26.4847C3.53888 26.4867 6.21346 26.4847 8.89007 26.4847L8.89209 26.4867Z" fill="#727276"/>
<path id="Vector_2" d="M74.987 26.4866C76.6697 26.4866 78.3524 26.4866 80.0372 26.4866C81.0977 26.4866 82.1583 26.4927 83.2188 26.4805C83.7521 26.4743 83.9784 26.2299 83.9945 25.6983C84.0026 25.4437 83.9986 25.1892 83.9986 24.9346C83.9986 24.0764 83.575 23.6466 82.7279 23.6453C79.1605 23.6453 75.591 23.6453 72.0235 23.6453C71.7225 23.6453 71.4175 23.6657 71.1286 23.5435C70.6923 23.3581 70.5569 22.9732 70.8175 22.5699C71.6155 21.3275 72.4275 20.0952 73.2194 18.8487C74.2759 17.1847 75.3021 15.5023 76.3687 13.8464C77.504 12.0847 78.6514 10.329 79.7645 8.55292C80.9058 6.72798 82.1098 4.93971 83.2612 3.12088C83.643 2.518 84.0531 1.93345 83.9642 1.11875C83.8713 0.265348 83.7178 0.0372314 82.8653 0.0372314C77.9666 0.0372314 73.0699 0.0372314 68.1712 0.0372314C68.0702 0.0372314 67.9692 0.041305 67.8682 0.041305C67.5208 0.0372314 67.3268 0.218503 67.3006 0.556605C67.2703 0.945625 67.2541 1.33465 67.2541 1.72367C67.2541 2.86832 67.2683 2.87851 68.4076 2.87851C71.7225 2.87851 75.0395 2.88258 78.3545 2.87647C78.7039 2.87647 78.9807 2.97424 79.1726 3.27364C79.3645 3.57101 79.1443 3.80523 79.015 4.01909C78.6251 4.66474 78.1827 5.27781 77.7929 5.92346C76.9707 7.28401 76.0637 8.58754 75.2435 9.94809C74.4234 11.3066 73.5083 12.604 72.6498 13.9401C71.5811 15.6042 70.5307 17.2784 69.4722 18.9485C68.5591 20.3906 67.6804 21.855 66.7188 23.2624C66.2279 23.9814 65.9613 24.7024 66.0279 25.5741C66.0865 26.344 66.2037 26.4927 66.9632 26.4927C69.6398 26.4947 72.3164 26.4927 74.991 26.4927L74.987 26.4866Z" fill="#727276"/>
<path id="Vector_3" d="M55.8823 13.2009C55.8823 17.3416 55.8823 21.4824 55.8823 25.6231C55.8823 26.3563 56.052 26.5213 56.7772 26.5254C57.2661 26.5295 57.7529 26.5254 58.2418 26.5254C59.2276 26.5254 59.3164 26.4358 59.3164 25.4541C59.3164 17.3091 59.3164 9.16203 59.3164 1.01703C59.3164 0.898902 59.3164 0.778734 59.3144 0.660602C59.3104 0.224736 59.0902 0.00476588 58.6579 0.00272912C58.0862 0.00272912 57.5125 -0.00134439 56.9408 0.000692362C55.9651 0.000692362 55.8803 0.0841995 55.8803 1.08221C55.8783 5.1211 55.8803 9.15999 55.8803 13.1989L55.8823 13.2009Z" fill="#B5C715"/>
<path id="Vector_4" d="M32.0706 3.17558C34.3917 3.17558 36.7147 3.17762 39.0358 3.17558C39.7186 3.17558 39.8741 3.01264 39.8802 2.34255C39.8842 1.90057 39.8499 1.45656 39.8883 1.02069C39.9469 0.366894 39.5671 0.0124982 38.8924 0.0206452C36.1168 0.0511966 33.3412 0.0328658 30.5636 0.0328658C28.7637 0.0328658 26.9638 0.030829 25.1619 0.0349025C24.5296 0.0349025 24.4347 0.134704 24.4286 0.778319C24.4226 1.3201 24.4246 1.86391 24.4286 2.40773C24.4327 3.14299 24.465 3.17762 25.2064 3.17966C27.4951 3.18169 29.7818 3.17966 32.0706 3.17966V3.17558Z" fill="#727276"/>
<path id="Vector_5" d="M32.0602 26.4866C32.4299 26.4866 32.7995 26.4866 33.1712 26.4866C35.1226 26.4866 37.074 26.4907 39.0234 26.4825C39.6274 26.4805 39.8658 26.2422 39.8779 25.6719C39.886 25.2992 39.8819 24.9264 39.8799 24.5537C39.8799 23.6331 39.6981 23.4478 38.7931 23.4478C34.7388 23.4478 30.6865 23.4478 26.6322 23.4478C26.1454 23.4478 25.6565 23.4396 25.1697 23.4539C24.6445 23.4702 24.4405 23.682 24.4304 24.2014C24.4223 24.6922 24.4243 25.1851 24.4283 25.676C24.4324 26.4072 24.5071 26.4846 25.2505 26.4866C27.5211 26.4886 29.7917 26.4866 32.0622 26.4866H32.0602Z" fill="#727276"/>
<path id="Vector_6" d="M49.8171 13.0198C49.8171 13.0198 49.8131 13.0198 49.8111 13.0198C49.8111 11.816 49.8232 10.6103 49.805 9.40655C49.7969 8.83422 49.3464 8.55722 48.8738 8.83218C47.9162 9.39026 46.8678 9.73854 45.882 10.2396C44.4619 10.9606 42.9731 11.5431 41.5368 12.2336C41.2379 12.3782 40.7813 12.4454 40.7793 12.9912C40.7793 13.4047 41.0419 13.5819 41.3065 13.7061C42.4418 14.2337 43.5953 14.7225 44.7245 15.2663C46.0254 15.8936 47.3648 16.4415 48.6515 17.1035C49.3323 17.4538 49.8111 17.1829 49.8151 16.4273C49.8212 15.2907 49.8151 14.1542 49.8151 13.0177L49.8171 13.0198Z" fill="#B5C715"/>
<path id="Vector_7" d="M29.854 14.6958C30.7287 14.6979 31.6034 14.6999 32.4781 14.6979C33.268 14.6979 34.0598 14.6958 34.8497 14.6877C34.9608 14.6877 35.1123 14.702 35.1487 14.5573C35.1911 14.3842 35.0174 14.4046 34.9265 14.3455C34.3932 14.0095 33.7791 13.8384 33.2538 13.4779C33.0599 13.3455 32.8579 13.209 32.8781 12.987C32.8983 12.7528 33.0922 12.5939 33.3286 12.4921C33.8195 12.2782 34.3043 12.046 34.783 11.8036C34.9406 11.7242 35.1669 11.6163 35.1325 11.4228C35.0961 11.2252 34.8517 11.2843 34.6962 11.2843C31.5166 11.2802 28.3349 11.2782 25.1553 11.2863C24.5897 11.2863 24.4362 11.4594 24.4301 12.0236C24.4221 12.6672 24.4241 13.3129 24.4301 13.9585C24.4362 14.6144 24.5049 14.6897 25.1614 14.6938C26.727 14.6999 28.2905 14.6958 29.8561 14.6958H29.854Z" fill="#727276"/>
</g>
</svg>
