<svg width="168" height="53" viewBox="0 0 168 53" fill="none" xmlns="http://www.w3.org/2000/svg">
<g id="Logo SEIZ">
<path id="Vector" d="M17.7497 52.8683C20.8384 52.8683 23.931 52.8683 27.0197 52.8683C29.4067 52.8683 31.7897 52.8561 34.1768 52.8683C34.9711 52.8724 35.6727 52.5675 35.7977 51.8154C36.0356 50.3518 35.9953 48.872 35.1284 47.5426C33.0639 44.3756 31.0035 41.2086 28.9712 38.0253C26.8906 34.7649 24.8544 31.4759 22.7778 28.2195C21.1569 25.6786 19.4916 23.1702 17.8626 20.6374C16.4554 18.4502 15.0764 16.2426 13.6853 14.0432C12.3668 11.9576 11.0684 9.8558 9.73781 7.78241C9.28621 7.08315 9.34266 6.57904 10.0241 6.06272C10.4515 5.74155 10.895 5.74155 11.3547 5.74155C14.3788 5.73342 17.403 5.73749 20.4231 5.73749C24.2536 5.73749 28.0842 5.74155 31.9107 5.73342C33.1082 5.73342 33.3865 5.44071 33.4107 4.2292C33.4268 3.55027 33.3744 2.87134 33.4228 2.19648C33.5357 0.720714 32.9147 0.0377172 31.2817 0.0458481C21.54 0.0905681 11.7983 0.0702408 2.05654 0.0702408C1.75413 0.0702408 1.45171 0.0743063 1.1493 0.098699C0.750118 0.119026 0.34287 0.334496 0.294484 0.692256C0.104972 2.05825 -0.241794 3.53401 0.451738 4.76584C1.93557 7.40433 3.73392 9.8558 5.30243 12.4536C6.80643 14.9457 8.46365 17.3444 10.0322 19.7918C11.9031 22.7067 13.7539 25.6298 15.6086 28.5528C17.6731 31.8052 19.7255 35.0616 21.79 38.314C23.2859 40.6679 24.7738 43.0299 26.302 45.3676C26.7898 46.1156 26.5963 46.5262 25.8342 46.8393C25.1004 47.1401 24.3423 47.197 23.5641 47.197C16.6086 47.1889 9.65717 47.193 2.70169 47.197C2.13315 47.197 1.56058 47.2458 0.992048 47.2661C0.379159 47.2905 0.0767466 47.628 0.0606179 48.2296C0.0323928 49.2094 -0.011961 50.1933 0.00416762 51.173C0.0283606 52.6651 0.242066 52.8643 1.72187 52.8643C7.06449 52.8683 12.4031 52.8643 17.7457 52.8643L17.7497 52.8683Z" fill="#7E7E7E"/>
<path id="Vector_2" d="M149.679 52.868C153.038 52.868 156.397 52.868 159.76 52.868C161.877 52.868 163.994 52.8802 166.11 52.8558C167.175 52.8436 167.627 52.3558 167.659 51.2947C167.675 50.7865 167.667 50.2783 167.667 49.7701C167.667 48.0572 166.821 47.1994 165.131 47.1967C158.01 47.1967 150.885 47.1967 143.764 47.1967C143.163 47.1967 142.555 47.2373 141.978 46.9934C141.107 46.6235 140.837 45.8551 141.357 45.0501C142.95 42.5702 144.571 40.1106 146.151 37.6225C148.26 34.3011 150.308 30.943 152.437 27.6378C154.703 24.1212 156.994 20.6167 159.215 17.0716C161.494 13.429 163.897 9.85953 166.195 6.22908C166.957 5.0257 167.776 3.85891 167.598 2.23273C167.413 0.529306 167.106 0.0739746 165.405 0.0739746C155.627 0.0739746 145.853 0.0739746 136.075 0.0739746C135.873 0.0739746 135.672 0.0821055 135.47 0.0821055C134.776 0.0739746 134.389 0.4358 134.337 1.11067C134.276 1.88717 134.244 2.66367 134.244 3.44017C134.244 5.72496 134.272 5.74529 136.547 5.74529C143.163 5.74529 149.784 5.75342 156.401 5.74122C157.099 5.74122 157.651 5.93636 158.034 6.53399C158.417 7.12754 157.978 7.59507 157.719 8.02194C156.941 9.31069 156.058 10.5344 155.28 11.8231C153.639 14.5389 151.828 17.1408 150.191 19.8565C148.554 22.5681 146.728 25.1578 145.014 27.8248C142.881 31.1463 140.784 34.4881 138.672 37.8217C136.849 40.7001 135.095 43.6231 133.176 46.4324C132.196 47.8675 131.664 49.3067 131.797 51.0467C131.914 52.5834 132.148 52.8802 133.664 52.8802C139.006 52.8843 144.349 52.8802 149.687 52.8802L149.679 52.868Z" fill="#7E7E7E"/>
<path id="Vector_3" d="M111.545 26.3494C111.545 34.6144 111.545 42.8795 111.545 51.1446C111.545 52.6082 111.884 52.9375 113.331 52.9456C114.307 52.9537 115.279 52.9456 116.255 52.9456C118.222 52.9456 118.4 52.7667 118.4 50.8072C118.4 34.5494 118.4 18.2876 118.4 2.0298C118.4 1.794 118.4 1.55414 118.396 1.31835C118.388 0.448339 117.948 0.00926924 117.085 0.00520378C115.944 0.00520378 114.799 -0.00292713 113.658 0.00113833C111.71 0.00113833 111.541 0.167822 111.541 2.1599C111.537 10.2217 111.541 18.2835 111.541 26.3453L111.545 26.3494Z" fill="#B5C715"/>
<path id="Vector_4" d="M64.0152 6.33893C68.6481 6.33893 73.2851 6.34299 77.9181 6.33893C79.2809 6.33893 79.5914 6.01369 79.6035 4.67616C79.6116 3.79395 79.543 2.90768 79.6196 2.03767C79.7366 0.732662 78.9785 0.0252722 77.6318 0.041534C72.0916 0.102516 66.5514 0.0659268 61.0072 0.0659268C57.4145 0.0659268 53.8218 0.0618613 50.2252 0.0699922C48.9631 0.0699922 48.7736 0.2692 48.7615 1.55388C48.7494 2.6353 48.7534 3.72077 48.7615 4.80625C48.7695 6.27388 48.8341 6.34299 50.3139 6.34706C54.8823 6.35112 59.4467 6.34706 64.0152 6.34706V6.33893Z" fill="#7E7E7E"/>
<path id="Vector_5" d="M63.9944 52.8683C64.7323 52.8683 65.4702 52.8683 66.2121 52.8683C70.1072 52.8683 74.0023 52.8764 77.8933 52.8601C79.0989 52.8561 79.5747 52.3804 79.5989 51.2421C79.615 50.4981 79.607 49.7541 79.6029 49.0101C79.6029 47.1726 79.24 46.8026 77.4336 46.8026C69.3411 46.8026 61.2526 46.8026 53.16 46.8026C52.1882 46.8026 51.2125 46.7863 50.2407 46.8148C49.1923 46.8473 48.7851 47.2701 48.7649 48.3068C48.7488 49.2866 48.7528 50.2704 48.7609 51.2502C48.769 52.7097 48.9182 52.8642 50.402 52.8683C54.9341 52.8723 59.4663 52.8683 63.9985 52.8683H63.9944Z" fill="#7E7E7E"/>
<path id="Vector_6" d="M99.4361 25.9879C99.4361 25.9879 99.428 25.9879 99.424 25.9879C99.424 23.5852 99.4482 21.1784 99.4119 18.7757C99.3958 17.6333 98.4966 17.0804 97.5531 17.6293C95.6418 18.7432 93.5491 19.4384 91.5814 20.4385C88.7468 21.8777 85.7751 23.0404 82.9083 24.4186C82.3115 24.7072 81.4002 24.8414 81.3962 25.9309C81.3962 26.7562 81.9204 27.1099 82.4486 27.3579C84.7147 28.4109 87.017 29.3866 89.271 30.4721C91.8677 31.7242 94.5411 32.8178 97.1095 34.1391C98.4684 34.8384 99.424 34.2977 99.4321 32.7894C99.4442 30.5208 99.4321 28.2523 99.4321 25.9838L99.4361 25.9879Z" fill="#B5C715"/>
<path id="Vector_7" d="M59.5908 29.3334C61.3368 29.3374 63.0827 29.3415 64.8286 29.3374C66.4052 29.3374 67.9858 29.3334 69.5624 29.3171C69.7842 29.3171 70.0866 29.3455 70.1591 29.0569C70.2438 28.7113 69.8971 28.752 69.7156 28.6341C68.6511 27.9633 67.4253 27.6218 66.377 26.9022C65.9899 26.638 65.5867 26.3656 65.627 25.9224C65.6673 25.4549 66.0544 25.1378 66.5262 24.9345C67.506 24.5077 68.4737 24.0442 69.4293 23.5604C69.7438 23.4018 70.1954 23.1864 70.1269 22.8002C70.0543 22.4058 69.5664 22.5237 69.2559 22.5237C62.9093 22.5156 56.5587 22.5115 50.212 22.5278C49.083 22.5278 48.7766 22.8733 48.7645 23.9995C48.7484 25.2842 48.7524 26.5729 48.7645 27.8617C48.7766 29.1707 48.9137 29.3212 50.2241 29.3293C53.3491 29.3415 56.4699 29.3334 59.5949 29.3334H59.5908Z" fill="#7E7E7E"/>
</g>
</svg>
