<svg width="145" height="52" viewBox="0 0 145 52" fill="none" xmlns="http://www.w3.org/2000/svg">
<path d="M55.7404 15.7954V16.959L58.9804 17.6863V27.548L48.6421 15.7954H40.4834V16.959L42.8397 17.57V33.8316L40.4834 34.5589V35.7225H48.2592V34.5589L45.0193 33.8316V20.6245L58.8331 35.7516H61.1305V17.6863L63.4868 16.959V15.7954H55.7404Z" fill="#191923"/>
<path d="M72.596 36.0134C77.9272 36.0134 81.6384 32.6389 81.6384 27.9844C81.6384 23.4463 77.9272 20.5372 72.596 20.5372C67.2649 20.5372 63.5243 23.9117 63.5243 28.5662C63.5243 33.1043 67.2649 36.0134 72.596 36.0134ZM72.7139 34.8498C70.6521 34.8498 69.8863 31.7953 69.8863 27.1117C69.8863 23.7081 70.5048 21.7008 72.4782 21.7008C74.5105 21.7008 75.2763 24.7553 75.2763 29.4389C75.2763 32.8425 74.6578 34.8498 72.7139 34.8498Z" fill="#191923"/>
<path d="M88.5022 36.0134C90.3578 36.0134 92.1545 35.2861 94.0101 34.5007V33.7734L90.3578 33.1916V22.2826H93.7155V20.8281H90.3578V15.5045L82.2875 21.4099V22.2826H84.3493V32.0571C84.3493 34.908 86.5877 36.0134 88.5022 36.0134Z" fill="#191923"/>
<path d="M109.368 30.6026C108.131 31.9989 106.628 32.6389 104.537 32.6389C101.592 32.6389 99.9425 31.0389 99.6185 28.4498L109.868 28.1589V27.4608C109.868 23.4463 107.453 20.5372 102.77 20.5372C98.0869 20.5372 94.1106 23.7081 94.1106 28.6244C94.1106 33.2498 97.7335 36.0134 102.534 36.0134C106.628 36.0134 109.103 33.9771 109.986 30.9516L109.368 30.6026ZM102.387 21.7008C104.037 21.7008 104.39 23.999 104.419 26.908L99.5596 27.1989C99.6185 24.3481 100.414 21.7008 102.387 21.7008Z" fill="#191923"/>
<path d="M123.73 20.5372C121.462 20.5372 120.107 21.6426 118.635 25.0172V20.5372L110.918 23.039V23.7953L112.685 24.1444V34.1516L110.918 34.6462V35.7225H121.286V34.6462L118.635 33.7443V26.4426C120.225 24.959 122.081 24.8717 123.288 24.8717C124.879 24.8717 125.35 23.8826 125.35 22.5735C125.35 21.5554 125.085 20.5372 123.73 20.5372Z" fill="#191923"/>
<path d="M138.915 20.8281V21.9045L141.124 22.2826L137.648 30.9807L134.025 22.2826L136.234 21.9045V20.8281H125.837V21.9045L127.457 22.4281L135.115 36.7116C134.585 37.7298 134.025 38.0498 131.905 38.0498C130.579 38.0498 129.431 38.9807 129.431 40.377C129.431 41.7734 130.579 42.7043 131.757 42.7043C133.201 42.7043 134.438 42.1515 136.028 38.5734L143.215 22.4281L144.835 21.9045V20.8281H138.915Z" fill="#191923"/>
<path d="M1.3877 10.3878H27.4775C31.0797 10.3878 33.9999 13.308 33.9999 16.9103V43.0001H7.91014C4.30789 43.0001 1.3877 40.0799 1.3877 36.4776V10.3878Z" fill="#EDEDED"/>
<path d="M1.3877 10.3878H27.4775C31.0797 10.3878 33.9999 13.308 33.9999 16.9103V43.0001H7.91014C4.30789 43.0001 1.3877 40.0799 1.3877 36.4776V10.3878Z" fill="#191923"/>
<path d="M0.693848 9.69385H26.7836C30.3859 9.69385 33.3061 12.614 33.3061 16.2163V42.3061H7.21629C3.61404 42.3061 0.693848 39.3859 0.693848 35.7836V9.69385Z" fill="white"/>
<path d="M0 9H26.0898C29.692 9 32.6122 11.9202 32.6122 15.5224V41.6122H6.52244C2.92019 41.6122 0 38.692 0 35.0898V9Z" fill="#191923"/>
<path d="M18.5051 17.3265V18.371L21.2559 19.0238V27.8756L12.4783 17.3265H5.55127V18.371L7.55186 18.9193V33.5157L5.55127 34.1685V35.2129H12.1532V34.1685L9.4024 33.5157V21.6611L21.1308 35.239H23.0814V19.0238L25.082 18.371V17.3265H18.5051Z" fill="white"/>
<path d="M27.6642 35.3674C28.4628 35.3674 29.1431 34.7033 29.1431 33.9003C29.1431 33.0973 28.4628 32.4333 27.6642 32.4333C26.8656 32.4333 26.1852 33.0973 26.1852 33.9003C26.1852 34.7033 26.8656 35.3674 27.6642 35.3674Z" fill="white"/>
</svg>
